<svg width="702" height="712" viewBox="0 0 702 712" fill="none" xmlns="http://www.w3.org/2000/svg">
<path d="M5.08887 619.165H99.884C99.884 619.165 91.5018 603.911 67.1013 606.131C43.7964 608.251 42.6122 598.625 30.7623 597.441C18.9125 596.257 9.03821 605.341 5.08887 619.165Z" fill="#E0E0E0"/>
<path d="M57.4814 235.073H152.277C152.277 235.073 143.894 219.819 119.494 222.039C96.189 224.16 95.0047 214.534 83.1549 213.349C71.3051 212.165 61.4308 221.25 57.4814 235.073Z" fill="#F5F5F5"/>
<path d="M684.931 306.426H762.817C762.817 306.426 755.93 293.892 735.881 295.717C716.734 297.459 715.759 289.551 706.025 288.577C696.288 287.603 688.176 295.067 684.931 306.426Z" fill="#F5F5F5"/>
<path d="M512.716 158.073C490.875 116.019 454.468 87.0156 413.125 80.446C397.059 77.8928 380.662 78.4506 364.783 82.4216C317.414 94.2697 276.199 136.123 259.114 189.726C249.068 221.25 246.258 257.545 227.191 282.569C202.377 315.134 160.25 316.157 123.209 314.808C86.1688 313.459 44.0124 314.611 19.3188 347.305C3.85321 367.781 -1.06223 396.897 0.184999 424.32C3.48746 496.918 46.7824 561.833 101.844 594.1C156.906 626.366 221.736 629.254 281.997 615.061C366.417 595.177 446.699 540.573 494.955 456.233C540.931 375.877 554.189 267.776 521.946 179.015C519.315 171.773 516.204 164.789 512.716 158.073Z" fill="#EBEBEB"/>
<path d="M450.392 101.593H569.451C569.451 101.593 558.922 82.4326 528.276 85.2212C499.006 87.8849 497.519 75.796 482.636 74.3075C467.753 72.8191 455.353 84.2289 450.392 101.593Z" fill="#E0E0E0"/>
<path d="M79.9387 356.167C79.9387 356.167 67.824 362.261 84.4392 387.678C101.054 413.096 111.992 425.39 111.992 425.39C111.992 425.39 115.098 431.37 109.947 432.905C104.797 434.44 93.0246 433.84 91.3742 440.523C89.6639 447.454 95.1856 453.226 105.603 457.688C116.021 462.151 138.483 472.767 140.511 473.735C142.502 474.686 144.686 477.388 141.345 478.997C138.003 480.606 112.266 486.123 115.615 498.179C118.964 510.236 150.029 517.899 153.408 518.803C156.787 519.706 157.71 520.998 157.638 522.807C157.566 524.617 148.74 525.656 141.483 527.525C134.226 529.394 126.141 532.834 128.656 539.628C131.171 546.422 150.457 559.188 193.906 558.777L214.027 557.268L223.116 539.155C240.206 499.204 235.836 476.494 230.532 471.559C225.229 466.624 218.944 472.766 214.429 478.745C209.913 484.725 205.559 492.472 203.86 491.843C202.162 491.215 201.325 489.864 201.791 486.398C202.257 482.931 207.127 451.308 197.287 443.58C187.445 435.852 172.454 457.488 169.684 459.955C166.915 462.421 165.26 459.364 165.148 457.162C165.034 454.917 163.874 430.1 163.761 418.767C163.647 407.436 160.443 400.117 153.387 399.032C146.583 397.985 142.611 409.08 139.213 413.245C135.815 417.41 131.488 412.243 131.488 412.243C131.488 412.243 124.346 397.419 107.273 372.307C90.1991 347.194 79.7008 356.307 79.7008 356.307" fill="#D3D3D3"/>
<path d="M215.574 561.874C203.107 543.383 181.501 510.142 162.803 481.702C144.111 453.272 127.166 427.547 114.794 408.993C108.61 399.738 103.6 392.243 100.121 387.036C98.4006 384.459 97.0601 382.451 96.1341 381.063C95.6958 380.393 95.3544 379.873 95.1101 379.5C94.8833 379.146 94.7803 378.956 94.7803 378.956C94.7803 378.956 94.9185 379.121 95.1637 379.464C95.4209 379.828 95.7789 380.337 96.2395 380.992C97.1877 382.365 98.5615 384.35 100.322 386.898C103.863 392.033 108.934 399.499 115.164 408.747C127.63 427.238 144.636 452.928 163.328 481.359C182.025 509.799 203.571 543.074 215.942 561.628" fill="white"/>
<path d="M107.807 442.028C107.818 441.986 108.33 442.072 109.248 442.266C110.166 442.457 111.486 442.77 113.114 443.171C116.367 443.984 120.832 445.219 125.734 446.671C130.562 448.121 134.929 449.431 138.269 450.434C139.777 450.876 141.049 451.249 142.072 451.55C142.972 451.808 143.466 451.973 143.455 452.015C143.445 452.056 142.933 451.974 142.013 451.787C141.095 451.595 139.773 451.28 138.149 450.86C134.903 450.017 130.457 448.723 125.557 447.271C120.72 445.857 116.346 444.578 113 443.599C111.489 443.165 110.214 442.797 109.188 442.502C108.29 442.236 107.797 442.069 107.807 442.028Z" fill="white"/>
<path d="M144.689 450.586C144.52 450.545 146.664 441.228 149.473 429.779C152.282 418.327 154.695 409.08 154.864 409.121C155.031 409.162 152.889 418.477 150.081 429.929C147.272 441.378 144.856 450.627 144.689 450.586Z" fill="white"/>
<path d="M171.428 495.55C171.393 495.527 171.637 495.056 172.109 494.224C172.652 493.284 173.33 492.11 174.136 490.718C175.842 487.756 178.18 483.655 180.595 479.037C183.02 474.423 185.069 470.17 186.529 467.08C187.217 465.626 187.797 464.4 188.261 463.42C188.675 462.557 188.924 462.088 188.964 462.105C189.003 462.123 188.83 462.623 188.485 463.517C188.139 464.411 187.616 465.692 186.933 467.262C185.575 470.405 183.583 474.7 181.149 479.329C178.728 483.962 176.322 488.038 174.517 490.946C173.607 492.398 172.859 493.562 172.317 494.352C171.779 495.146 171.466 495.573 171.428 495.55Z" fill="white"/>
<path d="M136.366 495.149C136.365 495.106 136.855 495.064 137.739 495.025C138.756 494.996 140.007 494.963 141.481 494.921C144.64 494.86 149.006 494.818 153.829 494.811C158.651 494.805 163.018 494.834 166.178 494.886C167.653 494.923 168.904 494.955 169.921 494.98C170.804 495.015 171.294 495.057 171.295 495.1C171.295 495.144 170.805 495.185 169.921 495.224C168.904 495.252 167.653 495.287 166.179 495.328C163.02 495.39 158.652 495.432 153.83 495.438C149.009 495.445 144.642 495.416 141.482 495.364C140.009 495.327 138.756 495.295 137.739 495.27C136.856 495.235 136.366 495.193 136.366 495.149Z" fill="white"/>
<path d="M154.927 537.843C154.927 537.799 155.553 537.751 156.685 537.701C157.935 537.662 159.547 537.611 161.481 537.549C165.532 537.449 171.125 537.351 177.305 537.283C183.486 537.216 189.085 537.189 193.135 537.201C195.071 537.221 196.683 537.236 197.933 537.248C199.066 537.273 199.692 537.308 199.692 537.351C199.693 537.395 199.066 537.443 197.934 537.493C196.685 537.532 195.073 537.583 193.138 537.645C189.088 537.745 183.493 537.843 177.311 537.91C171.132 537.978 165.537 538.005 161.486 537.993C159.55 537.973 157.938 537.958 156.689 537.946C155.556 537.921 154.928 537.886 154.927 537.843Z" fill="white"/>
<path d="M198.619 537.062C198.581 537.041 198.876 536.434 199.439 535.36C200.061 534.19 200.869 532.664 201.846 530.823C203.875 526.991 206.659 521.684 209.564 515.742C212.48 509.802 214.976 504.356 216.755 500.402C217.613 498.502 218.323 496.927 218.868 495.718C219.372 494.614 219.669 494.01 219.708 494.028C219.747 494.044 219.527 494.68 219.093 495.814C218.659 496.948 218.005 498.579 217.163 500.579C215.486 504.583 213.047 510.067 210.127 516.018C207.215 521.971 204.366 527.253 202.235 531.036C201.164 532.924 200.284 534.443 199.651 535.481C199.022 536.52 198.656 537.083 198.619 537.062Z" fill="white"/>
<path d="M402.322 465.43C406.166 436.41 385.766 412.471 360.272 398.085C334.777 383.698 305.204 378.883 277.046 370.881C250.489 363.336 224.08 352.328 204.409 332.956C184.739 313.584 172.939 284.463 180.011 257.775C181.785 251.075 184.958 244.343 190.712 240.479C196.467 236.614 205.253 236.712 209.545 242.155C218.686 253.748 200.871 274.511 212.025 284.18C214.586 286.398 218.108 287.217 220.757 289.328C227.81 294.953 225.527 305.888 226.523 314.853C228.493 332.585 245.118 344.896 261.448 352.081C283.318 361.704 307.014 366.227 330.218 371.931C353.421 377.635 376.819 384.821 396.149 398.865C415.479 412.91 432.251 434.896 432.117 458.79C432.079 465.466 431.229 473.678 427.039 478.877C422.849 484.076 417.511 485.155 411.47 482.312C405.429 479.469 401.203 475.071 402.322 465.43Z" fill="#0088FF"/>
<path d="M278.986 234.756C278.066 224.009 286.076 214.649 295.182 209.632C304.288 204.614 314.719 202.575 324.108 198.124C347.418 187.073 362.239 161.066 363.335 134.389C364.43 107.713 352.868 81.0525 334.775 61.4597C327.423 53.4995 318.38 45.1571 318.271 34.2942C318.157 22.9604 329.151 14.0296 340.131 14.1726C351.112 14.3157 361.231 21.6657 367.804 30.9116C374.377 40.1575 378.015 51.1762 381.553 61.9957C379.031 57.4742 384.21 51.8697 389.2 52.3532C394.191 52.8367 398.131 56.9979 401.211 61.1447C414.439 78.9538 420.987 101.835 419.162 123.876C417.336 145.917 407.158 166.895 391.256 181.39C373.493 197.581 349.988 205.177 327.208 212.366C311.354 217.367 295.503 222.371 279.649 227.372" fill="#0088FF"/>
<path d="M264.681 4.84701C259.93 6.84613 257.321 12.867 259.113 17.7018C260.906 22.5367 266.805 25.4013 271.713 23.8205C276.62 22.2397 279.74 16.4687 278.373 11.4981C277.006 6.52744 271.376 3.16116 266.349 4.31103" fill="#0088FF"/>
<path d="M324.399 702.628C318.57 690.541 323.651 675.477 332.939 665.791C342.227 656.105 354.911 650.576 367.192 645.168C394.296 633.229 422.992 619 436.775 592.785C441.424 583.945 444.071 574.217 446.686 564.576C451.745 545.916 456.488 524.728 446.315 508.288C443.388 503.56 438.986 499.353 433.512 498.381C427.28 497.275 420.868 500.708 417.025 505.74C413.184 510.772 411.537 517.146 410.742 523.426C409.23 535.375 410.481 547.53 409.224 559.508C407.968 571.486 403.585 584.012 393.706 590.9C381.707 599.266 364.585 597.388 352.93 606.226C343.52 613.363 339.94 625.74 332.581 634.976C326.395 642.739 317.739 648.047 309.81 654.017C301.88 659.987 294.213 667.272 291.519 676.826C288.721 686.749 292.22 698.162 300.1 704.812C307.981 711.461 319.82 712.991 329.131 708.562" fill="#0088FF"/>
<path d="M142.353 88.7466C132.752 81.6247 126.893 69.7206 127.106 57.7693C127.32 45.8181 133.6 34.1276 143.449 27.3534C149.017 23.5236 155.619 21.1804 160.57 16.581C164.972 12.4904 167.833 6.81535 172.76 3.37485C178.88 -0.898627 187.761 -0.710325 193.693 3.81849C199.625 8.34727 202.147 16.8653 199.636 23.8948C197.367 30.2507 191.661 34.8917 189.278 41.206C186.712 48.0019 188.364 55.6145 187.411 62.816C186.24 71.6654 180.865 79.8646 173.216 84.4677C165.568 89.0707 155.807 89.9833 147.44 86.8742" fill="#0088FF"/>
<g opacity="0.78">
<path d="M402.905 465.138C406.749 436.119 386.349 412.18 360.855 397.793C335.36 383.406 305.787 378.591 277.629 370.589C251.072 363.044 224.663 352.036 204.992 332.664C185.322 313.292 173.523 284.171 180.594 257.484C182.368 250.784 185.541 244.051 191.295 240.187C197.05 236.323 205.836 236.42 210.128 241.864C219.269 253.456 201.454 274.219 212.608 283.889C215.169 286.107 218.691 286.925 221.34 289.037C228.393 294.661 226.11 305.596 227.106 314.562C229.076 332.293 245.701 344.605 262.031 351.79C283.901 361.412 307.597 365.936 330.801 371.64C354.004 377.344 377.402 384.529 396.732 398.574C416.062 412.618 432.834 434.605 432.7 458.498C432.662 465.175 431.812 473.387 427.622 478.585C423.432 483.784 418.094 484.863 412.053 482.02C406.012 479.177 401.786 474.779 402.905 465.138Z" fill="white"/>
<path d="M279.57 234.465C278.65 223.718 286.659 214.358 295.766 209.34C304.872 204.322 315.303 202.283 324.692 197.832C348.002 186.781 362.823 160.775 363.919 134.098C365.014 107.421 353.452 80.7609 335.359 61.1682C328.007 53.2079 318.964 44.8656 318.855 34.0026C318.741 22.6688 329.735 13.738 340.715 13.8811C351.696 14.0241 361.815 21.3741 368.388 30.6201C374.961 39.8659 378.599 50.8846 382.137 61.7041C379.615 57.1826 384.794 51.5782 389.784 52.0616C394.775 52.5451 398.715 56.7063 401.795 60.8531C415.023 78.6622 421.571 101.543 419.746 123.584C417.92 145.625 407.742 166.603 391.84 181.099C374.077 197.289 350.571 204.885 327.792 212.074C311.938 217.076 296.086 222.079 280.233 227.08" fill="white"/>
<path d="M265.263 4.55543C260.512 6.55456 257.903 12.5754 259.695 17.4103C261.488 22.2451 267.388 25.1098 272.295 23.529C277.202 21.9481 280.322 16.1771 278.955 11.2065C277.588 6.23587 271.958 2.86958 266.931 4.01946" fill="white"/>
<path d="M324.982 702.336C319.153 690.249 324.235 675.185 333.522 665.499C342.81 655.813 355.494 650.285 367.775 644.876C394.879 632.937 423.575 618.708 437.358 592.493C442.007 583.653 444.654 573.925 447.269 564.285C452.328 545.625 457.071 524.436 446.898 507.996C443.971 503.268 439.569 499.062 434.095 498.089C427.863 496.983 421.451 500.416 417.608 505.448C413.767 510.481 412.12 516.855 411.325 523.134C409.813 535.084 411.064 547.238 409.807 559.216C408.551 571.195 404.168 583.72 394.289 590.608C382.29 598.974 365.168 597.096 353.513 605.935C344.103 613.071 340.523 625.448 333.164 634.685C326.978 642.448 318.322 647.755 310.393 653.725C302.463 659.696 294.796 666.98 292.102 676.534C289.304 686.457 292.803 697.871 300.683 704.52C308.564 711.169 320.403 712.699 329.714 708.27" fill="white"/>
<path d="M142.936 88.455C133.335 81.3332 127.476 69.429 127.689 57.4777C127.903 45.5265 134.183 33.836 144.032 27.0618C149.6 23.232 156.202 20.8888 161.153 16.2894C165.555 12.1988 168.416 6.52379 173.343 3.08329C179.463 -1.19018 188.344 -1.00188 194.276 3.52693C200.208 8.05571 202.73 16.5737 200.219 23.6032C197.95 29.9591 192.244 34.6002 189.861 40.9144C187.295 47.7103 188.947 55.3229 187.994 62.5244C186.823 71.3738 181.448 79.5731 173.799 84.1761C166.151 88.7792 156.39 89.6918 148.023 86.5827" fill="white"/>
</g>
<path d="M306.833 553.023L349.482 571.598L326.643 624.778C321.698 622.284 323.313 590.393 323.313 590.393L295.499 579.613L306.833 553.023Z" fill="#0088FF"/>
<path d="M328.073 572.958C328.797 572.051 330.258 571.837 331.196 572.522C332.134 573.206 332.364 574.691 331.656 575.613C330.948 576.534 329.201 576.846 328.346 576.06C327.491 575.274 327.318 573.514 328.225 572.79" fill="white"/>
<g opacity="0.6">
<path opacity="0.6" d="M349.483 571.596L345.111 569.892L324.849 621.518C324.849 621.518 324.861 624.329 326.643 624.778L349.483 571.596Z" fill="white"/>
</g>
<path d="M322.673 591.139C322.937 591.242 323.611 589.994 324.994 589.074C326.354 588.118 327.761 587.942 327.761 587.66C327.814 587.399 326.095 587.119 324.44 588.261C322.774 589.388 322.41 591.093 322.673 591.139Z" fill="#263238"/>
<path d="M322.585 597.708C322.812 597.875 323.735 596.938 325.213 596.529C326.678 596.075 327.96 596.363 328.059 596.1C328.206 595.874 326.763 595.041 324.936 595.586C323.105 596.115 322.341 597.596 322.585 597.708Z" fill="#263238"/>
<path d="M327.899 603.742C328.057 603.53 326.912 602.61 325.205 602.666C323.495 602.709 322.409 603.695 322.579 603.897C322.729 604.136 323.83 603.675 325.234 603.649C326.635 603.591 327.763 603.988 327.899 603.742Z" fill="#263238"/>
<path d="M316.606 587.979C316.888 587.971 317.044 586.626 317.774 585.201C318.474 583.761 319.458 582.831 319.293 582.599C319.17 582.367 317.73 583.07 316.894 584.761C316.044 586.445 316.347 588.019 316.606 587.979Z" fill="#263238"/>
<path d="M310.84 584.002C310.947 584.051 311.548 583.095 311.97 581.333C312.178 580.457 312.325 579.379 312.311 578.179C312.302 577.579 312.256 576.947 312.157 576.301C312.104 575.988 312.07 575.629 311.876 575.227C311.729 574.823 311.11 574.365 310.545 574.515C310.02 574.611 309.636 575.019 309.462 575.399C309.281 575.787 309.225 576.136 309.173 576.457C309.062 577.11 309.02 577.749 309.03 578.356C309.055 579.571 309.285 580.649 309.587 581.505C310.199 583.229 310.989 584.067 311.078 584C311.213 583.919 310.657 582.968 310.254 581.308C310.053 580.48 309.911 579.472 309.935 578.358C309.949 577.802 310.007 577.219 310.121 576.627C310.216 576 310.417 575.519 310.73 575.482C310.848 575.472 310.887 575.481 311.001 575.669C311.101 575.855 311.154 576.149 311.206 576.457C311.311 577.06 311.373 577.646 311.405 578.209C311.467 579.336 311.4 580.357 311.286 581.208C311.058 582.914 310.697 583.946 310.84 584.002Z" fill="#263238"/>
<path d="M311.358 583.823C311.438 583.749 310.728 582.834 309.088 582.016C308.273 581.614 307.224 581.266 306.017 581.127C305.414 581.061 304.769 581.049 304.108 581.11C303.449 581.195 302.583 581.275 302.035 582.233C301.788 582.751 302.011 583.363 302.299 583.664C302.583 583.993 302.877 584.163 303.157 584.357C303.737 584.721 304.351 584.971 304.95 585.128C306.154 585.447 307.295 585.387 308.19 585.172C310.015 584.725 310.792 583.776 310.712 583.716C310.62 583.573 309.729 584.263 308.063 584.489C307.242 584.601 306.23 584.58 305.198 584.257C304.682 584.098 304.164 583.866 303.681 583.548C303.152 583.222 302.786 582.812 302.935 582.626C303.043 582.36 303.663 582.094 304.208 582.07C304.802 582.001 305.383 581.994 305.935 582.03C307.04 582.11 308.021 582.36 308.814 582.655C310.406 583.252 311.259 583.948 311.358 583.823Z" fill="#263238"/>
<path d="M273.987 626.08L291.626 663.038L297.151 696.291C297.549 698.689 299.893 700.246 302.257 699.687C303.581 699.373 304.666 698.45 305.175 697.188C308.418 689.159 320.199 659.565 318.756 656.932C317.086 653.883 302.737 616.714 302.737 616.714L273.987 626.08Z" fill="#0088FF"/>
<g opacity="0.6">
<path opacity="0.6" d="M302.257 699.685L317.623 654.411L318.335 655.994C318.951 657.363 319.066 658.9 318.648 660.342C317.529 664.195 314.206 674.768 305.288 697.137C304.77 698.439 303.628 699.399 302.257 699.685Z" fill="white"/>
</g>
<path d="M304.544 645.808C303.899 646.877 304.23 648.428 305.27 649.117C306.311 649.805 307.894 649.482 308.556 648.427C309.219 647.371 308.879 645.493 307.769 644.926C306.659 644.36 304.821 644.839 304.429 646.024" fill="white"/>
<path d="M303.46 679.529C303.296 679.726 301.574 678.151 298.879 678.097C296.186 677.963 294.359 679.417 294.209 679.207C294.135 679.129 294.479 678.627 295.297 678.111C296.107 677.593 297.423 677.148 298.91 677.197C300.397 677.251 301.68 677.787 302.452 678.359C303.232 678.931 303.54 679.456 303.46 679.529Z" fill="#263238"/>
<path d="M303.047 685.725C302.942 685.966 301.196 685.293 299.016 685.608C296.828 685.874 295.322 686.984 295.157 686.777C294.963 686.634 296.406 685.034 298.898 684.715C301.386 684.369 303.197 685.537 303.047 685.725Z" fill="#263238"/>
<path d="M305.529 670.893C305.433 671.148 302.755 670.096 299.322 670.288C295.885 670.428 293.319 671.735 293.2 671.489C293.049 671.317 295.592 669.55 299.279 669.39C302.962 669.193 305.663 670.707 305.529 670.893Z" fill="#263238"/>
<path d="M301.106 659.208C301.108 659.476 298.656 659.543 295.928 660.653C293.182 661.725 291.361 663.366 291.176 663.17C290.991 663.034 292.648 660.979 295.594 659.818C298.53 658.632 301.146 658.982 301.106 659.208Z" fill="#263238"/>
<path d="M296.202 648.231C296.184 648.499 293.549 648.188 290.772 649.591C287.963 650.935 286.603 653.209 286.379 653.06C286.283 653.01 286.478 652.358 287.116 651.472C287.746 650.591 288.872 649.526 290.375 648.783C291.88 648.046 293.412 647.806 294.495 647.845C295.585 647.882 296.22 648.124 296.202 648.231Z" fill="#263238"/>
<path d="M289.898 647.474C289.851 647.496 289.543 647.031 289.214 646.083C288.89 645.142 288.553 643.693 288.672 641.879C288.765 641.004 288.783 639.921 289.605 638.962C290.012 638.48 290.827 638.23 291.492 638.525C292.147 638.808 292.562 639.358 292.841 639.945C293.868 642.333 292.864 645.542 290.351 647.081C287.805 648.579 284.692 648.141 282.711 646.571C282.24 646.145 281.79 645.566 281.795 644.805C281.793 644.041 282.44 643.445 283.015 643.297C284.2 642.963 285.185 643.289 286.05 643.47C287.803 643.927 289.089 644.655 289.904 645.225C290.724 645.799 291.092 646.219 291.057 646.259C290.97 646.417 289.29 644.849 285.905 644.09C285.071 643.939 284.086 643.719 283.254 644.003C282.849 644.139 282.584 644.445 282.586 644.821C282.579 645.187 282.867 645.62 283.256 645.946C284.906 647.217 287.752 647.614 289.884 646.313C292.015 645.039 292.893 642.216 292.086 640.285C291.885 639.824 291.553 639.416 291.186 639.253C290.824 639.094 290.423 639.186 290.141 639.48C289.545 640.099 289.411 641.102 289.306 641.935C288.966 645.385 290.081 647.436 289.898 647.474Z" fill="#263238"/>
<path d="M337.95 541.693L285.064 524.987L301.068 367.82L255.26 341.07L213.369 331.364C213.369 331.364 195.873 367.759 188.094 391.058C171.547 440.611 159.933 458.369 162.587 494.288C163.427 505.656 205.407 534.093 231.919 549.892C232.283 553.519 232.747 556.686 233.326 559.301C242.385 600.256 270.038 654.721 270.038 654.721L312.065 635.182L298.504 588.743L312.628 596.98L337.95 541.693ZM229.473 456.194L235.115 431.003C233.922 447.019 232.832 463.731 232.051 479.757C229.335 472.35 228.41 464.118 229.473 456.194Z" fill="#263238"/>
<path d="M270.038 654.721C270.024 654.726 269.913 654.502 269.712 654.058C269.5 653.573 269.21 652.916 268.841 652.075C268.081 650.279 266.989 647.706 265.593 644.41C262.8 637.741 258.804 628.073 253.994 616.075C249.212 604.066 243.517 589.764 237.781 573.652C236.352 569.623 234.948 565.469 233.634 561.181C233.051 559.01 232.319 556.869 231.937 554.571C231.827 554.005 231.698 553.434 231.604 552.864L231.403 551.151C231.274 550.005 231.148 548.853 231.019 547.696C230.526 543.067 230.117 538.347 229.815 533.548C229.663 531.149 229.532 528.729 229.438 526.292C229.351 523.866 229.241 521.387 229.382 518.92C230.092 499.172 231.752 480.452 233.118 463.412C234.541 446.391 235.823 431.057 236.9 418.164C237.944 405.282 238.671 394.852 239.086 387.638C239.311 384.031 239.437 381.229 239.523 379.328C239.571 378.412 239.609 377.695 239.638 377.166C239.669 376.679 239.693 376.431 239.709 376.431C239.724 376.431 239.733 376.681 239.731 377.17C239.724 377.698 239.716 378.415 239.704 379.333C239.676 381.237 239.608 384.043 239.436 387.654C239.13 394.877 238.498 405.322 237.536 418.213C236.513 431.111 235.294 446.452 233.943 463.481C232.625 480.515 230.99 499.253 230.282 518.939C230.143 521.399 230.251 523.82 230.336 526.258C230.431 528.686 230.557 531.1 230.708 533.492C231.006 538.278 231.408 542.986 231.894 547.603C232.02 548.757 232.147 549.905 232.274 551.049L232.471 552.759C232.564 553.318 232.689 553.867 232.795 554.419C233.158 556.632 233.884 558.787 234.456 560.934C235.756 565.201 237.145 569.349 238.561 573.376C244.245 589.48 249.88 603.805 254.587 615.84C259.358 627.814 263.224 637.52 265.917 644.278C267.246 647.601 268.285 650.196 269.01 652.007C269.343 652.861 269.605 653.529 269.797 654.022C269.971 654.478 270.053 654.716 270.038 654.721Z" fill="#455A64"/>
<path d="M237.715 371.121C237.675 371.169 237.291 370.855 236.612 370.227C235.982 369.564 235.218 368.449 234.568 366.94C233.266 363.914 232.607 359.397 232.507 354.471C232.417 349.531 232.782 345.082 233.107 341.879C233.44 338.676 233.711 336.706 233.833 336.713C233.959 336.722 233.912 338.717 233.74 341.928C233.579 345.138 233.317 349.569 233.405 354.453C233.503 359.324 234.055 363.742 235.16 366.709C235.712 368.188 236.357 369.294 236.88 370.001C237.449 370.669 237.755 371.074 237.715 371.121Z" fill="#455A64"/>
<path d="M219.629 333.714C219.719 333.694 220.156 335.362 219.989 338.113C219.839 340.836 218.91 344.669 216.522 348.175C214.131 351.681 210.903 353.948 208.422 355.085C205.923 356.246 204.214 356.449 204.199 356.358C204.156 356.21 205.789 355.786 208.136 354.517C210.472 353.269 213.496 351.02 215.779 347.67C218.061 344.32 219.049 340.682 219.355 338.051C219.678 335.402 219.475 333.729 219.629 333.714Z" fill="#455A64"/>
<path d="M294.777 425.089C294.794 425.09 294.788 425.252 294.766 425.567C294.736 425.932 294.698 426.392 294.649 426.965C294.518 428.258 294.339 430.052 294.111 432.33C293.597 437.056 292.865 443.774 291.963 452.048C290.073 468.747 287.472 491.704 284.601 517.063C283.491 529.758 284.599 541.977 286.982 552.742C288.159 558.137 289.72 563.149 291.36 567.783C292.986 572.426 294.502 576.752 295.889 580.71C298.614 588.574 300.827 594.961 302.384 599.452C303.116 601.621 303.692 603.329 304.108 604.562C304.282 605.109 304.423 605.549 304.536 605.898C304.628 606.201 304.666 606.358 304.652 606.364C304.637 606.369 304.568 606.222 304.449 605.929C304.315 605.587 304.146 605.156 303.938 604.622C303.484 603.403 302.853 601.714 302.055 599.568C300.434 595.101 298.129 588.748 295.29 580.924C293.872 576.976 292.322 572.663 290.658 568.033C288.981 563.397 287.38 558.347 286.174 552.924C283.73 542.093 282.585 529.78 283.704 516.986C286.533 491.557 289.341 468.62 291.329 451.983C292.351 443.722 293.178 437.015 293.761 432.296C294.062 430.025 294.299 428.236 294.469 426.947C294.555 426.378 294.622 425.922 294.676 425.558C294.727 425.244 294.763 425.087 294.777 425.089Z" fill="#455A64"/>
<path d="M208.28 343.819L253.812 337.068L232.043 306.226L220.367 306.915C212.51 307.378 205.584 312.233 202.469 319.462C200.814 323.3 202.167 327.436 202.96 331.541L208.28 343.819Z" fill="#0088FF"/>
<g opacity="0.4">
<path opacity="0.4" d="M208.279 343.819L253.812 337.068L232.042 306.226L220.366 306.915C212.509 307.378 205.583 312.233 202.468 319.462C200.813 323.3 202.392 327.322 203.185 331.427L208.279 343.819Z" fill="black"/>
</g>
<path d="M410.856 391.964C411.404 393.237 412.01 394.745 412.64 396.557C413.182 398.111 413.439 399.75 413.429 401.396C413.417 403.391 413.292 406.043 412.773 407.472C412.131 409.242 413.974 410.871 415.394 409.918C416.815 408.966 418.702 404.133 418.197 398.092C417.692 392.051 424.308 398.923 426.763 401.383C429.218 403.843 437.174 411.102 438.529 410.946C440.514 410.717 440.637 408.547 438.127 406.147C435.587 403.717 428.598 396.017 429.961 394.783C431.303 393.567 443.631 406.266 443.631 406.266C443.631 406.266 445.829 409.406 447.45 408.033C450.375 405.554 436.273 393.022 434.901 391.862C433.948 391.055 435.381 389.661 436.357 390.58C437.364 391.527 448.362 403.534 451.364 401.04C453.667 399.126 439.861 390.621 438.963 386.863C438.064 383.105 448.778 394.375 450.903 392.458C451.695 391.744 452.185 391.102 445.099 385.517C441.66 382.806 428.729 374.891 428.729 374.891L384.871 270.371L357.075 288.637L410.856 391.964Z" fill="#FFE3CA"/>
<path d="M182.379 188.939L142.949 137.23L142.948 137.231C142.485 135.495 141.913 133.796 141.136 132.172C139.229 128.193 135.935 124.651 131.671 123.511C129.051 122.81 126.009 122.949 124.014 121.114C123.122 120.293 122.552 119.156 121.614 118.389C120.676 117.623 119.061 117.411 118.391 118.421C117.914 119.14 118.153 120.101 118.451 120.91C119.83 124.657 122.212 128.019 125.264 130.592C121.296 131.6 115.628 133.141 115.628 133.141C115.628 133.141 107.248 123.167 102.73 122.989C98.2115 122.812 105.987 131.701 105.987 131.701C105.987 131.701 99.0609 124.682 96.7311 126.464C94.4014 128.246 99.9218 133.472 99.9218 133.472C98.1397 132.411 96.1872 131.313 94.1293 131.559C92.0714 131.806 90.2006 134.134 91.2196 135.939C91.6101 136.632 92.3147 137.077 92.9897 137.496C96.5957 139.73 100.202 141.961 103.808 144.195C105.618 145.317 107.521 146.471 109.645 146.634C115.268 147.066 119.716 143.776 125.342 144.185C125.342 144.185 153.755 211.858 156.78 215.419C159.804 218.981 228.704 226.811 228.704 226.811L270.291 194.185L182.379 188.939Z" fill="#FFE3CA"/>
<path d="M217.56 331.271L223.303 308.966L244.208 335.671L215.146 331.706" fill="#FFE3CA"/>
<path d="M393.858 272.826L370.415 229.045C368.014 221.804 363.507 220.679 359.733 216.478L309.408 188.094C272.73 173.071 252.761 223.453 252.761 223.453L220.994 300.539C187.867 318.156 207.978 342.596 207.978 342.596C207.978 342.596 202.446 320.29 212.934 313.603C223.914 306.601 235.984 323.79 247.68 341.314C261.489 362 301.334 380.465 301.334 380.465C306.583 374.921 305.114 355.565 309.223 345.177C310.527 341.883 341.6 269.909 341.6 269.909L356.997 298.673C356.997 298.673 370.341 282.665 377.825 279.788C385.309 276.91 393.858 272.826 393.858 272.826Z" fill="#0088FF"/>
<path d="M301.333 306.087C301.362 306.134 300.835 306.536 299.811 307.152C298.787 307.769 297.237 308.562 295.231 309.321C291.251 310.855 285.226 312.045 278.693 311.036C272.158 310.027 266.771 307.076 263.439 304.414C261.755 303.085 260.518 301.862 259.729 300.964C258.937 300.068 258.555 299.527 258.597 299.49C258.722 299.373 260.415 301.421 263.823 303.907C267.193 306.391 272.478 309.165 278.831 310.147C285.181 311.126 291.055 310.074 295.019 308.722C299.019 307.378 301.25 305.937 301.333 306.087Z" fill="#263238"/>
<path d="M213.858 231.051L217.933 234.673L248.991 237.603L298.676 185.086L269.455 184.083L218.324 183.333C218.324 183.333 217.953 207.286 213.858 231.051Z" fill="#0088FF"/>
<path d="M261.069 207C261.096 207.015 260.964 207.346 260.689 207.964C260.363 208.664 259.95 209.552 259.443 210.644C258.304 213.076 256.743 216.413 254.834 220.485C250.972 228.808 245.847 240.399 240.294 253.253C234.74 266.114 229.686 277.75 225.865 286.099C223.959 290.277 224.083 294.547 222.952 296.852C222.416 297.931 222.546 296.542 222.202 297.236C221.892 297.837 221.717 300.296 221.688 300.283C221.659 300.271 221.78 299.823 222.037 299.197C222.341 298.485 222.725 297.699 223.2 296.593C224.275 294.132 223.486 289.964 225.286 285.84C228.958 277.312 233.95 265.714 239.468 252.897C245.024 240.038 250.246 228.475 254.259 220.214C256.259 216.08 257.925 212.757 259.13 210.488C259.698 209.427 260.162 208.565 260.528 207.882C260.855 207.29 261.042 206.986 261.069 207Z" fill="#263238"/>
<path d="M355.861 222.274C355.948 222.426 354.021 223.431 351.394 225.668C350.07 226.772 348.638 228.248 347.198 230.006C345.8 231.799 344.421 233.892 343.26 236.246C342.132 238.617 341.34 240.998 340.801 243.205C340.312 245.425 340.04 247.466 339.993 249.19C339.866 252.638 340.272 254.771 340.098 254.798C340.037 254.809 339.906 254.286 339.72 253.32C339.616 252.839 339.517 252.245 339.477 251.548C339.428 250.852 339.32 250.057 339.358 249.177C339.323 247.415 339.533 245.315 339.991 243.026C340.5 240.75 341.29 238.293 342.45 235.855C343.644 233.436 345.083 231.292 346.555 229.483C348.067 227.705 349.587 226.24 350.992 225.175C351.66 224.599 352.348 224.19 352.926 223.799C353.498 223.399 354.025 223.109 354.467 222.892C355.34 222.441 355.832 222.22 355.861 222.274Z" fill="#263238"/>
<path d="M369.275 144.761L340.833 199.591C336.19 208.543 325.415 212.38 316.159 208.378C305.967 203.974 301.619 191.865 306.685 181.985C309.365 176.755 311.591 172.486 311.591 172.486C311.591 172.486 298.821 164.438 304.569 150.675C309.699 138.397 328.663 103.684 332.691 96.344L357.385 107.02C371.268 114.009 376.645 131.078 369.275 144.761Z" fill="#FFE3CA"/>
<path d="M311.487 172.395C311.487 172.395 319.834 176.837 331.526 175.037C331.526 175.037 323.05 183.066 309.922 175.928L311.487 172.395Z" fill="#EB996E"/>
<path d="M366.866 149.502C365.588 148.54 362.549 148.791 361.362 149.863C360.175 150.936 359.388 152.393 358.202 153.467C357.017 154.542 355.124 155.16 353.84 154.204C352.955 153.545 352.65 152.314 352.813 151.224C352.977 150.131 353.528 149.145 354.09 148.194C356.531 144.061 359.324 140.125 361.402 135.799C363.48 131.473 364.831 126.63 364.14 121.88C363.45 117.129 360.398 112.538 355.854 110.993C352.844 109.97 349.52 110.333 346.456 109.488C342.823 108.486 339.722 105.711 338.326 102.21C338.147 101.762 337.103 100.167 337.103 100.167C337.202 99.9409 338.261 98.0785 339.339 97.6989C347.364 94.8749 358.335 97.8627 365.083 103.041C371.831 108.22 376.618 116.634 376.808 125.139C376.997 133.645 371.766 143.097 366.866 149.502Z" fill="#263238"/>
<path d="M366.942 148.581C369.434 144.215 373.53 141.021 376.636 137.068C379.742 133.115 381.841 127.576 379.537 123.107C378.749 121.579 377.505 120.308 376.842 118.723C376.177 117.128 376.153 115.354 375.883 113.648C375.05 108.376 371.649 103.57 366.954 101.031C363.708 99.2755 359.979 98.5842 356.691 96.9093C351.483 94.2555 347.633 89.2647 342.17 87.1829C340.358 86.4925 338.242 86.1735 336.53 87.0845C334.817 87.9955 333.922 90.5078 335.198 91.9693C334.953 90.2375 332.692 89.3156 331.108 90.0565C329.523 90.7974 328.731 92.7036 328.862 94.4477C328.993 96.1918 329.879 97.7904 330.898 99.2117C334.259 103.897 339.35 107.311 344.961 108.638L357.447 107.503L367.79 114.966L375.529 126.941L362.005 144.982L366.942 148.581Z" fill="#263238"/>
<path d="M362.403 145.928C362.68 145.928 373.012 147.21 368.667 156.44C364.322 165.669 355.952 159.405 356.061 159.132C356.17 158.859 362.403 145.928 362.403 145.928Z" fill="#FFBE9D"/>
<path d="M360.527 156.962C360.581 156.952 360.634 157.151 360.848 157.403C361.055 157.649 361.472 157.948 362.038 157.995C363.182 158.096 364.731 156.934 365.56 155.292C365.979 154.462 366.179 153.58 366.192 152.777C366.229 151.969 366.014 151.293 365.565 150.974C365.129 150.63 364.642 150.761 364.407 150.967C364.162 151.168 364.136 151.378 364.079 151.372C364.043 151.383 363.953 151.123 364.208 150.778C364.332 150.613 364.542 150.446 364.842 150.371C365.149 150.295 365.517 150.357 365.842 150.554C366.531 150.938 366.862 151.896 366.848 152.776C366.87 153.679 366.664 154.68 366.194 155.611C365.26 157.443 363.489 158.735 361.973 158.492C361.244 158.356 360.794 157.906 360.618 157.557C360.439 157.195 360.487 156.964 360.527 156.962Z" fill="#EB996E"/>
<path d="M585.908 45.9955C584.71 21.6445 563.997 2.87603 539.646 4.07428C515.295 5.27255 496.527 25.985 497.725 50.3361C498.593 67.9669 509.692 82.6651 524.992 88.9831C525.249 94.2081 525.541 100.106 525.541 100.106L564.184 98.2031C564.184 98.2031 564.11 91.9486 563.922 86.3714C577.76 78.3491 586.749 63.0736 585.908 45.9955Z" fill="#0088FF"/>
<path d="M550.2 98.7075C550.2 98.7075 550.198 98.5227 550.218 98.1626C550.242 97.7809 550.275 97.249 550.318 96.5633C550.42 95.1577 550.567 93.0845 550.827 90.4209C551.089 87.7573 551.451 84.5012 552.109 80.7517C552.786 77.0115 553.75 72.7559 555.506 68.2843C556.386 66.0503 557.418 63.7553 558.807 61.5075C559.523 60.4065 560.434 59.323 561.688 58.6523C562.941 57.9761 564.545 57.8956 565.882 58.5826C566.543 58.9223 567.119 59.5216 567.363 60.2588C567.633 60.9837 567.6 61.8235 567.29 62.5305C566.676 63.959 565.427 64.9956 564.03 65.6334C561.169 66.7956 557.8 66.7041 554.831 65.4361C551.853 64.1698 549.396 61.5677 548.244 58.3843C547.689 56.8021 547.342 55.0546 547.733 53.3111C548.064 51.5813 549.652 49.9703 551.588 50.0507C552.548 50.0745 553.446 50.6841 553.909 51.4953C554.391 52.3013 554.552 53.2745 554.397 54.1958C554.062 56.056 552.803 57.4981 551.513 58.7297C548.848 61.1627 545.124 62.6249 541.381 62.218C537.664 61.8096 534.233 59.533 532.544 56.2817C531.665 54.6854 531.375 52.7087 531.983 50.956C532.289 50.0914 532.923 49.2662 533.82 48.9106C534.702 48.5202 535.726 48.6337 536.547 49.0267C537.378 49.4143 538.07 50.0859 538.504 50.8695C538.952 51.6497 539.183 52.5171 539.3 53.3755C539.509 55.0973 539.349 56.828 538.878 58.4489C537.961 61.6983 535.812 64.5067 533.028 66.1482C530.257 67.8063 526.973 68.3698 523.965 67.851C522.48 67.5982 520.949 67.0857 519.893 65.9412C518.859 64.8243 518.494 62.995 519.44 61.7074C519.911 61.088 520.646 60.7335 521.372 60.6414C522.103 60.553 522.84 60.6639 523.497 60.9457C524.837 61.5276 525.698 62.7017 526.345 63.8381C527.571 66.175 528.574 68.4559 529.584 70.6301C533.547 79.344 536.41 86.5414 538.334 91.5331C539.296 94.0289 540.012 95.9795 540.493 97.3035C540.722 97.9517 540.899 98.4525 541.028 98.813C541.146 99.1553 541.192 99.3353 541.192 99.3353C541.192 99.3353 541.109 99.1692 540.975 98.8339C540.836 98.4787 540.642 97.9813 540.391 97.3418C539.868 96.0099 539.11 94.0822 538.138 91.6098C536.153 86.6443 533.238 79.4715 529.235 70.7896C528.222 68.6335 527.19 66.3285 525.981 64.0462C525.353 62.9445 524.517 61.8523 523.328 61.3469C522.175 60.8475 520.592 60.9282 519.798 61.9773C519.017 63.0193 519.313 64.652 520.234 65.6277C521.177 66.6491 522.611 67.1438 524.047 67.3813C526.94 67.8731 530.111 67.3205 532.77 65.7187C535.439 64.1388 537.501 61.434 538.381 58.3054C538.832 56.7494 538.981 55.0802 538.779 53.4472C538.583 51.8414 537.824 50.1872 536.321 49.5067C535.6 49.166 534.748 49.0805 534.026 49.4027C533.29 49.6957 532.761 50.3703 532.485 51.1394C531.945 52.7121 532.189 54.5322 533.022 56.0337C534.616 59.1097 537.904 61.2953 541.44 61.6792C545.002 62.0707 548.586 60.6697 551.148 58.3311C552.397 57.1478 553.582 55.7534 553.868 54.1079C554.005 53.306 553.86 52.4544 553.451 51.769C553.05 51.0801 552.34 50.6037 551.56 50.5809C550.782 50.5418 549.995 50.8738 549.403 51.3972C548.803 51.915 548.426 52.6517 548.244 53.4331C547.883 55.0103 548.197 56.694 548.73 58.2089C549.828 61.261 552.184 63.7619 555.03 64.9773C557.862 66.2052 561.138 66.2863 563.834 65.1976C565.143 64.611 566.321 63.6167 566.86 62.3554C567.437 61.1002 566.867 59.5593 565.669 58.9796C564.498 58.3676 563.019 58.4246 561.893 59.0357C560.733 59.6481 559.859 60.667 559.158 61.7374C557.792 63.9277 556.742 66.217 555.863 68.4238C554.096 72.8536 553.111 77.0835 552.407 80.8051C551.722 84.5362 551.331 87.7864 551.037 90.4422C550.774 93.0859 550.57 95.1473 550.429 96.5722C550.362 97.2557 550.309 97.7855 550.272 98.1671C550.234 98.5269 550.2 98.7075 550.2 98.7075Z" fill="#263238"/>
<path d="M561.563 105.505L528.384 107.138C527.008 107.206 525.838 106.146 525.771 104.771C525.703 103.395 526.762 102.225 528.138 102.158L561.319 100.524C562.694 100.457 563.863 101.516 563.93 102.892C563.998 104.267 562.938 105.437 561.563 105.505Z" fill="#263238"/>
<path d="M561.669 107.68L528.488 109.313C527.113 109.38 526.054 110.549 526.121 111.924C526.189 113.3 527.359 114.359 528.734 114.291L532.375 114.114L537.66 123.072C538.265 124.098 539.388 124.702 540.577 124.644L552.432 124.06C553.632 124 554.699 123.274 555.193 122.179L559.438 112.781L561.914 112.658C563.289 112.591 564.35 111.422 564.283 110.047C564.215 108.671 563.045 107.612 561.669 107.68Z" fill="#263238"/>
<path d="M512.107 21.4665C514.937 18.5834 517.95 16.5071 520.649 15.1613C523.348 13.8082 525.688 13.1034 527.347 12.8536C529.008 12.5984 529.964 12.7127 530.062 13.0601C530.293 13.8514 527.01 15.201 522.654 18.4301C518.314 21.5944 512.946 27.0229 509.912 34.4667C506.9 41.9216 506.97 49.5561 507.879 54.851C508.753 60.2014 510.166 63.4576 509.45 63.8649C509.138 64.0448 508.372 63.4608 507.358 62.1214C506.343 60.7856 505.157 58.6503 504.163 55.799C503.165 52.9531 502.449 49.3672 502.427 45.3265C502.399 41.2948 503.136 36.8093 504.887 32.4282" fill="white"/>
<path d="M540.758 14.4395C537.962 14.5505 535.46 13.909 535.101 12.442C534.942 11.7152 535.419 10.9076 536.398 10.2471C537.372 9.58833 538.85 9.09487 540.521 9.02089C542.192 8.94873 543.706 9.30882 544.733 9.88058C545.767 10.4524 546.315 11.2142 546.22 11.9517" fill="white"/>
<path d="M554.615 122.996C554.579 123.08 553.728 122.739 552.302 122.406C550.88 122.069 548.862 121.804 546.639 121.973C544.418 122.151 542.462 122.728 541.11 123.283C539.754 123.834 538.964 124.302 538.916 124.225C538.883 124.178 539.605 123.588 540.956 122.931C542.299 122.272 544.303 121.617 546.596 121.433C548.89 121.258 550.971 121.594 552.4 122.034C553.835 122.473 554.641 122.944 554.615 122.996Z" fill="#455A64"/>
<path d="M559.515 112.891C559.522 113.042 553.53 113.457 546.132 113.821C538.732 114.186 532.728 114.36 532.721 114.209C532.714 114.061 538.706 113.644 546.106 113.279C553.504 112.915 559.508 112.741 559.515 112.891Z" fill="#455A64"/>
<path d="M557.633 116.928C557.641 117.001 556.399 117.195 554.382 117.421C552.365 117.648 549.572 117.9 546.483 118.097C543.392 118.292 540.591 118.396 538.562 118.425C536.533 118.455 535.277 118.418 535.274 118.345C535.272 118.269 536.523 118.169 538.546 118.04C540.732 117.907 543.448 117.741 546.449 117.557C549.45 117.36 552.163 117.183 554.348 117.039C556.371 116.91 557.625 116.852 557.633 116.928Z" fill="#455A64"/>
<g opacity="0.885517">
<path d="M167.218 547.264L168.312 549.08C169.54 551.119 171.325 552.765 173.458 553.82L175.36 554.76L173.543 555.854C171.505 557.082 169.859 558.867 168.803 561L167.863 562.902L166.769 561.084C165.542 559.045 163.756 557.4 161.623 556.345L159.722 555.405L161.54 554.311C163.579 553.083 165.223 551.298 166.279 549.165L167.218 547.264Z" fill="#0088FF"/>
<path d="M66.8219 173.76L67.9156 175.576C69.1433 177.615 70.9288 179.259 73.0619 180.315L74.9632 181.257L73.1452 182.349C71.1062 183.576 69.462 185.364 68.4063 187.497L67.4665 189.396L66.3728 187.58C65.1451 185.541 63.3596 183.897 61.2265 182.841L59.3252 181.899L61.1414 180.808C63.1804 179.58 64.8264 177.793 65.8821 175.659L66.8219 173.76Z" fill="#0088FF"/>
<path d="M531.446 238.201L532.538 240.017C533.766 242.056 535.553 243.702 537.686 244.758L539.587 245.697L537.769 246.791C535.73 248.019 534.086 249.804 533.03 251.937L532.091 253.839L530.997 252.021C529.769 249.982 527.982 248.338 525.849 247.282L523.949 246.342L525.765 245.248C527.804 244.021 529.449 242.233 530.504 240.1L531.446 238.201Z" fill="#0088FF"/>
<path d="M476.578 570.721L477.671 572.539C478.899 574.578 480.685 576.222 482.818 577.278L484.719 578.217L482.901 579.311C480.862 580.539 479.218 582.326 478.162 584.459L477.222 586.359L476.129 584.542C474.901 582.503 473.114 580.857 470.981 579.802L469.081 578.862L470.897 577.77C472.936 576.542 474.582 574.755 475.638 572.622L476.578 570.721Z" fill="#0088FF"/>
<path d="M518.615 168.105L519.139 168.317C519.725 168.552 520.368 168.615 520.991 168.498L521.545 168.393L521.335 168.916C521.1 169.503 521.036 170.146 521.154 170.769L521.259 171.323L520.736 171.113C520.149 170.875 519.506 170.814 518.883 170.931L518.329 171.037L518.539 170.513C518.775 169.926 518.838 169.282 518.72 168.659L518.615 168.105Z" fill="#0088FF"/>
<path d="M87.2382 124.964L87.7616 125.174C88.3483 125.41 88.9911 125.473 89.614 125.356L90.1681 125.251L89.9581 125.774C89.7227 126.361 89.6593 127.003 89.777 127.626L89.882 128.18L89.3587 127.97C88.772 127.733 88.1292 127.672 87.5063 127.789L86.9521 127.894L87.1622 127.371C87.3976 126.784 87.461 126.141 87.3433 125.519L87.2382 124.964Z" fill="#0088FF"/>
<path d="M140.478 492.865L141.001 493.077C141.588 493.313 142.232 493.376 142.853 493.258L143.409 493.153L143.197 493.677C142.962 494.263 142.899 494.906 143.016 495.529L143.121 496.083L142.598 495.873C142.011 495.636 141.368 495.574 140.746 495.692L140.191 495.797L140.403 495.274C140.639 494.687 140.7 494.042 140.583 493.42L140.478 492.865Z" fill="#0088FF"/>
</g>
</svg>
