<svg xmlns="http://www.w3.org/2000/svg" xmlns:xlink="http://www.w3.org/1999/xlink" width="631" height="617" fill="none" xmlns:v="https://vecta.io/nano"><style><![CDATA[.B{fill:#eea886}.C{opacity:.95}.D{fill:#faa146}.E{fill:#4598e6}.F{fill:#16202e}.G{fill:#a77860}.H{fill:#353a3d}.I{fill:#3c4145}.J{fill:#181929}]]></style><g clip-path="url(#Q)"><path d="M315.516 99.678H166.34c-11.786 0-21.34 9.549-21.34 21.327v149.083c0 11.779 9.554 21.327 21.34 21.327h149.176c11.786 0 21.341-9.548 21.341-21.327V121.005c0-11.778-9.555-21.327-21.341-21.327z" fill="url(#A)" class="C"/><g fill="#96bfe6"><path d="M285.344 247.765h-88.828v4.384h88.828v-4.384zm-12.581 13.817h-63.665v4.384h63.665v-4.384z"/></g><path d="M605.858 166.179H393.563c-13.885 0-25.141 11.249-25.141 25.125v257.765c0 13.877 11.256 25.126 25.141 25.126h212.295c13.886 0 25.142-11.249 25.142-25.126V191.304c0-13.876-11.256-25.125-25.142-25.125z" fill="url(#B)" class="C"/><path d="M508.301 347.89h-20.824v3.853h20.824v-3.853z" class="E"/><g fill="#96bfe6"><path d="M529.594 383.212H408.411v7.463h121.183v-7.463zm-23.188 35.828h-97.995v7.463h97.995v-7.463zm-40.546-17.914h-57.449v7.463h57.449v-7.463z"/></g><g class="E"><path d="M561.301 196.895v3.762h22.187v20.83h3.772v-24.592h-25.959zm-150.802 24.599h3.772v-20.837h22.188v-3.762h-25.978l.018 24.599zm173.008 107.483v20.836h-22.188v3.769h25.978v-24.605h-3.79zm-169.236 0h-3.772v24.605h25.985v-3.78h-22.188l-.025-20.825zm161.248 98.075a22.22 22.22 0 0 1-12.339-3.741c-3.652-2.439-6.499-5.906-8.18-9.961s-2.121-8.519-1.264-12.825a22.19 22.19 0 0 1 6.079-11.364 22.22 22.22 0 0 1 11.371-6.075 22.23 22.23 0 0 1 12.833 1.263c4.058 1.68 7.527 4.525 9.967 8.175a22.19 22.19 0 0 1 3.743 12.332c-.007 5.884-2.349 11.526-6.513 15.687a22.24 22.24 0 0 1-15.697 6.509h0zm0-40.096c-3.542 0-7.005 1.05-9.95 3.017a17.9 17.9 0 0 0-6.597 8.033c-1.355 3.271-1.71 6.869-1.019 10.342a17.89 17.89 0 0 0 4.902 9.164 17.91 17.91 0 0 0 9.17 4.899c3.474.691 7.076.336 10.348-1.019s6.07-3.649 8.038-6.592a17.89 17.89 0 0 0 3.019-9.944c-.006-4.746-1.895-9.295-5.253-12.651a17.94 17.94 0 0 0-12.658-5.249h0zm-1.415 26.638l-10.09-10.083 3.041-3.039 7.049 7.044 9.883-9.876 3.041 3.039-12.924 12.915z"/></g><path d="M588.89 600.155c0 9.31-131.825 16.856-294.438 16.856S0 609.454 0 600.155s131.826-16.856 294.438-16.856 294.452 7.536 294.452 16.856z" fill="url(#C)"/><path d="M305.59 106.846H176.271V217.732H305.59V106.846Z" fill="url(#D)" class="C"/><path d="M479.121 28.674H373.249c-9.689 0-17.543 7.849-17.543 17.532v91.808c0 9.683 7.854 17.532 17.543 17.532h105.872c9.689 0 17.543-7.849 17.543-17.532V46.206c0-9.683-7.854-17.532-17.543-17.532z" fill="url(#E)" class="C"/><g class="E"><path d="M431.239 131.551h-11.177v2.068h11.177v-2.068zm28.448-79.933v2.025h11.923v11.182h2.023V51.618h-13.946zm-80.953 13.206h2.026V53.658h11.92v-2.039h-13.946v13.206zm92.876 57.696v11.185h-11.923v2.021h13.946v-13.191l-2.023-.015zm-90.85 0h-2.026v13.206h13.946v-2.021h-11.92V122.52zM248.396 226.339h-14.931v2.763h14.931v-2.763zm37.287-106.744v2.704h15.92v14.933h2.707v-17.637h-18.627zm-108.132 17.637h2.706v-14.933h15.921v-2.704h-18.627v17.637zm124.034 77.064v14.941h-15.902v2.701h18.627v-17.642h-2.725zm-121.346 0h-2.706v17.642h18.627v-2.701h-15.903l-.018-14.941z"/></g><path d="M579.007 313.466h-24.908l-3.638-25.526-2.229 25.526h-99.701c-.909-12.858-2.004-22.476-2.397-22.676-.574-.284-4.128 11.12-7.082 22.676H412.07c6.94-29.877 19.886-77.813 27.368-80.7 10.654-4.093 54.098-17.474 54.098-17.474h24.789s44.056 12.563 48.155 26.217c3.256 10.898 10.443 46.787 12.527 71.957z" fill="#e65353"/><g fill="#eea987"><path d="M507.071 134.931s23.148 3.635 19.642 39.841S502.757 208 501.39 207.964s-20.508.662-22.003-43.534c-.018 0-.669-32.679 27.684-29.499z"/><path d="M517.878 197.306s-.637 14.904.804 18.11-19.1 13.574-31.645 2.039c0 0 3.026-16.18 2.182-21.916s28.659 1.767 28.659 1.767zm9.177-32.76s2.546-2.704 3.466.037-3.932 14.976-3.615 15.529c0 0-.462 1.061-1.07.476s1.219-16.042 1.219-16.042zm-47.424-.458s-2.481-2.751-3.463-.032 3.637 15.053 3.314 15.598c0 0 .44 1.069 1.062.498s-.913-16.064-.913-16.064z"/></g><path d="M527.055 170.101l-3.314 4.427s.095-9.709-.436-11.228-1.346-6.18-1.79-7.271-19.882-6.543-37.046 1.589c0 0 .756 6.979-.892 7.601s-.836 11.37-.836 11.37l-2.725-3.071s-4.172-27.849-3.142-30.753 4.314-20.357 39.531-9.993c0 0 10.977-2.323 13.182 5.253s-2.532 32.076-2.532 32.076z" fill="#d98b52"/><path d="M518.689 215.416s5.223 1.112-16.634 22.047c0 0-15.499-17.14-14.997-19.993s31.631-2.054 31.631-2.054z" fill="#eea987"/><g fill="#b84343"><path d="M502.048 237.463l5.965 10.193 17.696-30.023-7.664-5.343-15.997 25.173z"/><path d="M502.048 237.463l-14.473-23.018-8.206 5.268 14.713 27.943 7.966-10.193z"/><path d="M497.563 301.23c.178 3.395.258 7.557.266 12.236h-.819c0-4.657-.087-8.812-.265-12.196-1.335-25.537 4.848-56.61 4.885-63.898l.8.16c-.04 7.288-6.209 38.27-4.867 63.698z"/></g><path d="M491.409 203.704s5.499 5.816 13.269 4.264 11.217-5.089 11.217-5.089-3.066 7.684-12.05 8.386-12.436-7.561-12.436-7.561z" fill="#c78d71"/><path d="M223.164 120.62h-.055c-.52-.127-1.349-2.632-1.509-3.13l-.233-.727c-.648-2.003-2.183-6.696-1.575-8.492.189-.567.48-.897.865-.977.833-.171 1.783.883 1.819.93l.018.022v.029c.219 1.974 1.27 11.84.815 12.294-.04.034-.092.053-.145.051h0zm-2.314-13.166a.65.65 0 0 0-.153 0c-.316.065-.56.363-.727.847-.571 1.737.989 6.543 1.575 8.36l.233.727c.385 1.196 1.066 2.908 1.375 2.999.017.004.021.003.025 0 .291-.392-.364-7.633-.866-12.108-.123-.102-.832-.825-1.462-.825z" class="B"/><path d="M240.372 81.285s12.731-1.338 17.332 10.963 8.915 16.322 9.457 22.785c2.182 26.129 14.4 20.218 10.967 35.282s-5.82 17.343-5.82 17.343l-29.186-5.722-29.572.095s11.57-5.773 8.995-18.07-8.995-32.458-5.369-46.166 15.579-15.464 23.196-16.511z" class="F"/><path d="M255.933 120.62c-.029 0-.057-.006-.083-.017s-.05-.028-.07-.049c-.455-.454.6-10.32.815-12.293v-.03-.021c.04-.048.993-1.091 1.818-.931.389.08.68.411.866.978.593 1.796-.928 6.489-1.575 8.491l-.229.728c-.164.501-.99 3.006-1.513 3.133l-.029.011zm.865-12.294c-.487 4.489-1.153 11.716-.862 12.108.018.005.022.003.026 0 .305-.076.985-1.817 1.371-3.002.036-.135.12-.389.233-.727.589-1.818 2.149-6.638 1.575-8.361-.164-.498-.408-.781-.728-.847-.676-.167-1.495.669-1.615.829z" class="B"/><path d="M300.287 198.775H282.1l-6.835-12.243s-2.451 4.471-4.365 12.243h-61.231c-.785-4.22-1.052-8.519-.797-12.803l-7.071 12.803h-20.573c5.456-10.215 15.688-28.82 18.016-31.262 2.91-3.054 19.838-14.744 31.922-18.558s18.954-.13 18.954-.13 12.407 2.232 23.883 6.779c4.51 1.796 16.987 24.802 26.284 43.171z" class="D"/><g fill="#8e4f3a"><path d="M242.053 88.475s16.877 2.436 14.407 27.332-17.368 22.923-18.361 22.901-14.943.516-16.15-29.862c0 0-.564-22.469 20.104-20.371z"/><path d="M249.549 134.291s-1.044 12.952 1.455 16.831-2.135 9.146-11.672 7.347-8.988-7.209-8.988-7.209 2.673-7.997 1.891-14.388 17.314-2.581 17.314-2.581z"/></g><path d="M240.121 97.501l11.549 12.479c3.662 4.198 4.084 12.297 4.084 12.297s6.184-7.531 3.59-16.303-8.686-25.835-24.141-20.593-16.026 28.318-14.211 39.757c0 0 6.937-25.256 19.129-27.637z" class="F"/><path d="M255.474 149.981s-11.701 29.622-18.816 34.773c0 0-9.344-30.215-8.69-34.639 0 .015 14.095-5.522 27.506-.134z" fill="#8e4f3a"/><path d="M230.744 142.816s-20.864 18.539-15.452 30.124c4.624 9.88 21.01 3.82 18.307-6.543s-2.855-23.581-2.855-23.581z" class="F"/><path d="M233.472 137.581s7.191 3.395 14.186-1.621c-.727 1.278-1.752 2.362-2.987 3.159s-2.645 1.285-4.11 1.421c-5.147.571-7.089-2.959-7.089-2.959z" fill="#633029"/><path d="M418.661 69.067l-8.366 31.891c-.429 1.766-1.818 4.82-3.575 8.302 0 .026-.026.051-.044.08-.334.664-.553 1.379-.647 2.116-.28 2.181.553 3.878-.891 6.452l-.262 1.091h-13.695l5.252-15.631 2.725-8.314c.847-2.825 3.95-11.967 6.591-18.034.909-2.137 4.459-4.246 7.602-5.772 2.811-1.32 5.31-2.181 5.31-2.181z" fill="#323657"/><path d="M409.488 31.876S405.123 3.65 428.515 4.169s23.079 14.479 22.664 28.332-9.38 12.81.728 32.08-8.755 19.266-8.755 19.266l-14.637-20.102-19.027-31.869z" fill="#fccca2"/><path d="M425.958 6.878s-15.845 2.501-16.47 24.999 4.274 27.289 18.136 22.603 18.238-28.226 18.55-31.872 1.146-18.437-20.216-15.729z" class="B"/><g fill="#e55353"><path d="M453.777 85.13c.058 7.743-8.847 26.264-10.222 31.989a36.69 36.69 0 0 1-.512 1.858h-43.234l-.538-6.238c-.364-4.228-4.631-13.337-4.489-17.579.149-4.322 2.27-8.052 5.241-12.668l2.856-4.3c3.146-4.617 6.289-8.808 7.835-10.251.981-.921 2.036-1.761 3.153-2.512h0a14.62 14.62 0 0 1 3.248-1.709l13.615-2.181s8.486 3.072 13.371 4.209c.022-.007 9.534 1.389 9.676 19.382z"/><path d="M413.875 65.432l-7.89 12.432-7.275 11.472c.019-.062.502-1.799 1.324-6.83l.506-3.232a8.3 8.3 0 0 1 .229-1.058h0c3.117-7.183 12.756-12.599 13.095-12.777l.011-.007z"/></g><path d="M436.535 44.348c-1.375 2.592-2.822 18.677-2.822 18.677s-19.376 7.317-17.394 3.181c.898-1.879 1.164-4.319 1.182-6.42.01-1.306-.061-2.611-.215-3.908-.051-.425-.091-.669-.091-.669s20.715-13.457 19.34-10.862z" class="B"/><path d="M419.494 23.021s8.13 13.228 15.528 18.437 3.637 9.375 3.637 9.375 19.308-40.622.953-43.436-29.611-3.021-30.135 24.479c.011 0 8.351-9.062 10.017-8.855z" fill="#fccca2"/><path d="M428.333 54.218c-2.972 4.384-10.832 5.565-10.832 5.565.01-1.306-.061-2.611-.215-3.908 5.049.971 11.047-1.658 11.047-1.658z" class="G"/><path d="M400.791 78.118s-.422.869-.768 4.362l2.856-4.304s5.092-7.303 6.842-9.2c1.266-1.316 2.654-2.509 4.146-3.562 0 0-10.028 4.824-13.076 12.705z" fill="#ebeeff"/><path d="M439.347 89.009s12.436-4.875 16.114-5.158c0 0-2.499-19.96-14.717-17.845s-1.397 23.003-1.397 23.003z" fill="#e55353"/><path d="M417.119 63.709s-9.13 14.028-6.038 15.267 19.82-1.632 26.917-14.958c.014-.014-10.607-5.467-20.879-.309z" class="B"/><g fill="#323657"><path d="M455.464 83.851c-.633 11-3.757 21.447-6.336 31.011l-1.069 4.111h-25.32c-.062-3.791-.047-7.139.069-9.931 1.277-30.535 10.959-46.591 10.959-46.591s3.092 1.04 12.004 3.559c6.1 1.723 8.402 9.477 9.242 14.177v.058a33.12 33.12 0 0 1 .451 3.606h0zm-38.348-20.135c-1.401 2.435-2.658 4.95-3.765 7.532-3.001 6.874-6.747 17.757-7.064 29.746-.098 3.85-.866 10.087-2.03 17.965h-5.052a80.27 80.27 0 0 0-2.779-15.631c-.691-2.458-1.327-4.29-1.669-5.453-1.612-5.478 3.542-12.774 5.267-15.387s5.859-14.595 17.092-18.772z"/><path d="M463.528 118.973h-13.585c0-.883-.306-2.326-.804-4.111-2.47-8.772-9.781-25.857-9.781-25.857s-10.938-17.866-.571-22.418 14.826 8.172 16.223 13.599v.058c.341 1.298 6.514 24.809 8.518 38.728z"/></g><g class="B"><path d="M241.787 373.706s4.75-.065 6.442-1.893 4.681-3.472 5.638-3.937c1.283-.622 4.826-4.068 5.27-2.385s-5.642 5.947-6.802 7.099 5.06 1.654 5.973 2.77-2.263 12.88-6.406 11.967-7.536-5.089-8.322-5.089-3.059-.523-3.059-.523l1.266-8.009z"/><path d="M257.424 374.881s12.367 3.776 12.876 4.845.168 1.854-1.011 1.556l-12.109-3.235s13.517 7.383 14.124 8.124c.364.433-.236 1.978-.891 1.887s-14.55-6.467-14.55-6.467 12.604 6.907 12.92 7.746c.273.727-.571 2.043-1.549 1.611s-13.124-6.049-13.124-6.049 8.781 5.751 8.646 6.696c-.083.578-.545 1.93-2.757.363s-7.878-4.591-7.878-4.591l5.303-12.486z"/></g><path d="M215.772 582.212s3.965 5.933 9.53 7.216 11.051 3.319 11.091 6.83-16.092 5.602-22.461 2.061c-9.505-5.278-10.468-3.686-11.523-6.328s1.265-9.699 1.196-10.542c-.083-1.033 12.167.763 12.167.763z" class="H"/><path d="M215.154 579.286l.618 2.926c-.109.062-12.541 1.541-12.167-.76.306-1.864.728-3.889.728-3.889l10.821 1.723z" fill="#81807e"/><path d="M137.693 581.82s2.83 5.674 7.667 7.608c5.169 2.064 9.312 4.438 9.217 7.859s-12.632 6.885-21.758.323c-5.762-4.147-7.592-4.169-8.515-6.779s1.607-9.397 1.571-10.218c-.044-1.015 11.818 1.207 11.818 1.207z" class="H"/><path d="M137.835 578.871l-.142 2.949c-.109.04-12.124 1.043-11.818-1.207.242-1.355.633-2.679 1.167-3.948l10.793 2.206z" fill="#81807e"/><path d="M181.898 405.528s15.782 60.43 21.791 74.4c5.569 12.944 7.406 31.043 8.173 40.135.964 11.436 6.704 55.98 7.377 59.31s-18.551 1.85-18.551 1.85-13.269-76.995-18.776-88.231c-3.677-7.499-25.007-61.269-27.447-58.161s-5.457 56.973-7.275 65.915-7.355 79.609-7.355 79.609-12.407 1.817-15.721-.975c0 0-1.509-60.342-.363-77.107.44-6.391-7.493-76.621 2.677-104.895 5.368-14.947 55.47 8.15 55.47 8.15z" fill="#2d3133"/><path d="M93.982 362.194c0 .691 1.306 3.453 3.39 7.43 3.049-6.092 5.456-11.098 6.227-12.937 2.568-6.063 15.804-19.96 15.804-19.96a.14.14 0 0 0 0 .029c.002.037.002.057 0 .076 0 .033 0 .069.033.116l.022.073v.058c.727 2.683 5.146 19.455 5.306 27.718.182 8.993 2.528 25.635 2.528 25.635l2.765.388 6.114.862.728.102 1.778.251 16.219 2.279 5.751.807.779.112 3.273.462 9.094 1.276 2.313.324h.022l1.735.243 2.397.338c.069-.087 2.335-3.188 1.982-10.076-.222-4.446-.756-12.799-.534-20.55v-.119-.295c.003-.033.003-.065 0-.098h0c.141-4.26.516-8.295 1.309-11.36a47.1 47.1 0 0 0 1.211-6.045c0-.098.022-.189.033-.28l.113-1.061c.323-3.226.351-6.475.083-9.706h0c.164.364 1.35 4.693 2.91 10.044 2.623 9.051 6.293 21.003 7.861 21.578 2.273.836 39.12 11.745 47.078 12.861.92.131 1.455.127 1.502-.037s.073-.236.113-.363c.964-3.184 2.295-8.597 2.506-9.473l.033-.12-1.426-.429-40.091-11.996-18.329-52.822c-.385-.305-4.885-2.482-8.173-4.045-3.35-1.596-7.395-3.937-11.054-5.944-1.866-1.018-3.637-1.952-5.158-2.65l-.232-.105-4.202-1.916-1.091-.105-18.125-1.574c-.302 0-.556-.033-.753-.037s-.291 0-.363 0c-.466.026-2.718.815-5.686 1.941l-.338.128-.418.16-.786.301-1.626.636-.578.229c-5.933 2.352-12.731 5.26-14.342 6.42-1.066.763-4.387 7.023-8.243 14.762-4.961 15.882-11.246 40.194-11.443 46.191a1.44 1.44 0 0 0-.022.273z" fill="#decbc4"/><path d="M180.323 397.891s1.222 1.454 1.575 7.633c0 0-50.174-5.848-55.477-8.157 0 0-.208-6.805.92-6.925 1.233-.127 52.982 7.449 52.982 7.449z" fill="#495055"/><path d="M137.54 289.452c.153 7.87 15.4 12.174 15.4 12.174s6.377-7.997 4.853-8.757c-.597-.298-.841-1.49-.913-2.828-.048-1.19-.02-2.383.083-3.57l.091-.916s-2.182-2.297-4.95-5.031c-4.842-4.787-11.502-10.905-11.509-8.477a1.94 1.94 0 0 0 .055.462c1.171 5.489-3.11 16.943-3.11 16.943z" class="B"/><g class="H"><path d="M138.802 391.653l-1.189 8.699-2.321-.462 1.015-8.524 2.495.287zm37.338 5.434l.898 8.641-2.455-.32-.782-8.651 2.339.33z"/></g><path d="M143.411 277.922c.029.047.676 1.014 1.782 2.402 2.339 2.941 6.74 7.776 11.687 9.717-.048-1.19-.02-2.383.083-3.57a8.23 8.23 0 0 0 1.517-.181c-1.002-1.686-2.11-3.307-3.317-4.853l-3.059-.913-8.693-2.602z" class="G"/><path d="M140.483 272.153l2.909 5.769c.474.883 1.074 1.693 1.783 2.402 2.509 2.705 7.18 6.271 11.77 6.147a8.24 8.24 0 0 0 1.517-.181c1.851-.408 4.041-1.265 5.245-3.636 9.512-18.608 2.626-33.828 2.626-33.828s-26.007-7.35-30.077.476c-2.837 5.497 1.127 16.115 4.227 22.851z" class="B"/><path d="M166.352 248.837s2.415-.134 3.011-4.707-.589-5.776-.589-5.776-10.734-4.493-14.589-5.09-13.339-1.145-15.561 1.393c0 0-5.398-1.255-6.867 7.706-2.336 14.21 7.951 28.008 7.951 28.008s-.087-9.284 1.96-10.512 3.816 1.694 3.816 1.694l4.19.752s-6.362-13.722 1.277-14.231 11.028 1.559 15.401.763z" fill="#252e3b"/><path d="M145.357 257.867c-.401-4.09-7.803-5.653-7.308-1.363s4.143 8.404 5.82 8.258 1.789-3.762 1.488-6.895z" class="B"/><path d="M97.372 369.624c3.227 6.147 8.312 15.191 13.335 23.959l-1.928 3.668a73.61 73.61 0 0 0-3.801 8.477c-1.146 3.203-2.735 11.414.309 12.937l16.048 8.855.328-.894a341.31 341.31 0 0 1 3.273-8.513c.051-.127.211-.509.451-1.069l1.303-3.053.727-1.727.891-2.079 1.277-2.963 1.949-4.533.161-.363 1.604-3.392 2.6-5.195c.088-.174.179-.363.27-.516l.472-.894.299-.545.065-.12.12-.215c4.641-8.459 9.865-15.532 11.534-25.903l.459-2.985.665-4.867.222-1.789c.837-6.906 1.335-13.086 1.739-17.379 1.255-13.381-6.948-27.87-13.244-36.82a99.27 99.27 0 0 0-6.729-8.593l-.033-.033-.338.127-.418.16-.786.302-1.626.636-.578.229c-6.1 2.388-18.936 5.918-20.551 7.077-.935.666-3.019 6.773-5.427 14.486-4.962 15.882-7.908 39.83-8.05 45.803v.272c.018.713 1.335 3.475 3.408 7.452zm24.389-2.988c0 2.985-.971 6.402-2.466 10.044l-.113.273-2.866-6.242c-2.39-5.343-4.03-9.509-4.121-11.16-.59-10.592 7.22-22.788 7.22-22.788.002.037.002.057 0 .076a1.12 1.12 0 0 1 .033.117l.021.072v.058c1.634 6.304 2.292 29.55 2.292 29.55z" class="I"/><path d="M152.246 406.553l-45.747 20.357a5.14 5.14 0 0 1-1.952.442 5.13 5.13 0 0 1-1.973-.338 5.12 5.12 0 0 1-1.693-1.067c-.488-.463-.881-1.018-1.155-1.633l-12.523-28.121c-.274-.615-.424-1.278-.442-1.951s.098-1.343.339-1.972.605-1.203 1.069-1.691a5.11 5.11 0 0 1 1.635-1.154l45.747-20.357a5.14 5.14 0 0 1 1.953-.442 5.15 5.15 0 0 1 1.972.339 5.13 5.13 0 0 1 2.848 2.702l12.523 28.121c.553 1.242.589 2.652.102 3.921a5.13 5.13 0 0 1-2.702 2.844h0z" fill="#b3a5a0"/><path d="M162.11 294.988s2.146 7.14 4.922 24.955l.283 1.818.033.218.189 1.254.022.145.127.862.313 2.152c1.237 8.673 2.972 23.432 4.642 38.332 1.32 11.745 4.324 23.795 5.281 32.789a61.8 61.8 0 0 0 1.248 6.779l.211.913c2.688 11.352 7.907 27.419 7.907 27.419l1.521-1.403 4.503-4.155a3.64 3.64 0 0 0 1.052-1.734c.179-.667.165-1.37-.041-2.028-2.495-8.052-10.981-36.544-12.538-56.577.76-7.041 2.713-16.485 2.419-17.845.022.048.036.098.054.149l2.881 7.812c2.681 7.06 5.42 13.603 6.547 14.017 2.547.934 48.155 14.384 48.486 12.509a12.93 12.93 0 0 1 .117-.604c.047-.211.087-.429.134-.658.564-2.57 1.586-6.256 2.299-8.724l.295-1.018.495-1.683-38.557-12.65-19.463-50.866c-.382-.302-5.351-2.974-8.639-4.537l-11.599-5.412-5.024-2.312-.12.083z" class="I"/><g fill="#51565c"><path d="M135.994 312.619l7.417 4.18-3.168 3.228 8.435 45.53c1.72-10.673 2.506-20.808 3.088-27.02 1.938-20.684-18.718-44.018-20.006-45.439-.989.364-2.062.789-3.172 1.229l7.406 18.292zm26.004-17.812s2.768 9.044 5.998 31.625c1.24 8.673 2.975 23.432 4.648 38.332l1.724-42.64-3.532-3.824 3.139-3.922-6.718-17.172-5.027-2.312-.232-.087z"/></g><g fill="#f5e2d9"><path d="M131.345 293.251l6.184-3.799s.171 3.37 15.401 12.174l-4.325 12.174-17.26-20.549z"/><path d="M156.992 291.15s-.24 3.635-4.052 10.476l8.439 10.992.618-17.833-5.005-3.635z"/></g><path d="M152.919 301.626s-1.637 6.543-1.048 8.361c0 0 3.597 1.308 6.184-.327 0 .007-1.834-4.57-5.136-8.034z" class="D"/><path d="M161.372 395.935c.916-4.613.047-18.437 0-19.026l-.782.051c0 .142.902 14.308 0 18.822l.782.153z" fill="#ad9f99"/><path d="M154.97 393.809l9.821 1.49-.32 8.27-9.665-1.033.164-8.727z" fill="#69737a"/><path d="M156.585 309.082s8.232 20.778 6.889 44.035c-1.393 24.115-3.677 32.862-3.677 32.862l-5.074 6.361-2.241-7.819s6.813-30.746 2.415-60.663c-.796-5.42-1.978-15.692-1.978-15.692l3.666.916z" class="D"/><path d="M131.844 407.215s1.764 3.53 3.531 4.118 4.343 3.457 4.343 3.457l-12.439 6.544s-3.314-6.471-3.459-10.593 8.024-3.526 8.024-3.526z" class="B"/><path d="M133.022 407.546l.826 1.654s-7.9 5.776-10.032 6.143l-.727-2.207 9.933-5.59z" fill="#decbc4"/><path d="M133.855 407.618s-5.929 4.893-10.912 7.147l-22.352-39.172 14.266-7.794s18.598 36.875 18.998 39.819z" class="I"/><path d="M183.975 338.351c.272 5.584.232 10.542.232 10.542 0 .029 0 .178.022.429 0-.098.022-.189.033-.28l2.881 7.812c.22-2.833.296-5.676.225-8.517-.4-15.631-5.325-23.85-5.325-23.85 1.131 2.727 1.673 8.579 1.932 13.864z" fill="#2d3133"/><g class="B"><path d="M378.203 286.769s-.233-2.875.105-4.216c.586-2.32-.276-6.071 2.641-7.892s11.301 5.816 11.96 7.935-2.477 5.762-9.032 8.812-5.674-4.639-5.674-4.639z"/><path d="M380.054 275.417c2.033-2.983 4.226-5.854 6.569-8.601 3.274-3.817 7.883-8.095 8.854-7.27 1.455 1.232-2.703 4.311-5.696 8.314-2.754 3.682-1.586 3.42-1.586 3.42s-.339.058 3.455-3.37c4.081-3.686 8.617-7.473 9.425-6.823 1 .807 1.058.993-.2 2.574.92-.752 1.262-.607 1.615-.251 1.818 1.847-3.3 8.197-5.34 10.72 1.578-1.926 2.946-3.17 3.343-1.316.451 2.12-7.224 10.771-9.672 14.137-2.67 3.653-10.767-11.534-10.767-11.534z"/></g><path d="M281.976 581.136s7.98 4.726 11.592 6.467 17.652 2.254 19.038 3.57.881 5.51-1.455 5.939-19.387 1.971-25.098.64-16.339.909-18.699.109-.837-13.504.076-16.358 14.546-.367 14.546-.367z" class="J"/><path d="M282.642 575.942l-.666 5.194s-10.665 1.992-13.898.364l.8-5.395 13.764-.163z" fill="#22243b"/><path d="M325.439 398.527c-.116 3.595-.771 11.4-1.535 19.593l-.524 5.482-2.138 21.229c-1.346 8.779-4.125 24.02-7.235 35.544-.895 3.326-1.819 6.343-2.743 8.804-.898 2.395-1.818 4.268-2.68 5.387-6.61 8.441-21.766 83.244-21.766 83.244l-20.693-.16s4.55-50.662 9.126-63.502c5.092-14.344 13.967-33.671 11.767-47.503-1.379-8.681-3.158-36.311-3.158-36.311s-1.727-31.051 6.398-53.799c2.026-5.657 35.181 21.992 35.181 21.992z" fill="#292c47"/><path d="M340.123 583.07s7.923 4.809 11.513 6.605 17.623 2.468 18.994 3.802.811 5.518-1.52 5.918-19.409 1.738-25.098.342-16.35.727-18.696-.116-.677-13.512.269-16.358 14.538-.193 14.538-.193z" class="J"/><path d="M340.851 577.894l-.728 5.183s-10.69 1.865-13.905.186l.865-5.388 13.768.019z" fill="#22243b"/><path d="M316.116 503.701c-.538-16.547-2-27.543-6.263-37.1-3.576-8.03-6.638-33.243-6.638-33.243s-9.698-29.542-7.733-53.61c.491-6.012 37.974 9.088 37.974 9.088.822 3.504 3.328 14.54 4.216 22.715 5.092 46.733 3.175 77.181 3.175 77.181-2.91 10.32 4.427 91.514 4.427 91.514h-21.097s-5.533-28.885-6.111-46.85c0 .011-2.157-26.834-1.95-29.695z" fill="#292c47"/><path d="M315.647 289.579s9.821 16.104 12.702 25.082.56 35.116 1.066 40.368c1.575 16.293 3.87 34.228 3.87 34.228l-32.951 21.037c-4.211-10.139-7.907-20.485-11.072-30.997-5.158-17.19-5.573-32.668-5.525-43.01.152-32.44 17.695-50.757 17.695-50.757l14.215 4.049z" fill="#cfbeb6"/><g class="B"><path d="M327.756 246.383s6.755 7.227 4.849 9.128c-1.579 1.571 4.634 8.772 5.518 9.982s-2.758 3.217-3.358 4.3-.247 12.422-3.375 13.588-18.915-.069-23.934-3.126-13.095-20.72-12.527-29.197 20.944-17.274 32.827-4.675z"/><path d="M321.365 280.931l-.269 2.458-.204 2.119-.123 1.454c0 .135-.029.269-.04.404 0 .232-.037.461-.058.701l-.211 3.334c-.146 2.879-.164 5.634.145 7.164.829 4.202-17.27-13.519-17.27-13.519.95-9.7 1.214-19.456.789-29.193-.749-15.449 17.241 25.078 17.241 25.078z"/></g><path d="M329.142 247.972s3.197-7.536-6.66-12.767c-11.607-6.161-23.908 9.303-25.542 10.215s-9.053 9.251-1.789 20.313l8.675 13.49s.92-10.295.858-12.283c-.109-3.635 9.425-4.06 9.425-4.06s-3.914-5.206.436-7.543 9.439-7.878 14.597-7.365z" fill="#3a3f47"/><path d="M309.104 261.56c-.695-.974-3.241-5.275-6.515-1.498s5.496 10.84 6.224 10.771 6.129-1.076.291-9.273z" class="B"/><path d="M335.082 396.204l-1.957-8.855-48.188 7.997.495 6.227s34.718-2.076 49.65-5.369z" fill="#23263d"/><g class="D"><path d="M280.649 362.267s7.402 31.949-4.191 69.223c-1.418 4.551 32.093-.727 32.093-.727l-27.902-68.496z"/><path d="M323.213 428.44s-23.799 5.22-30.485 2.861c0 0-9.73-35.362-13.12-71.248l-.665-8.31c-1.895-29.201 5.543-58.823 22.49-66.191.476.323 24.341 21.352 23.89 40.6l-.062 3.919.054 7.106c.153 7.325.604 14.628 1.252 21.72l.211 2.21.363 3.552.532 4.663c3.855 32.109-4.46 59.118-4.46 59.118z"/></g><g fill="#d44040"><path d="M322.235 303.644c3.083 13.175 5.15 26.567 6.183 40.058 1.43 18.677 3.339 31.88 3.339 31.88l2.859 9.248 1.179-8.917s-1.051-24.101-2.448-33.905c-1.411-9.883-2.03-22.432-9.938-38.71l-1.174.346z"/><path d="M321.736 303.658c.367.327.818.545 1.302.629.768.116 1.859-1.091-2.048-6.263l.746 5.634z"/></g><path d="M303.546 282.873s11.083 10.429 17.677 12.722l1.259 9.993-21.049-20.051 2.113-2.664z" fill="#eddad3"/><path d="M310.995 323.255c-4.365-1.552-22.522-10.36-17.692-20.64s17.274-4.813 26.644-.633c9.821 4.362 32.947 17.812 34.777 16.573s9.821-12.701 11.276-15.268 10.184-18.859 11.006-20.087 13.495 9.451 13.495 9.451-22.788 40.451-28.921 46.893-50.585-16.289-50.585-16.289z" class="D"/><path d="M314.007 480.375l-2.743 8.804-7.216-43.021c1.822 4.078 9.959 34.217 9.959 34.217z" class="J"/><path d="M325.315 337.163l-20.867-17.049c5.532 2.963 19.125 9.168 20.827 9.942-.029 2.367-.011 4.737.04 7.107z" fill="#8f5c28"/><path d="M321.096 283.389l-.204 2.119-.123 1.454c-6.911-.462-12.269-5.972-12.596-6.311 2.822 2.236 12.923 2.738 12.923 2.738z" class="G"/><g class="C"><path d="M592.28 124.855h10.963l-3.353-6.958h-10.967l3.357 6.958z" fill="url(#F)" class="C"/><path d="M587.148 124.855h2.615l-3.357-6.958h-2.612l3.354 6.958z" fill="url(#G)" class="C"/><path d="M549.272 116.57h44.394l-1.473-3.478h-44.398l1.477 3.478z" fill="url(#H)" class="C"/></g><path d="M310.846 0h-16.761c-.566 0-1.026.459-1.026 1.025v3.617c0 .566.46 1.025 1.026 1.025h16.761c.567 0 1.026-.459 1.026-1.025V1.025c0-.566-.459-1.025-1.026-1.025z" fill="url(#I)"/><use xlink:href="#R" fill="url(#J)"/><path d="M310.846 27.172h-16.761c-.566 0-1.026.459-1.026 1.025v3.617c0 .566.46 1.025 1.026 1.025h16.761c.567 0 1.026-.459 1.026-1.025v-3.617c0-.566-.459-1.025-1.026-1.025z" fill="url(#K)"/><path d="M323.97 0h-3.303c-.567 0-1.026.459-1.026 1.025v3.617c0 .566.459 1.025 1.026 1.025h3.303c.566 0 1.025-.459 1.025-1.025V1.025c0-.566-.459-1.025-1.025-1.025z" fill="url(#L)"/><use xlink:href="#S" fill="url(#M)"/><path d="M323.97 27.172h-3.303c-.567 0-1.026.459-1.026 1.025v3.617c0 .566.459 1.025 1.026 1.025h3.303c.566 0 1.025-.459 1.025-1.025v-3.617c0-.566-.459-1.025-1.025-1.025z" fill="url(#N)"/><path d="M239.481 326.963h19.682l-6.024-12.487h-19.682l6.024 12.487z" fill="url(#O)"/><path d="M230.271 326.963h4.692l-6.023-12.487h-4.692l6.023 12.487z" fill="url(#P)"/></g><defs><linearGradient id="A" x1="254.634" y1="443.762" x2="239.67" y2="172.375" xlink:href="#T"><stop stop-color="#d1d7e0"/><stop offset="1" stop-color="#ebebff"/></linearGradient><linearGradient id="B" x1="361106" y1="440291" x2="361106" y2="203549" xlink:href="#T"><stop stop-color="#d1d7e0"/><stop offset="1" stop-color="#ebebff"/></linearGradient><linearGradient id="C" x1="0" y1="600.144" x2="588.876" y2="600.144" xlink:href="#T"><stop offset=".01" stop-color="#08f"/><stop offset="1" stop-color="#4598e6"/></linearGradient><linearGradient id="D" x1="85834.9" y1="105921" x2="85834.9" y2="43603.7" xlink:href="#T"><stop stop-color="#d1d7e0"/><stop offset="1" stop-color="#ebebff"/></linearGradient><linearGradient id="E" x1="165514" y1="60819.5" x2="165514" y2="20653" xlink:href="#T"><stop stop-color="#d1d7e0"/><stop offset="1" stop-color="#ebebff"/></linearGradient><linearGradient id="F" x1="23774.8" y1="2441.04" x2="24338.6" y2="2441.04" xlink:href="#T"><stop stop-color="#d1d7e0"/><stop offset="1" stop-color="#ebebff"/></linearGradient><linearGradient id="G" x1="10164" y1="2441.04" x2="10261.9" y2="2441.04" xlink:href="#T"><stop stop-color="#d1d7e0"/><stop offset="1" stop-color="#ebebff"/></linearGradient><linearGradient id="H" x1="69630.3" y1="1212.04" x2="75415.1" y2="1212.04" xlink:href="#T"><stop stop-color="#d1d7e0"/><stop offset="1" stop-color="#ebebff"/></linearGradient><linearGradient id="I" x1="15450.1" y1="44.147" x2="16423.1" y2="44.147" xlink:href="#T"><stop stop-color="#d1d7e0"/><stop offset="1" stop-color="#ebebff"/></linearGradient><linearGradient id="J" x1="15450.1" y1="269.572" x2="16423.1" y2="269.572" xlink:href="#T"><stop stop-color="#d1d7e0"/><stop offset="1" stop-color="#ebebff"/></linearGradient><linearGradient id="K" x1="15450.1" y1="494.993" x2="16423.1" y2="494.993" xlink:href="#T"><stop stop-color="#d1d7e0"/><stop offset="1" stop-color="#ebebff"/></linearGradient><linearGradient id="L" x1="5024.74" y1="44.147" x2="5103.55" y2="44.147" xlink:href="#T"><stop stop-color="#d1d7e0"/><stop offset="1" stop-color="#ebebff"/></linearGradient><linearGradient id="M" x1="5024.74" y1="269.572" x2="5103.55" y2="269.572" xlink:href="#T"><stop stop-color="#d1d7e0"/><stop offset="1" stop-color="#ebebff"/></linearGradient><linearGradient id="N" x1="5024.74" y1="494.993" x2="5103.55" y2="494.993" xlink:href="#T"><stop stop-color="#d1d7e0"/><stop offset="1" stop-color="#ebebff"/></linearGradient><linearGradient id="O" x1="16731.9" y1="11331.1" x2="18548.5" y2="11331.1" xlink:href="#T"><stop stop-color="#d1d7e0"/><stop offset="1" stop-color="#ebebff"/></linearGradient><linearGradient id="P" x1="6830.57" y1="11331.1" x2="7146.26" y2="11331.1" xlink:href="#T"><stop stop-color="#d1d7e0"/><stop offset="1" stop-color="#ebebff"/></linearGradient><clipPath id="Q"><path fill="#fff" d="M0 0h631v617H0z"/></clipPath><path id="R" d="M310.846 13.588h-16.761c-.566 0-1.026.459-1.026 1.025v3.617c0 .566.46 1.025 1.026 1.025h16.761c.567 0 1.026-.459 1.026-1.025v-3.617c0-.566-.459-1.025-1.026-1.025z"/><path id="S" d="M323.97 13.588h-3.303c-.567 0-1.026.459-1.026 1.025v3.617c0 .566.459 1.025 1.026 1.025h3.303c.566 0 1.025-.459 1.025-1.025v-3.617c0-.566-.459-1.025-1.025-1.025z"/><linearGradient id="T" gradientUnits="userSpaceOnUse"/></defs></svg>