<svg width="145" height="130" viewBox="0 0 145 130" fill="none" xmlns="http://www.w3.org/2000/svg">
<path d="M82.0494 5.61202C83.8236 6.70636 85.4865 7.91899 86.9936 9.21117C92.2635 13.7262 96.5027 20.2996 101.681 24.8282C106.571 29.1042 112.543 30.1437 118.138 30.8584C127.892 32.1044 148.235 44.0535 144.562 66.2003C143.225 74.2601 138.513 79.7338 136.1 87.0323C133.534 94.7961 133.803 104.479 129.717 111.21C127.919 114.169 125.437 116.124 122.89 117.604C105.935 127.455 86.8947 126.997 68.9167 125.911C54.7267 125.054 31.9357 129.584 19.4718 118.523C13.2837 113.032 16.5016 98.0206 12.2197 89.9579C8.62171 83.1829 3.72477 78.7331 1.31922 70.2525C-2.77442 55.8221 3.06067 37.0428 13.2774 31.9202C19.6617 28.7192 26.4254 27.2527 32.7364 23.7372C39.2564 20.1038 41.7687 14.6618 46.741 8.2207C55.7301 -3.42172 71.0294 -1.18729 82.0494 5.61202Z" fill="#A1D3FF"/>
<path d="M103.838 113.355H33.929V69.6344C33.929 68.8081 34.5864 68.1387 35.3971 68.1387H102.37C103.181 68.1387 103.838 68.8081 103.838 69.6344V113.355Z" fill="#D3D3D3"/>
<path d="M101.281 71.3062H36.4878V109.861H101.281V71.3062Z" fill="#F2F2F2"/>
<path d="M22.8105 126.369C22.1679 127.209 23.3958 129.719 25.3216 129.719C54.8617 129.719 84.4009 129.719 113.94 129.719C115.865 129.719 117.077 127.209 116.34 126.369H22.8105Z" fill="#D3D3D3"/>
<path d="M116.093 125.91C116.83 126.749 115.865 127.43 113.941 127.43C84.4013 127.43 54.8617 127.43 25.322 127.43C23.3962 127.43 22.3565 126.749 22.9991 125.91C26.0235 121.955 29.0479 118.002 32.0719 114.048C32.7146 113.208 34.3961 112.527 35.8288 112.527C57.8049 112.527 79.7823 112.527 101.759 112.527C103.19 112.527 104.95 113.208 105.687 114.048C109.154 118.003 112.624 121.955 116.093 125.91Z" fill="#F2F2F2"/>
<g opacity="0.5">
<path opacity="0.5" d="M42.6804 116.528C41.4829 116.528 40.8852 116.528 39.6873 116.528C40.1107 115.901 40.3229 115.587 40.7455 114.959C41.8956 114.959 42.4699 114.959 43.6204 114.959C43.2447 115.587 43.0564 115.9 42.6804 116.528Z" fill="#D3D3D3"/>
<path opacity="0.5" d="M46.5595 116.528C45.3632 116.528 44.7643 116.528 43.5664 116.528C43.9289 115.901 44.1102 115.587 44.4718 114.959C45.6219 114.959 46.1962 114.959 47.3459 114.959C47.0316 115.587 46.8742 115.901 46.5595 116.528Z" fill="#D3D3D3"/>
<path opacity="0.5" d="M45.3198 114.659C43.572 114.659 42.6983 114.659 40.9504 114.659C41.1078 114.425 41.1869 114.308 41.3451 114.074C43.0669 114.074 43.9254 114.074 45.6481 114.074C45.5163 114.308 45.4508 114.425 45.3198 114.659Z" fill="#D3D3D3"/>
<path opacity="0.5" d="M50.4409 114.66C48.6927 114.66 47.8181 114.659 46.0703 114.659C46.1964 114.425 46.2594 114.308 46.3863 114.074C48.1069 114.074 48.9683 114.074 50.6893 114.074C50.5904 114.308 50.5398 114.425 50.4409 114.66Z" fill="#D3D3D3"/>
<path opacity="0.5" d="M55.5627 114.659C53.8144 114.659 52.9399 114.659 51.1917 114.659C51.286 114.425 51.3338 114.308 51.4281 114.074C53.1496 114.074 54.0109 114.074 55.7332 114.074C55.6648 114.308 55.6306 114.425 55.5627 114.659Z" fill="#D3D3D3"/>
<path opacity="0.5" d="M60.6835 114.659C58.9353 114.659 58.0615 114.659 56.3137 114.659C56.3767 114.425 56.4076 114.308 56.4707 114.074C58.1925 114.074 59.0543 114.074 60.7745 114.074C60.7391 114.308 60.7206 114.425 60.6835 114.659Z" fill="#D3D3D3"/>
<path opacity="0.5" d="M65.8053 114.659C64.0571 114.659 63.183 114.659 61.4343 114.659C61.4665 114.425 61.4817 114.308 61.5138 114.074C63.2353 114.074 64.0954 114.074 65.8165 114.074C65.8119 114.308 65.8099 114.425 65.8053 114.659Z" fill="#D3D3D3"/>
<path opacity="0.5" d="M70.9267 114.659C69.1788 114.659 68.3059 114.659 66.5569 114.659C66.5569 114.425 66.5569 114.308 66.5569 114.074C68.2783 114.074 69.138 114.074 70.8595 114.074C70.8867 114.308 70.8986 114.425 70.9267 114.659Z" fill="#D3D3D3"/>
<path opacity="0.5" d="M76.0484 114.659C74.3006 114.659 73.4256 114.659 71.6778 114.659C71.6461 114.425 71.63 114.308 71.5979 114.074C73.3198 114.074 74.1803 114.074 75.9022 114.074C75.9598 114.308 75.9895 114.425 76.0484 114.659Z" fill="#D3D3D3"/>
<path opacity="0.5" d="M81.1703 114.659C79.4212 114.659 78.5479 114.659 76.7993 114.659C76.7363 114.425 76.7041 114.308 76.6411 114.074C78.3626 114.074 79.2227 114.074 80.9441 114.074C81.0352 114.308 81.0801 114.425 81.1703 114.659Z" fill="#D3D3D3"/>
<path opacity="0.5" d="M86.2921 114.659C84.5431 114.659 83.6698 114.659 81.9215 114.659C81.8256 114.425 81.7782 114.308 81.6826 114.074C83.4045 114.074 84.2659 114.074 85.9877 114.074C86.1097 114.308 86.1702 114.425 86.2921 114.659Z" fill="#D3D3D3"/>
<path opacity="0.5" d="M91.4123 114.659C89.6632 114.659 88.7899 114.659 87.0425 114.659C86.9161 114.425 86.8522 114.308 86.7266 114.074C88.4472 114.074 89.3069 114.074 91.0284 114.074C91.1816 114.308 91.2582 114.425 91.4123 114.659Z" fill="#D3D3D3"/>
<path opacity="0.5" d="M97.1271 114.659C95.1424 114.659 94.1497 114.659 92.1642 114.659C92.006 114.425 91.9265 114.308 91.7683 114.074C93.7229 114.074 94.6996 114.074 96.6555 114.074C96.8437 114.308 96.9389 114.425 97.1271 114.659Z" fill="#D3D3D3"/>
<path opacity="0.5" d="M50.4371 116.528C49.24 116.528 48.6419 116.528 47.4448 116.528C47.7455 115.901 47.8967 115.587 48.1966 114.96C49.3467 114.96 49.9209 114.959 51.0706 114.959C50.8177 115.588 50.6909 115.9 50.4371 116.528Z" fill="#D3D3D3"/>
<path opacity="0.5" d="M54.3152 116.528C53.1189 116.528 52.52 116.528 51.3225 116.528C51.5627 115.901 51.6821 115.587 51.9227 114.959C53.0724 114.959 53.6475 114.96 54.7967 114.96C54.6044 115.588 54.508 115.901 54.3152 116.528Z" fill="#D3D3D3"/>
<path opacity="0.5" d="M58.1944 116.528C56.9974 116.528 56.3992 116.528 55.2021 116.528C55.3809 115.9 55.4707 115.587 55.6487 114.959C56.7984 114.959 57.3726 114.959 58.5227 114.959C58.3917 115.587 58.325 115.901 58.1944 116.528Z" fill="#D3D3D3"/>
<path opacity="0.5" d="M62.0728 116.528C60.8749 116.528 60.2768 116.528 59.0806 116.528C59.1976 115.901 59.2552 115.586 59.3734 114.959C60.5232 114.959 61.0982 114.959 62.2483 114.959C62.1775 115.587 62.1416 115.901 62.0728 116.528Z" fill="#D3D3D3"/>
<path opacity="0.5" d="M65.949 116.528C64.7532 116.528 64.1551 116.528 62.9592 116.528C63.0153 115.901 63.0433 115.586 63.0993 114.959C64.2486 114.959 64.8232 114.959 65.9725 114.959C65.9639 115.587 65.9593 115.901 65.949 116.528Z" fill="#D3D3D3"/>
<path opacity="0.5" d="M69.8295 116.528C68.6324 116.528 68.0343 116.528 66.8372 116.528C66.8327 115.901 66.8306 115.587 66.8257 114.959C67.9746 114.959 68.5504 114.959 69.6989 114.959C69.7516 115.587 69.7776 115.901 69.8295 116.528Z" fill="#D3D3D3"/>
<path opacity="0.5" d="M73.7075 116.528C72.5108 116.528 71.9127 116.528 70.7164 116.528C70.6509 115.901 70.618 115.587 70.5525 114.959C71.7014 114.959 72.2756 114.959 73.4245 114.959C73.5382 115.587 73.5942 115.901 73.7075 116.528Z" fill="#D3D3D3"/>
<path opacity="0.5" d="M77.5852 116.528C76.3881 116.528 75.7904 116.528 74.5937 116.528C74.4673 115.901 74.4034 115.587 74.2761 114.959C75.4258 114.959 76.0001 114.959 77.1502 114.959C77.3236 115.587 77.4109 115.901 77.5852 116.528Z" fill="#D3D3D3"/>
<path opacity="0.5" d="M41.4267 118.619C40.1666 118.619 39.5376 118.619 38.2783 118.619C38.701 117.992 38.9119 117.678 39.3345 117.051C40.5481 117.051 41.154 117.051 42.3667 117.051C41.9907 117.678 41.8024 117.992 41.4267 118.619Z" fill="#D3D3D3"/>
<path opacity="0.5" d="M45.5105 118.619C44.25 118.619 43.6214 118.619 42.3608 118.619C42.7233 117.992 42.9046 117.678 43.2663 117.051C44.4786 117.051 45.0854 117.051 46.2985 117.051C45.9825 117.678 45.8244 117.992 45.5105 118.619Z" fill="#D3D3D3"/>
<path opacity="0.5" d="M49.592 118.619C48.3315 118.619 47.7025 118.619 46.4424 118.619C46.7431 117.992 46.8926 117.678 47.1942 117.051C48.4065 117.051 49.0124 117.051 50.2252 117.051C49.9718 117.678 49.8445 117.992 49.592 118.619Z" fill="#D3D3D3"/>
<path opacity="0.5" d="M53.6744 118.619C52.4143 118.619 51.784 118.619 50.5239 118.619C50.7637 117.992 50.884 117.678 51.1229 117.051C52.3364 117.051 52.9424 117.051 54.1555 117.051C53.9627 117.678 53.8663 117.992 53.6744 118.619Z" fill="#D3D3D3"/>
<path opacity="0.5" d="M57.7569 118.619C56.4976 118.619 55.8665 118.619 54.6077 118.619C54.7864 117.992 54.875 117.678 55.0534 117.052C56.2665 117.052 56.8716 117.051 58.0848 117.051C57.9526 117.678 57.8879 117.992 57.7569 118.619Z" fill="#D3D3D3"/>
<path opacity="0.5" d="M61.8375 118.619C60.5774 118.619 59.9483 118.619 58.6882 118.619C58.8056 117.992 58.8641 117.678 58.9819 117.051C60.1943 117.051 60.8002 117.051 62.0129 117.051C61.9433 117.678 61.9075 117.992 61.8375 118.619Z" fill="#D3D3D3"/>
<path opacity="0.5" d="M65.919 118.619C64.6597 118.619 64.0307 118.619 62.771 118.619C62.827 117.992 62.8559 117.678 62.9119 117.051C64.1238 117.051 64.7297 117.051 65.9412 117.051C65.9326 117.678 65.928 117.992 65.919 118.619Z" fill="#D3D3D3"/>
<path opacity="0.5" d="M70.0021 118.619C68.7428 118.619 68.1129 118.619 66.8528 118.619C66.8483 117.992 66.8463 117.678 66.8413 117.051C68.0536 117.051 68.6596 117.051 69.8723 117.051C69.9238 117.678 69.951 117.992 70.0021 118.619Z" fill="#D3D3D3"/>
<path opacity="0.5" d="M74.0837 118.619C72.8252 118.619 72.1958 118.619 70.9361 118.619C70.8698 117.992 70.8364 117.678 70.7717 117.051C71.9836 117.051 72.5896 117.051 73.8011 117.051C73.9144 117.678 73.9708 117.992 74.0837 118.619Z" fill="#D3D3D3"/>
<path opacity="0.5" d="M78.1654 118.619C76.9061 118.619 76.2758 118.619 75.017 118.619C74.8897 117.992 74.8254 117.678 74.699 117.051C75.9113 117.051 76.5172 117.051 77.73 117.051C77.9042 117.678 77.9915 117.992 78.1654 118.619Z" fill="#D3D3D3"/>
<path opacity="0.5" d="M40.1745 120.71C38.851 120.71 38.1902 120.71 36.8679 120.71C37.2902 120.083 37.5027 119.769 37.9258 119.142C39.2007 119.142 39.8388 119.142 41.1145 119.142C40.7384 119.768 40.5498 120.083 40.1745 120.71Z" fill="#D3D3D3"/>
<path opacity="0.5" d="M44.4603 120.71C43.138 120.71 42.4768 120.71 41.1545 120.71C41.5158 120.083 41.6971 119.769 42.0587 119.142C43.3349 119.142 43.9722 119.142 45.2483 119.142C44.9332 119.768 44.775 120.083 44.4603 120.71Z" fill="#D3D3D3"/>
<path opacity="0.5" d="M48.7469 120.71C47.4237 120.71 46.7626 120.71 45.4395 120.71C45.7402 120.083 45.8905 119.769 46.1912 119.142C47.4674 119.142 48.1046 119.142 49.38 119.142C49.1271 119.768 49.0002 120.083 48.7469 120.71Z" fill="#D3D3D3"/>
<path opacity="0.5" d="M53.0322 120.71C51.7091 120.71 51.0475 120.71 49.7244 120.71C49.9641 120.083 50.0844 119.769 50.3237 119.142C51.5999 119.142 52.238 119.142 53.5133 119.142C53.3214 119.768 53.225 120.083 53.0322 120.71Z" fill="#D3D3D3"/>
<path opacity="0.5" d="M57.3175 120.71C55.9957 120.71 55.3345 120.71 54.0122 120.71C54.1902 120.083 54.2808 119.769 54.4579 119.142C55.7333 119.142 56.3726 119.142 57.6463 119.142C57.5161 119.768 57.4498 120.083 57.3175 120.71Z" fill="#D3D3D3"/>
<path opacity="0.5" d="M61.6024 120.71C60.2801 120.71 59.6193 120.71 58.2966 120.71C58.4136 120.083 58.4733 119.769 58.5907 119.142C59.8657 119.142 60.5038 119.142 61.7795 119.142C61.7087 119.768 61.6732 120.083 61.6024 120.71Z" fill="#D3D3D3"/>
<path opacity="0.5" d="M65.8874 120.71C64.5655 120.71 63.9043 120.71 62.5833 120.71C62.6393 120.083 62.6673 119.769 62.7233 119.142C63.9982 119.142 64.6363 119.142 65.9104 119.142C65.9022 119.768 65.8972 120.083 65.8874 120.71Z" fill="#D3D3D3"/>
<path opacity="0.5" d="M70.1762 120.71C68.8531 120.71 68.1915 120.71 66.8692 120.71C66.8655 120.083 66.8626 119.769 66.8577 119.142C68.133 119.142 68.7719 119.142 70.046 119.142C70.0983 119.768 70.1235 120.083 70.1762 120.71Z" fill="#D3D3D3"/>
<path opacity="0.5" d="M74.4609 120.71C73.1394 120.71 72.4775 120.71 71.1564 120.71C71.0901 120.083 71.0567 119.769 70.9912 119.142C72.2661 119.142 72.9034 119.142 74.1783 119.142C74.2912 119.768 74.3485 120.083 74.4609 120.71Z" fill="#D3D3D3"/>
<path opacity="0.5" d="M78.7454 120.71C77.424 120.71 76.7624 120.71 75.4389 120.71C75.3128 120.083 75.2494 119.769 75.1221 119.142C76.397 119.142 77.0347 119.142 78.3104 119.142C78.4839 119.768 78.5712 120.083 78.7454 120.71Z" fill="#D3D3D3"/>
<path opacity="0.5" d="M38.9215 122.8C37.5361 122.8 36.8424 122.8 35.4575 122.8C35.8802 122.173 36.0931 121.859 36.5158 121.233C37.8541 121.233 38.5231 121.233 39.8607 121.233C39.4858 121.859 39.298 122.173 38.9215 122.8Z" fill="#D3D3D3"/>
<path opacity="0.5" d="M43.4116 122.8C42.0271 122.8 41.3338 122.8 39.9485 122.8C40.311 122.173 40.4914 121.859 40.8539 121.233C42.1915 121.233 42.8604 121.233 44.1996 121.233C43.8845 121.859 43.7259 122.173 43.4116 122.8Z" fill="#D3D3D3"/>
<path opacity="0.5" d="M47.9004 122.8C46.515 122.8 45.8222 122.8 44.4373 122.8C44.738 122.173 44.8887 121.859 45.1903 121.233C46.5266 121.233 47.1964 121.233 48.5347 121.233C48.2814 121.859 48.1549 122.173 47.9004 122.8Z" fill="#D3D3D3"/>
<path opacity="0.5" d="M52.3751 122.85C50.9877 122.85 50.294 122.85 48.9058 122.85C49.1546 122.204 49.2773 121.88 49.5245 121.233C50.8637 121.233 51.5331 121.233 52.8714 121.233C52.6729 121.879 52.574 122.204 52.3751 122.85Z" fill="#D3D3D3"/>
<path opacity="0.5" d="M79.3269 122.8C70.69 122.8 62.0522 122.8 53.416 122.8C53.5936 122.173 53.6825 121.859 53.8613 121.233C62.2054 121.233 70.5487 121.233 78.8915 121.233C79.0654 121.859 79.1531 122.173 79.3269 122.8Z" fill="#D3D3D3"/>
<path opacity="0.5" d="M60.1741 126.245C66.7267 126.245 73.2784 126.245 79.8298 126.245L78.1747 123.574C71.8449 123.574 68.0675 123.574 61.7386 123.574L60.1741 126.245Z" fill="#D3D3D3"/>
<path opacity="0.5" d="M81.0946 116.528C79.8975 116.528 79.2986 116.528 78.1023 116.528C77.919 115.901 77.8288 115.587 77.6467 114.959C78.796 114.959 79.3707 114.959 80.5208 114.959C80.7502 115.586 80.8639 115.901 81.0946 116.528Z" fill="#D3D3D3"/>
<path opacity="0.5" d="M81.8591 118.619C80.599 118.619 79.9696 118.619 78.7087 118.619C78.527 117.992 78.4364 117.678 78.2539 117.051C79.4662 117.051 80.073 117.051 81.2865 117.051C81.5148 117.678 81.6297 117.992 81.8591 118.619Z" fill="#D3D3D3"/>
<path opacity="0.5" d="M82.6236 120.71C81.3013 120.71 80.6389 120.71 79.3166 120.71C79.1341 120.083 79.0443 119.769 78.8618 119.142C80.138 119.142 80.7744 119.142 82.0506 119.142C82.2796 119.768 82.3933 120.083 82.6236 120.71Z" fill="#D3D3D3"/>
<path opacity="0.5" d="M83.3883 122.8C82.003 122.8 81.3097 122.8 79.9244 122.8C79.7419 122.173 79.6508 121.859 79.4688 121.233C80.8071 121.233 81.4761 121.233 82.8145 121.233C83.0439 121.859 83.1588 122.173 83.3883 122.8Z" fill="#D3D3D3"/>
<path opacity="0.5" d="M84.6022 116.528C83.4051 116.528 82.807 116.528 81.6099 116.528C81.3723 115.901 81.2528 115.587 81.0164 114.959C82.1656 114.959 82.7407 114.959 83.8908 114.959C84.1746 115.587 84.3176 115.901 84.6022 116.528Z" fill="#D3D3D3"/>
<path opacity="0.5" d="M85.5516 118.619C84.2911 118.619 83.6612 118.619 82.4019 118.619C82.1643 117.992 82.0448 117.678 81.8083 117.051C83.0207 117.051 83.6254 117.051 84.8398 117.051C85.1236 117.678 85.2669 117.992 85.5516 118.619Z" fill="#D3D3D3"/>
<path opacity="0.5" d="M86.4999 120.71C85.1767 120.71 84.5156 120.71 83.1933 120.71C82.9556 120.083 82.8366 119.769 82.5989 119.142C83.8742 119.142 84.5123 119.142 85.7876 119.142C86.0735 119.768 86.2148 120.083 86.4999 120.71Z" fill="#D3D3D3"/>
<path opacity="0.5" d="M87.4485 122.8C86.0628 122.8 85.3695 122.8 83.9842 122.8C83.7478 122.173 83.6283 121.859 83.3918 121.233C84.729 121.233 85.3992 121.233 86.7367 121.233C87.0218 121.859 87.1631 122.173 87.4485 122.8Z" fill="#D3D3D3"/>
<path opacity="0.5" d="M88.1103 116.528C86.9132 116.528 86.3155 116.528 85.1184 116.528C84.8255 115.901 84.6789 115.587 84.386 114.959C85.5361 114.959 86.1103 114.959 87.2609 114.959C87.6007 115.587 87.7712 115.901 88.1103 116.528Z" fill="#D3D3D3"/>
<path opacity="0.5" d="M89.243 118.619C87.9837 118.619 87.3534 118.619 86.0937 118.619C85.8009 117.992 85.6542 117.678 85.3613 117.051C86.5745 117.051 87.1804 117.051 88.3936 117.051C88.733 117.678 88.9039 117.992 89.243 118.619Z" fill="#D3D3D3"/>
<path opacity="0.5" d="M90.3773 120.71C89.0538 120.71 88.393 120.71 87.0703 120.71C86.7774 120.083 86.6316 119.769 86.3379 119.142C87.6141 119.142 88.2521 119.142 89.5275 119.142C89.8665 119.768 90.0375 120.083 90.3773 120.71Z" fill="#D3D3D3"/>
<path opacity="0.5" d="M91.5097 122.8C90.1243 122.8 89.4311 122.8 88.0457 122.8C87.7533 122.173 87.6074 121.859 87.3137 121.233C88.6521 121.233 89.3211 121.233 90.6598 121.233C90.9993 121.859 91.1698 122.173 91.5097 122.8Z" fill="#D3D3D3"/>
<path opacity="0.5" d="M91.6178 116.528C90.4215 116.528 89.823 116.528 88.6259 116.528C88.2783 115.901 88.104 115.587 87.7563 114.959C88.9052 114.959 89.4794 114.959 90.6296 114.959C91.0263 115.587 91.2228 115.901 91.6178 116.528Z" fill="#D3D3D3"/>
<path opacity="0.5" d="M92.9355 118.619C91.6762 118.619 91.0464 118.619 89.7863 118.619C89.4386 117.992 89.2639 117.678 88.9163 117.051C90.1282 117.051 90.7354 117.051 91.9477 117.051C92.3427 117.678 92.5413 117.992 92.9355 118.619Z" fill="#D3D3D3"/>
<path opacity="0.5" d="M94.2528 120.71C92.9305 120.71 92.2698 120.71 90.9471 120.71C90.599 120.083 90.4256 119.769 90.0767 119.142C91.352 119.142 91.9901 119.142 93.2654 119.142C93.6609 119.768 93.8582 120.083 94.2528 120.71Z" fill="#D3D3D3"/>
<path opacity="0.5" d="M95.5707 122.8C94.1853 122.8 93.4929 122.8 92.1067 122.8C91.7591 122.173 91.5852 121.859 91.2363 121.233C92.5747 121.233 93.2441 121.233 94.5829 121.233C94.9775 121.859 95.1748 122.173 95.5707 122.8Z" fill="#D3D3D3"/>
<path opacity="0.5" d="M95.1275 116.528C93.9296 116.528 93.3302 116.528 92.1344 116.528C91.7303 115.901 91.5284 115.587 91.1248 114.959C92.2749 114.959 92.8499 114.959 94 114.959C94.4507 115.587 94.6756 115.901 95.1275 116.528Z" fill="#D3D3D3"/>
<path opacity="0.5" d="M96.6277 118.619C95.3684 118.619 94.7373 118.619 93.478 118.619C93.0743 117.992 92.8729 117.678 92.4705 117.051C93.6824 117.051 94.2887 117.051 95.5019 117.051C95.9525 117.678 96.1778 117.992 96.6277 118.619Z" fill="#D3D3D3"/>
<path opacity="0.5" d="M98.1298 120.71C96.8075 120.71 96.1456 120.71 94.822 120.71C94.4192 120.083 94.2181 119.769 93.8145 119.142C95.0906 119.142 95.7279 119.142 97.004 119.142C97.4551 119.768 97.6796 120.083 98.1298 120.71Z" fill="#D3D3D3"/>
<path opacity="0.5" d="M99.631 122.8C98.2456 122.8 97.5532 122.8 96.1662 122.8C95.7633 122.173 95.5611 121.859 95.1582 121.233C96.4974 121.233 97.1668 121.233 98.5051 121.233C98.9554 121.859 99.1803 122.173 99.631 122.8Z" fill="#D3D3D3"/>
<path opacity="0.5" d="M98.634 116.528C97.4377 116.528 96.8388 116.528 95.6425 116.528C95.1836 115.901 94.955 115.587 94.4949 114.959C95.645 114.959 96.2192 114.959 97.3701 114.959C97.8756 115.587 98.1281 115.901 98.634 116.528Z" fill="#D3D3D3"/>
<path opacity="0.5" d="M100.32 118.619C99.0608 118.619 98.4298 118.619 97.1705 118.619C96.7132 117.992 96.483 117.678 96.0249 117.051C97.2372 117.051 97.8432 117.051 99.0559 117.051C99.5613 117.678 99.8143 117.992 100.32 118.619Z" fill="#D3D3D3"/>
<path opacity="0.5" d="M102.006 120.71C100.684 120.71 100.023 120.71 98.6994 120.71C98.2405 120.083 98.0119 119.769 97.553 119.142C98.8283 119.142 99.4664 119.142 100.742 119.142C101.248 119.768 101.5 120.083 102.006 120.71Z" fill="#D3D3D3"/>
<path opacity="0.5" d="M103.692 122.8C102.307 122.8 101.614 122.8 100.227 122.8C99.7691 122.173 99.5396 121.859 99.0815 121.233C100.42 121.233 101.089 121.233 102.427 121.233C102.933 121.859 103.185 122.173 103.692 122.8Z" fill="#D3D3D3"/>
</g>
<path d="M85.475 109.851H54.6262C54.8466 108.955 55.0485 108.24 55.2256 107.743C55.315 107.492 55.4402 107.252 55.6013 107.024C56.1479 106.25 57.0838 105.591 58.2895 105.034C59.7288 104.369 61.5504 103.845 63.5474 103.431C65.6693 102.996 67.9839 102.682 70.2376 102.455C70.39 102.442 70.5408 102.425 70.6932 102.412C73.1998 102.178 75.608 102.05 77.551 101.988C80.2335 101.895 82.0419 101.914 82.0419 101.914C82.0419 101.914 82.1869 102.145 82.4411 102.607C83.0363 103.701 84.2264 106.099 85.475 109.851Z" fill="#0B4870"/>
<path d="M61.8437 59.5142C61.7852 59.9096 61.6822 60.2758 61.5364 60.6284L61.6237 59.6316C61.6974 59.5871 61.7712 59.5582 61.8437 59.5142Z" fill="#FFE3CA"/>
<path d="M78.1844 58.0343C78.1844 58.0343 78.1844 58.0343 78.1844 58.0475C78.1543 58.0343 78.1251 58.019 78.1111 58.019C78.1407 58.0195 78.1543 58.0343 78.1844 58.0343Z" fill="#EEBEA7"/>
<path d="M109.844 79.0709C109.844 79.0709 111.75 77.3045 111.372 75.9794C111.052 74.8548 111.535 73.5951 111.656 73.0723C111.819 72.3799 111.884 70.132 112.401 70.2543C113.275 70.4669 113.074 74.0552 113.181 74.8202C113.289 75.5843 115.606 73.025 116.396 72.8911C117.188 72.7543 121.21 76.8308 119.418 78.4052C117.626 79.9763 115.155 80.614 114.894 80.9534C114.633 81.2929 113.405 82.2255 113.405 82.2255L109.844 79.0709Z" fill="#F1B99E"/>
<path d="M115.89 73.1571C115.89 73.1571 121.699 68.7082 122.334 68.735C122.971 68.7605 123.191 69.0917 122.664 69.5292C122.14 69.9679 117.179 73.9933 117.179 73.9933C117.179 73.9933 124.937 69.8806 125.464 69.7887C125.769 69.7343 126.004 70.3226 125.743 70.5841C125.484 70.8428 118.265 75.3848 118.265 75.3848C118.265 75.3848 125.514 71.5571 125.976 71.6115C126.382 71.6605 126.67 72.3287 126.152 72.6492C125.634 72.9692 119.105 76.9032 119.105 76.9032C119.105 76.9032 124.559 74.4514 124.922 74.7253C125.142 74.895 125.457 75.2674 124.032 75.8556C122.604 76.4447 119.499 78.3252 119.499 78.3252L115.89 73.1571Z" fill="#F1B99E"/>
<path d="M74.4181 54.1938V54.5893C74.3872 54.5172 74.3588 54.4579 74.3448 54.3846C74.3147 54.3702 74.3147 54.3413 74.3147 54.3253C74.3448 54.2824 74.3736 54.2392 74.4181 54.1938Z" fill="#FFBE55"/>
<path d="M70.0508 56.5983C69.9923 56.6118 69.9178 56.6118 69.8601 56.6118V56.583C69.9178 56.5982 69.9923 56.5983 70.0508 56.5983Z" fill="#EEBEA7"/>
<path d="M74.4181 54.1938V54.3117C74.3872 54.3413 74.3736 54.3549 74.3448 54.3846C74.1837 54.5605 74.007 54.7211 73.8315 54.883C73.7578 54.9419 73.6997 54.9996 73.6272 55.0585C73.7141 54.9716 73.8167 54.8682 73.9061 54.7804C74.0379 54.6486 74.1689 54.4876 74.3147 54.3253C74.3448 54.2824 74.3736 54.2392 74.4181 54.1938Z" fill="#EEBEA7"/>
<path d="M77.7737 49.1386C76.9679 50.9268 75.9855 52.5391 74.8712 53.8141C74.7258 53.9895 74.5635 54.165 74.4176 54.3121V54.1943C74.3732 54.2392 74.3443 54.2828 74.3142 54.3257C74.1684 54.488 74.0374 54.649 73.9056 54.7809C73.8162 54.869 73.7136 54.972 73.6267 55.0589C73.5958 55.0742 73.5678 55.1038 73.5386 55.1327C73.4941 55.1763 73.4504 55.2208 73.4055 55.2352C73.2881 55.3378 73.1724 55.4255 73.0393 55.5133C72.8787 55.6307 72.7324 55.7328 72.5718 55.821C72.5273 55.8502 72.4832 55.8791 72.4544 55.8947C72.3065 55.9816 72.1615 56.0554 72.0305 56.1135C71.8966 56.1872 71.7504 56.2457 71.6186 56.2898L71.6046 56.3046C71.4876 56.3343 71.399 56.3779 71.296 56.4072C71.266 56.422 71.2384 56.4368 71.2079 56.4368C71.1065 56.4657 71.0036 56.4945 70.9002 56.5101C70.8717 56.5101 70.8569 56.5242 70.8277 56.5242H70.7828C70.7103 56.5398 70.6229 56.5542 70.5496 56.5691C70.4759 56.5831 70.3881 56.5831 70.3152 56.5831C70.2427 56.5983 70.1673 56.5983 70.1088 56.5983H70.0948C70.0808 56.6119 70.066 56.6119 70.0512 56.5983C69.9927 56.5983 69.9181 56.5983 69.8604 56.5831V56.6119C69.7731 56.6119 69.6845 56.5983 69.5828 56.5831C69.4794 56.5691 69.3624 56.5542 69.259 56.5398C69.2005 56.5242 69.1433 56.5242 69.0683 56.5101C69.0106 56.4945 68.9513 56.4945 68.8928 56.4657C68.5855 56.3923 68.2935 56.2749 67.9849 56.1135C67.8968 56.0706 67.7942 56.0121 67.706 55.9536C67.2228 55.6752 66.7532 55.2793 66.2692 54.7805C66.095 54.6058 65.9331 54.3998 65.7572 54.1939C65.0099 53.2559 64.2635 52.0114 63.5739 50.4288C63.2811 49.7685 63.0162 49.1238 62.7822 48.5084C63.148 49.2264 62.5099 42.5284 62.657 42.7636C60.6645 38.9532 62.6504 42.0892 63.3556 40.1997C67.7654 42.0604 76.3372 45.2702 76.3372 42.0163C76.3372 42.0163 76.5276 43.9948 76.7484 46.0463C76.9238 47.7315 77.1146 49.4764 77.2031 50.1355C77.2027 50.1351 77.4359 49.7685 77.7737 49.1386Z" fill="#F4C7B1"/>
<path d="M70.0506 56.5987C69.9921 56.6123 69.9175 56.6123 69.8599 56.6123V56.5835C69.9175 56.5987 69.9921 56.5987 70.0506 56.5987Z" fill="#EEBEA7"/>
<path d="M74.4179 54.1938V54.3117C74.387 54.3413 74.3734 54.3549 74.3445 54.3846C74.1835 54.5605 74.0068 54.7211 73.8313 54.883C73.7575 54.9419 73.6995 54.9996 73.627 55.0585C73.7139 54.9716 73.8164 54.8682 73.9058 54.7804C74.0376 54.6486 74.1686 54.4876 74.3145 54.3253C74.3445 54.2824 74.3734 54.2392 74.4179 54.1938Z" fill="#EEBEA7"/>
<path d="M62.7816 48.5082C61.6084 46.1927 59.7184 41.7678 60.0558 37.5759C60.0558 37.5607 60.0558 37.5607 60.0558 37.5607C59.5289 34.0881 63.8518 27.8305 70.4468 28.1526C77.0406 27.8305 81.3646 34.0881 80.8365 37.5607V37.5759C81.0404 40.111 80.4254 42.7193 79.6638 44.9038C80.1474 44.8877 80.6153 44.9466 81.0845 45.1081C83.7085 45.9732 84.939 49.3877 83.8255 52.7144C82.7269 56.0552 79.6926 58.0477 77.0698 57.1835C75.853 56.7876 74.9294 55.8356 74.4174 54.5891V54.3115C74.5632 54.1649 74.7259 53.989 74.8709 53.8135C75.9852 52.5385 76.9677 50.9262 77.7734 49.1381C77.4356 49.7683 77.2305 50.5427 77.2305 50.5427C77.1419 49.8845 76.9228 47.7309 76.7473 46.0457C76.5261 43.9943 76.3362 42.0158 76.3362 42.0158C76.3362 45.27 67.7643 42.0598 63.3546 40.1991L62.7816 48.5082Z" fill="#FFBE55"/>
<path d="M74.4181 54.1938V54.5893C74.4181 54.8682 74.4041 55.2051 74.4181 55.5862C73.9926 56.1135 73.5679 56.5538 73.1284 56.8904C72.9805 57.0078 72.8347 57.1107 72.6888 57.2129C72.5719 57.3006 72.4545 57.3727 72.3366 57.4325H72.3226C71.6487 57.8131 70.974 58.0038 70.3149 58.0186H69.9771C69.9334 58.0186 69.8902 58.0186 69.8601 58.0038V56.5822C69.9178 56.5975 69.9923 56.5975 70.0508 56.5975C70.0657 56.6111 70.0805 56.6111 70.0945 56.5975H70.1085C70.1831 56.6111 70.242 56.6111 70.3149 56.6111C70.403 56.6111 70.5052 56.5975 70.5929 56.5822C70.6951 56.5682 70.8133 56.5534 70.9163 56.539C70.974 56.5233 71.0321 56.5233 71.1066 56.5093C71.1655 56.4937 71.2236 56.4937 71.2825 56.4648C71.5902 56.3915 71.8827 56.2741 72.1892 56.1126C72.2786 56.0698 72.382 56.0113 72.4685 55.9528C72.7902 55.7769 73.0983 55.5413 73.406 55.234C73.4509 55.2196 73.4946 55.1751 73.5391 55.1314C73.5679 55.1026 73.5963 55.0729 73.6272 55.0577C73.7141 54.9708 73.8167 54.8674 73.9061 54.7796C74.0379 54.6478 74.1689 54.4867 74.3147 54.3244C74.3448 54.2824 74.3736 54.2392 74.4181 54.1938Z" fill="#A5735B"/>
<path d="M69.8611 66.7534V106.424L76.7053 106.132L82.3331 105.882L81.7606 98.9508L81.1307 91.1974C80.222 91.5797 79.1959 92.0332 78.2134 92.4736C78.4775 89.4104 78.5945 86.5969 78.419 84.2955C77.7302 75.7368 76.6608 68.7615 75.825 64.2039V64.1891C75.9124 63.31 75.795 62.328 75.5906 61.4197C75.5622 61.2277 75.5173 61.039 75.4736 60.8627C75.4147 60.6572 75.3719 60.4673 75.313 60.2766C75.2681 60.1295 75.2244 59.9837 75.1799 59.8374C75.1511 59.7349 75.1066 59.6323 75.0786 59.5437C74.9316 59.0601 74.7857 58.6935 74.6963 58.4888H74.6679C74.7853 59.0169 75.1956 60.7754 75.7076 63.5444C75.7076 63.5444 75.7076 63.5444 75.7076 63.5596C75.3723 65.0249 74.3013 65.8455 72.9819 66.3006C72.9679 66.3006 72.9394 66.3142 72.923 66.3142C72.0159 66.6228 70.9898 66.7394 70.0086 66.7538C69.9645 66.7534 69.9056 66.7686 69.8611 66.7534Z" fill="#0E538C"/>
<path d="M85.4965 79.0937C85.8487 79.6346 86.3459 80.6314 86.8448 81.7601C86.7723 83.0058 86.6841 83.7522 86.6841 83.7522C86.6841 83.7522 86.142 85.1738 85.4236 87.4024C85.2321 87.9581 83.3874 97.8065 83.1823 98.452C83.1378 98.569 83.1077 98.7008 83.0649 98.8182C82.391 99.1544 82.5413 98.5678 81.3681 99.0382C81.018 99.184 80.6357 99.3307 80.2399 99.5057C80.1814 99.5366 80.1089 99.565 80.0046 99.6087C79.8876 99.6528 79.7707 99.6969 79.6533 99.7554C78.906 100.078 78.1007 100.43 77.3242 100.781C77.587 97.7184 78.5946 86.5962 78.4183 84.2952C77.73 75.7364 76.661 68.7612 75.8252 64.2036V64.1888C75.7803 63.9692 75.7527 63.7645 75.7082 63.5589C75.7082 63.5437 75.7082 63.5437 75.7082 63.5437C75.1953 60.7747 74.785 59.0165 74.6672 58.488H78.4632V58.5181C79.5177 58.4444 84.4959 57.7437 87.8964 60.9823C86.0201 60.1761 83.5337 60.9057 82.6995 61.4193C82.3461 61.6245 82.0388 61.8585 81.7743 62.1225C81.3348 62.5328 80.9986 63.002 80.7494 63.5148C78.317 68.5416 84.4704 77.5391 85.4965 79.0937Z" fill="#2A94F4"/>
<path d="M85.7734 109.85H76.3418C76.4402 108.648 76.5655 107.402 76.7043 106.131C76.8456 104.767 77.0141 103.381 77.1747 101.987C77.2283 101.506 77.2839 101.027 77.3366 100.547C77.3366 100.547 77.3399 100.547 77.3436 100.544C78.4892 100.125 79.9952 98.1784 81.6462 97.5263C81.6854 97.5127 81.7216 97.4966 81.7612 97.4831C82.232 97.322 82.7 98.6262 83.1811 98.4515C83.4905 101.726 84.5944 105.999 85.7734 109.85Z" fill="#2A94F4"/>
<path d="M69.8611 58.005V66.7536C69.9056 66.7689 69.9645 66.7536 70.009 66.7536C70.9902 66.7392 72.0163 66.6226 72.9234 66.3141C72.9403 66.3141 72.9683 66.3005 72.9823 66.3005C74.3013 65.8453 75.3723 65.0248 75.708 63.5595C75.708 63.5443 75.708 63.5443 75.708 63.5443C75.196 60.7753 74.7861 59.0171 74.6683 58.4886H74.4628V58.2106C74.4628 58.0351 74.4475 57.8736 74.4475 57.7121C74.4335 57.1845 74.4335 56.6864 74.4191 56.2024V55.5874C73.9944 56.1147 73.5689 56.555 73.1298 56.8916C72.9827 57.0238 72.8361 57.126 72.6911 57.2141C72.5728 57.3019 72.4558 57.3739 72.3389 57.4337H72.3248C71.6056 57.8444 70.9024 58.0199 70.1993 58.0199C70.0815 58.0199 69.9645 58.0199 69.8611 58.005Z" fill="#F4C7B1"/>
<path d="M111.904 77.2231L112.243 77.8266L112.254 77.8381L114.901 82.5189L115.311 83.2394C115.311 83.2394 114.508 83.5627 113.246 84.097C112.096 84.5827 110.57 85.2208 108.917 85.9367C108.461 86.139 108.007 86.3391 107.535 86.5381C104.319 87.9646 100.934 89.4875 99.239 90.4622C95.5411 92.5742 92.464 93.3119 90.5893 93.2732C88.7245 93.2238 84.6344 82.1848 83.9955 79.5365C83.3479 76.8997 80.955 72.041 79.2406 67.4146C78.5151 65.4489 78.7248 63.7142 79.346 62.3371C80.1723 60.4702 81.7303 59.2637 82.6921 59.0709C83.0884 58.9823 83.4736 58.9444 83.8488 58.9576C84.4482 58.9601 85.0138 59.075 85.5452 59.2806C90.7495 61.3085 92.361 72.0904 92.6658 73.9268C92.7779 74.5641 93.0905 75.6326 93.4934 76.7992C94.3861 79.5283 95.6857 82.8217 95.6857 82.8217C98.299 81.6954 99.3778 81.3737 100.373 81.0882C101.096 80.8769 101.778 80.7048 102.957 80.2516C103.313 80.1198 103.693 79.9662 104.101 79.8265C105.028 79.4883 106.088 79.1217 107.107 78.7773C109.595 77.946 111.904 77.2231 111.904 77.2231Z" fill="#2A94F4"/>
<path d="M70.3148 56.5832V58.0048C70.2711 58.0196 70.2423 58.0196 70.1978 58.0196H69.8596C69.1997 58.0048 68.5249 57.8141 67.851 57.4334H67.837C67.72 57.3737 67.603 57.3012 67.4848 57.2139C67.3394 57.1117 67.194 57.0087 67.0461 56.8913C66.6066 56.5548 66.181 56.114 65.7563 55.5872C65.7704 55.0158 65.7563 54.5318 65.7563 54.1948C65.9322 54.4008 66.0941 54.6063 66.2684 54.7814C66.7524 55.2803 67.222 55.6765 67.7052 55.9546C67.7934 56.0131 67.8959 56.072 67.9841 56.1144C68.2926 56.2759 68.5851 56.3933 68.892 56.4666C68.9505 56.4955 69.0094 56.4955 69.0675 56.5111C69.1428 56.5251 69.1997 56.5251 69.2582 56.5408C69.3616 56.5552 69.4786 56.57 69.582 56.584C69.6833 56.5993 69.7723 56.6129 69.8596 56.6129C69.9173 56.6129 69.9918 56.6129 70.0503 56.5993C70.0652 56.6129 70.08 56.6129 70.094 56.5993H70.108C70.1669 56.5984 70.2419 56.5984 70.3148 56.5832Z" fill="#A5735B"/>
<path d="M70.3149 66.7534V106.424L63.4707 106.132L57.8433 105.882L58.415 98.9508L59.0449 91.1974C59.9536 91.5797 60.9797 92.0332 61.9622 92.4736C61.6973 89.4104 61.582 86.5969 61.757 84.2955C62.4454 75.7368 63.5143 68.7615 64.3497 64.2039V64.1891C64.2632 63.31 64.3806 62.328 64.5849 61.4197C64.6134 61.2277 64.6583 61.039 64.7027 60.8627C64.7617 60.6572 64.8037 60.4673 64.8626 60.2766C64.9075 60.1295 64.9511 59.9837 64.9956 59.8374C65.0245 59.7349 65.069 59.6323 65.0978 59.5437C65.2457 59.0601 65.3907 58.6935 65.4792 58.4888H65.5077C65.3907 59.0169 64.9796 60.7754 64.4675 63.5444C64.4675 63.5444 64.4675 63.5444 64.4675 63.5596C64.8037 65.0249 65.8747 65.8455 67.1945 66.3006C67.2085 66.3006 67.2374 66.3142 67.253 66.3142C68.1601 66.6228 69.187 66.7394 70.1674 66.7538C70.2111 66.7534 70.2712 66.7686 70.3149 66.7534Z" fill="#0E538C"/>
<path d="M65.5072 58.4883C65.3902 59.0164 64.9791 60.7749 64.467 63.5439C64.467 63.5439 64.467 63.5439 64.467 63.5592C64.4234 63.7643 64.3937 63.9694 64.3496 64.189V64.2038C63.5142 68.7614 62.4453 75.7367 61.7569 84.2954C61.5814 86.5964 61.6972 89.4103 61.9621 92.4735C60.9796 92.0331 59.9535 91.5796 59.0448 91.1973C58.6497 91.0214 58.2675 90.8756 57.9173 90.7298C56.7433 90.2602 56.1279 89.9228 55.4544 89.5854C55.4115 89.4684 55.3811 89.3374 55.337 89.22C55.1318 88.575 54.9419 87.9591 54.7516 87.4034C54.0328 85.1753 53.4911 83.7533 53.4911 83.7533C53.4911 83.7533 53.4038 83.0069 53.3305 81.7612C53.8285 80.6321 54.3269 79.6356 54.6791 79.0948C55.704 77.5401 61.8583 68.5427 59.4254 63.5159C59.1766 63.003 58.84 62.5339 58.4005 62.1236C58.1365 61.8595 57.8279 61.6256 57.4761 61.4204C56.6428 60.9071 53.356 61.488 51.4805 62.2941C54.8806 59.0543 60.6579 58.4454 61.7129 58.5192V58.4891H65.5072V58.4883Z" fill="#2A94F4"/>
<path d="M63.8324 109.852H54.4004C54.6838 108.926 54.9635 107.977 55.2243 107.025C56.0642 104.007 56.7591 100.943 56.9931 98.4531C57.4738 98.6278 57.9455 98.7893 58.4163 98.9503C60.1159 99.5497 61.6681 100.124 62.8376 100.549C62.943 101.51 63.058 102.475 63.1704 103.431C63.2726 104.34 63.3772 105.243 63.4699 106.132C63.6087 107.404 63.7335 108.65 63.8324 109.852Z" fill="#2A94F4"/>
<path d="M70.3148 58.005V66.7536C70.2712 66.7689 70.2114 66.7536 70.1669 66.7536C69.1865 66.7392 68.1596 66.6226 67.2525 66.3141C67.2373 66.3141 67.2085 66.3005 67.194 66.3005C65.8742 65.8453 64.8032 65.0248 64.467 63.5595C64.467 63.5443 64.467 63.5443 64.467 63.5443C64.9791 60.7753 65.3906 59.0171 65.5072 58.4886H65.7127V58.2106C65.7127 58.0351 65.728 57.8736 65.728 57.7121C65.742 57.1845 65.742 56.6864 65.7564 56.2024V55.5874C66.1811 56.1147 66.6066 56.555 67.0461 56.8916C67.194 57.0238 67.3399 57.126 67.4849 57.2141C67.6031 57.3019 67.7201 57.3739 67.8371 57.4337H67.8511C68.5695 57.8444 69.2751 58.0199 69.9766 58.0199C70.0944 58.0199 70.211 58.0199 70.3148 58.005Z" fill="#F4C7B1"/>
<path d="M74.3588 96.7964C74.2563 97.4411 73.8316 97.9247 73.8316 97.9247C73.8316 97.9247 74.0804 98.7741 73.5094 99.331C73.5094 99.331 73.6997 100.137 72.9525 100.664C72.9525 100.664 73.1284 101.456 72.5414 101.794C72.5414 101.794 71.266 101.955 70.7989 101.867C70.2115 101.735 67.4713 101.105 65.1274 100.519L66.3727 95.2863V95.2723C66.9152 94.906 67.4273 94.5678 67.5891 94.4657C67.985 94.2305 69.3337 94.3046 70.7239 94.7438C72.0738 95.1693 73.5832 95.7699 74.0075 96.0043C74.2278 96.1217 74.4462 96.1666 74.3588 96.7964Z" fill="#EEA886"/>
<path d="M66.5342 94.5971L66.3723 95.2718V95.2858L65.1271 100.518L64.9367 101.325C64.9367 101.325 64.1298 101.017 62.8388 100.547C61.6672 100.122 60.1151 99.5514 58.415 98.9508C57.9458 98.7889 57.4758 98.6274 56.9943 98.4528C53.6671 97.3084 50.1492 96.1216 48.244 95.6821C44.0967 94.7145 41.3405 93.1615 39.9926 91.8577C38.66 90.5535 43.1731 79.6798 44.5078 77.3054C45.8268 74.931 47.3786 69.7436 49.2701 65.1864C50.0759 63.2511 51.4085 62.1232 52.8016 61.5375C54.6784 60.7309 56.6421 60.9064 57.4754 61.4197C57.8276 61.6248 58.1362 61.8588 58.3998 62.1228C58.8393 62.5331 59.1759 63.0023 59.4247 63.5152C61.8575 68.542 55.7033 77.5394 54.6784 79.094C54.3262 79.6349 53.8278 80.6318 53.3297 81.7605C52.1281 84.368 50.8384 87.6655 50.8384 87.6655C53.5196 88.6191 54.5305 89.1163 55.4537 89.5847C56.1272 89.9221 56.7426 90.2594 57.9166 90.729C58.2667 90.8749 58.649 91.0207 59.0441 91.1966C59.9528 91.5788 60.9789 92.0324 61.9614 92.4727C64.3493 93.5569 66.5342 94.5971 66.5342 94.5971Z" fill="#2A94F4"/>
<path d="M80.3421 44.9818L80.2161 39.2395C80.1975 38.2813 80.2161 37.3323 80.0793 36.4437C79.9442 35.5424 79.6995 34.6601 79.3205 33.8432C78.5758 32.2058 77.326 30.8237 75.7565 29.9471C74.1887 29.057 72.3651 28.6524 70.5464 28.6599C68.7281 28.6524 66.9008 29.057 65.3391 29.9471C63.7664 30.8237 62.517 32.2058 61.7698 33.8432C61.3933 34.6596 61.149 35.5424 61.0135 36.4437C60.8771 37.3417 60.8907 38.269 60.8779 39.2395L60.7494 44.9818H60.0298L59.9066 39.2395C59.8951 38.2978 59.8518 37.3063 59.9787 36.3049C60.1039 35.313 60.3474 34.3235 60.7498 33.3929C61.5292 31.5158 62.9854 29.9245 64.7472 28.9181C66.5115 27.8961 68.5485 27.4356 70.5468 27.4253C72.5463 27.4356 74.5813 27.8961 76.3451 28.9181C78.1082 29.9245 79.5623 31.5158 80.3405 33.3929C80.7425 34.3235 80.9888 35.313 81.1165 36.3049C81.2418 37.3141 81.2002 38.2884 81.189 39.2395L81.0642 44.9818H80.3421Z" fill="#0E538C"/>
<path d="M60.6046 48.0998C59.3124 48.0998 58.9866 47.1733 58.9866 46.029V42.3162C58.9866 41.1731 59.3124 40.2446 60.6046 40.2446H60.9136V48.0998H60.6046Z" fill="#0B4870"/>
<path d="M61.5813 40.2446H60.9136V48.0998H61.5813V40.2446Z" fill="#2A94F4"/>
<path d="M80.6844 48.0998C81.9779 48.0998 82.3062 47.1733 82.3062 46.029V42.3162C82.3062 41.1731 81.9779 40.2446 80.6844 40.2446H80.3755V48.0998H80.6844Z" fill="#0B4870"/>
<path d="M80.3754 40.2456H79.7073V48.1007H80.3754V40.2456Z" fill="#2A94F4"/>
<path d="M71.0254 55.2577V54.5373C74.0061 54.5373 79.683 50.3014 79.683 48.0996H80.4018C80.4018 50.8867 74.1223 55.2577 71.0254 55.2577Z" fill="#A1D3FF"/>
<path d="M71.5041 55.9038H70.5443C69.748 55.9038 69.1038 55.4548 69.1038 54.8974C69.1038 54.3421 69.748 53.8936 70.5443 53.8936H71.5041C72.2995 53.8936 72.9442 54.3426 72.9442 54.8974C72.9438 55.4548 72.2995 55.9038 71.5041 55.9038Z" fill="#0B4870"/>
<path d="M45.322 16.4357V22.1257L45.2878 29.8498L45.242 39.1793L45.2132 46.0618L38.3566 39.1529L36.2644 39.1455L8.51955 39.0157C3.83218 38.1013 0.294922 33.9762 0.294922 29.0301V16.4357C0.294922 11.2112 4.24535 6.89618 9.31952 6.32812L37.1299 6.45624C41.7987 7.37773 45.322 11.495 45.322 16.4357Z" fill="#2A94F4"/>
<path opacity="0.8" d="M36.6725 16.7089C36.6725 17.5357 36.0035 18.2042 35.1796 18.2042H9.60484C8.77974 18.2042 8.11035 17.5357 8.11035 16.7089C8.11035 15.8834 8.77974 15.2148 9.60484 15.2148H35.1796C36.0035 15.2148 36.6725 15.8834 36.6725 16.7089Z" fill="#A1D3FF"/>
<path opacity="0.8" d="M36.6725 22.2736C36.6725 23.0967 36.0035 23.7694 35.1796 23.7694H9.60484C8.77974 23.7694 8.11035 23.0967 8.11035 22.2736C8.11035 21.4473 8.77974 20.7783 9.60484 20.7783H35.1796C36.0035 20.7779 36.6725 21.4473 36.6725 22.2736Z" fill="#A1D3FF"/>
<path opacity="0.8" d="M28.8595 27.8371C28.8595 28.6569 28.188 29.3283 27.3625 29.3283H9.60332C8.77822 29.3283 8.11377 28.6569 8.11377 27.8371C8.11377 27.424 8.27648 27.0524 8.54836 26.7809C8.81735 26.5099 9.19139 26.3394 9.60332 26.3394H27.3625C28.188 26.3394 28.8595 27.0104 28.8595 27.8371Z" fill="#A1D3FF"/>
</svg>
