<svg xmlns="http://www.w3.org/2000/svg" width="197" height="155" fill="none" xmlns:v="https://vecta.io/nano"><g fill="#08f"><path opacity=".18" d="M25.62 17.863c2.285-3.32 4.82-5.73 7.562-6.952 21.615-9.631 27.92 15.048 83.976-4.805 4.351-1.557 8.787-2.866 13.286-3.922 31.809-7.345 46.027 5.358 50.487 15.68 1.813 4.188 2.02 7.974 1.141 9.891-3.319 7.207-.295 18.955 6.023 52.625s-21.615 44.837-43.335 50.126c-13.921 3.388-20.701 8.043-23.776 10.949-3.574 3.42-7.795 6.089-12.414 7.85-31.248 11.681-46.424 1.182-65.05-13.71l-13.039-10.296C6.099 106.866 9.875 40.741 25.62 17.863z"/><rect x="3" y="23" width="194" height="108" rx="10"/></g><g fill="#fff"><path d="M43.903 92.68L37.863 115h-7.56l-3.52-14.48-3.64 14.48h-7.52l-6.08-22.32h6.84l3.16 15.96 3.76-15.96h7.24l3.8 15.88 3.12-15.88h6.44zm34.649 0L72.511 115h-7.56l-3.52-14.48-3.64 14.48h-7.52l-6.08-22.32h6.84l3.16 15.96 3.76-15.96h7.24l3.8 15.88 3.12-15.88h6.44zm34.649 0L107.16 115H99.6l-3.52-14.48L92.44 115h-7.52l-6.08-22.32h6.84l3.16 15.96 3.76-15.96h7.24l3.8 15.88 3.12-15.88h6.44zm5.808 22.64c-1.2 0-2.187-.347-2.96-1.04-.747-.72-1.12-1.6-1.12-2.64 0-1.067.373-1.96 1.12-2.68.773-.72 1.76-1.08 2.96-1.08 1.173 0 2.133.36 2.88 1.08a3.51 3.51 0 0 1 1.16 2.68c0 1.04-.387 1.92-1.16 2.64-.747.693-1.707 1.04-2.88 1.04zm52.913-30.588a45.88 45.88 0 0 0 2.133-10.681H181c-.474 3.744-1.677 7.304-3.609 10.681h-5.469zm0-28.463h5.469c1.932 3.377 3.135 6.937 3.609 10.681h-6.945a45.88 45.88 0 0 0-2.133-10.681zm-5.906-10.956c2.005 1.064 3.864 2.349 5.578 3.854h-2.844c-.875-1.468-1.786-2.753-2.734-3.854zm-9.461 21.637V56.268h8.64c.985 3.34 1.586 6.9 1.805 10.681h-10.445zm0-23.949c2.151 1.101 4.065 3.157 5.742 6.166h-5.742V43zm-15.75 41.732c-.985-3.34-1.586-6.9-1.805-10.681h10.445v10.681h-8.64zm0-28.463h8.64v10.681H139c.219-3.78.82-7.341 1.805-10.681zm8.64-13.27v6.166h-5.742c1.677-3.01 3.591-5.065 5.742-6.166zm-15.039 6.166c1.714-1.505 3.573-2.79 5.578-3.854-.948 1.101-1.859 2.386-2.734 3.854h-2.844zM125 66.949c.474-3.744 1.677-7.304 3.609-10.681h5.469a45.88 45.88 0 0 0-2.133 10.681H125zm9.078 17.783h-5.469c-1.932-3.377-3.135-6.937-3.609-10.681h6.945a45.88 45.88 0 0 0 2.133 10.681zm3.172 7.102c.875 1.468 1.786 2.753 2.734 3.854-2.005-1.064-3.864-2.349-5.578-3.854h2.844zm12.195 0V98c-2.151-1.138-4.065-3.193-5.742-6.166h5.742zm7.11-17.783H167c-.219 3.78-.82 7.341-1.805 10.681h-8.64V74.051zm5.742 17.783c-1.677 2.973-3.591 5.028-5.742 6.166v-6.166h5.742zm9.297 0a27.02 27.02 0 0 1-5.578 3.854c.948-1.101 1.859-2.386 2.734-3.854h2.844z"/><path d="M67 10C29.996 10 0 39.996 0 77s29.996 67 67 67 67-29.996 67-67-29.996-67-67-67zm46.351 40.2H91.81c-1.002-7.539-2.265-15.041-3.785-22.492 10.639 4.582 19.519 12.469 25.326 22.492zM73.794 23.882c.456 2.358 2.593 13.655 4.322 26.318H55.871c1.742-12.663 3.873-23.959 4.328-26.318 2.245-.281 4.496-.482 6.801-.482s4.556.201 6.794.482zM80.4 77c0 4.007-.288 8.616-.737 13.4H54.337c-.449-4.784-.737-9.393-.737-13.4s.288-8.616.737-13.4h25.326c.449 4.784.737 9.393.737 13.4zM45.975 27.708C44.455 35.16 43.192 42.661 42.19 50.2h-21.54a53.92 53.92 0 0 1 25.326-22.492zM15.155 63.6h25.607c-.335 4.476-.563 9.005-.563 13.4s.221 8.924.569 13.4H15.162C14.05 86.112 13.4 81.636 13.4 77s.657-9.112 1.762-13.4h-.007zm5.494 40.2H42.19a329.62 329.62 0 0 0 3.785 22.492A53.92 53.92 0 0 1 20.649 103.8zm39.557 26.318a517.87 517.87 0 0 1-4.321-26.318h22.244a538.56 538.56 0 0 1-4.328 26.318c-2.231.288-4.489.482-6.794.482s-4.556-.201-6.794-.482h-.007zm27.818-3.819c1.52-7.454 2.783-14.958 3.785-22.499h21.541a53.92 53.92 0 0 1-25.326 22.492v.007zm30.82-35.899H93.237c.335-4.476.563-9.005.563-13.4s-.221-8.924-.569-13.4h25.594c1.118 4.288 1.775 8.764 1.775 13.4s-.65 9.112-1.762 13.4h.007z" fill-opacity=".1"/></g></svg>