<svg xmlns="http://www.w3.org/2000/svg" xmlns:xlink="http://www.w3.org/1999/xlink" width="214" height="155" fill="none" xmlns:v="https://vecta.io/nano"><g clip-path="url(#L)"><path opacity=".18" d="M34.113 32.454c-6.324 1.34-12.897 2.794-17.974 6.794-4.287 3.375-10.967 9.606-12.991 14.669-8.574 21.386 1.12 47.408 19.935 60.717 8.849 6.26 19.878 9.29 27.831 16.658 5.03 4.66 8.553 10.829 13.905 15.113 7.82 6.255 18.379 7.639 28.372 8.308 6.942.47 14.155.673 20.596-1.965 4.655-1.906 8.599-5.174 12.471-8.396l25.646-21.402c4.12-3.435 7.973-8.905 13.338-8.869 48.289.345 51.545-56.444-22.567-81.597-6.532-2.217-11.011-8.381-17.148-11.541-12.676-6.53-27.264-4.414-40.05.104-16.233 5.751-34.519 7.825-51.365 11.406z" fill="#08f"/><path opacity=".05" d="M202.412 124.068c2.022.033 4.625.537 4.937 2.531.169 1.039-.426 2.048-1.071 2.887-4.029 5.263-10.707 7.924-17.295 8.638s-13.23-.286-19.808-1.096c-9.506-1.173-19.05-1.952-28.632-2.336-6.812-.275-13.978-.447-19.844-3.916-1.089-.641-2.159-1.443-2.682-2.596-1.039-2.292.603-5.083 2.858-6.197s4.906-1.005 7.421-.87c24.697 1.329 49.377 2.955 74.116 2.955z" fill="#000405"/><g fill="#08f"><path d="M202.498 32.817l-10.457 13.262c-3.043 3.458-5.004 7.994-5.004 7.994l-4.417 18.782-4.937-1.316-10.732-2.856s3.814-10.266 1.966-13.381c-2.463-4.154-.332-6.75.229-8.534 1.039-3.305-4.269-9.347-4.269-9.347l-3.401-15.222 5.134-.685 3.726 12.34 6.384 5.694 4.546.241s3.43.706 5.924-.447c2.385-1.106 10.811-10.601 10.811-10.601l3.437 3.116 1.06.961zM160.39 52.08v67.649a6.44 6.44 0 0 1-.492 2.47c-.325.783-.801 1.494-1.401 2.093a6.47 6.47 0 0 1-4.568 1.889H52.682c-.848 0-1.688-.167-2.472-.492a6.46 6.46 0 0 1-3.496-3.494 6.47 6.47 0 0 1-.491-2.471V52.08c-.001-.848.166-1.688.49-2.471a6.45 6.45 0 0 1 1.4-2.095 6.46 6.46 0 0 1 4.569-1.891h101.247a6.47 6.47 0 0 1 4.569 1.891 6.44 6.44 0 0 1 1.4 2.095 6.45 6.45 0 0 1 .492 2.471z"/><path d="M158.639 47.687H47.8l.899-.688a1.61 1.61 0 0 1 .13-.101l52.727-40.388 1.665-1.275 53.644 41.094 1.774 1.358z"/><path d="M160.39 52.08l-1.348.974-9.818 7.106-47.668 34.502L55.712 59.38l-9.488-7.301.122-1.254a6.41 6.41 0 0 1 1.606-3.139c.23-.25.48-.48.748-.688a1.59 1.59 0 0 1 .13-.101 6.43 6.43 0 0 1 3.853-1.275h101.247a6.47 6.47 0 0 1 4.342 1.677c1.188 1.078 1.933 2.56 2.088 4.157.021.207.031.415.031.623z"/></g><path opacity=".61" d="M48.699 46.993a6.49 6.49 0 0 0-.748.688H47.8l.899-.688z" fill="url(#A)"/><path opacity=".61" d="M160.39 52.079l-1.348.976-9.818 7.103-47.668 34.502-45.844-35.279-9.488-7.303.122-1.251a6.42 6.42 0 0 1 1.606-3.142 6.5 6.5 0 0 1 .748-.688l.13-.099 52.727-40.391 1.665-1.275 53.644 41.094c.967.492 1.795 1.221 2.405 2.117s.986 1.933 1.089 3.013c.021.206.031.413.031.62z" fill="url(#B)"/><path d="M149.224 47.082v13.08l-17.592 12.722-4.035 2.929-26.041 18.849-24.493-18.849-3.791-2.918-17.561-13.501V47.082c0-1.017.404-1.992 1.124-2.712a3.84 3.84 0 0 1 2.714-1.123h85.84c1.017.001 1.992.405 2.711 1.124a3.83 3.83 0 0 1 1.124 2.711z" fill="#fff"/><g fill="#68e1fd"><path d="M136.332 58.55h-69.37a1.46 1.46 0 0 1-1.349-2.017 1.46 1.46 0 0 1 1.349-.901h69.37a1.46 1.46 0 0 1 .558.111 1.45 1.45 0 0 1 .474.316c.135.135.243.296.317.473s.111.367.111.558a1.46 1.46 0 0 1-1.46 1.459zm0 8.632h-69.37a1.46 1.46 0 0 1-1.46-1.459 1.46 1.46 0 0 1 1.46-1.459h69.37a1.46 1.46 0 0 1 1.46 1.459 1.46 1.46 0 0 1-1.46 1.459z" fill-opacity=".5"/></g><path d="M131.632 72.894l-4.035 2.918H77.063l-3.793-2.918h58.362z" fill="url(#C)"/><path opacity=".05" d="M101.556 94.662l-42.314 31.524h85.5l-43.186-31.524z" fill="#000405"/><g fill="#08f"><path d="M65.057 23.419c-2.131-4.567-10.133-3.817-10.133-3.817 4.936-2.91 3.991-10.302 3.931-10.738 2.159 6.444 9.613 5.021 10.281 4.881-4.949 1.22-4.079 9.674-4.079 9.674zm-13.874 9.37c-1.354-2.903-6.443-2.425-6.443-2.425 3.222-1.913 2.492-6.839 2.492-6.839v.028c1.382 4.074 6.111 3.17 6.532 3.082-3.133.779-2.58 6.153-2.58 6.153z"/></g><path d="M187.471 24.068a3.21 3.21 0 0 1 2.224-.701c.587-.024 1.163.174 1.61.556.345.387.564.87.629 1.384.127.637.175 1.288.143 1.937-.057 1.192-.366 2.453.148 3.531a2.52 2.52 0 0 0 .489.691 1.36 1.36 0 0 0 .904.449c.173.008.343-.047.479-.153s.23-.259.264-.428a2.76 2.76 0 0 1-1.876 1.552 2.76 2.76 0 0 1-1.25.008c-.411-.093-.796-.279-1.125-.544l.452.917c-.374-.097-.736-.234-1.08-.41-1.105-.6-1.723-1.817-2.017-3.048-.259-1.129-.311-2.295-.556-3.43-.189-.87-.142-1.68.562-2.308z" fill="#3f3d56"/><path d="M187.138 25.314a1.82 1.82 0 0 1 .66.101c.176.073.328.193.44.346s.18.335.196.524c.01.19-.036.379-.132.544s-.238.298-.408.383c-.222.091-.461.133-.701.122-.219 0-.44 0-.658-.021a.38.38 0 0 1-.179-.044c-.056-.046-.098-.106-.122-.174-.142-.283-.25-.582-.32-.89-.179-.956.465-.898 1.224-.89z" fill="#08f"/><path d="M182.911 34.43l-.094 1.727-.143 2.643a5.55 5.55 0 0 1-1.681 3.687c-.587.6-1.987 1.719-3.055 1.322-.52-.192-.538-.846-.429-1.239a7.66 7.66 0 0 0 .398-2.215c.017-.61-.038-1.22-.164-1.817-.67-1.669 5.168-4.107 5.168-4.107z" fill="url(#D)"/><path d="M182.911 34.43l-.094 1.727-1.005 2.03c-.424.75-2.165 1.932-3.897 2.168.017-.61-.038-1.22-.164-1.817-.678-1.669 5.16-4.107 5.16-4.107z" fill="url(#E)"/><path d="M177.826 24.489c-.765.047-1.512.25-2.195.598a5.59 5.59 0 0 0-1.775 1.423c-.487.591-.848 1.276-1.059 2.013a5.57 5.57 0 0 0-.167 2.268 18.86 18.86 0 0 0 1.72 6.548c1.819 3.116 6.428.553 7.158-.73s3.531-7.067 2.354-8.705c-.811-1.106-3.058-3.534-6.036-3.414z" fill="url(#F)"/><g fill="#3f3d56"><path d="M176.189 21.323a9.68 9.68 0 0 1 5.961.174c1.888.717 3.517 2.191 4.237 4.079.619 1.749.56 3.667-.166 5.374-.731 1.694-1.896 3.165-3.378 4.266-.382-1.168.795-2.207 1.253-3.347.106-.211.129-.453.065-.68-.167-.423-.801-.47-1.162-.195s-.519.74-.652 1.174c.351-1.856.611-4.037-.704-5.398-.779-.805-1.956-1.106-3.079-1.116a7.54 7.54 0 0 0-2.998.612c-.947.407-1.8 1.003-2.507 1.753-.413.444-1.001.989-1.525.683a1.03 1.03 0 0 1-.369-.449c-1.551-3.069 2.522-6.244 5.024-6.93z"/><path d="M178.699 24.753c-1.299-.571-2.663-1.038-4.074-1.038s-2.873.478-3.806 1.537a5.34 5.34 0 0 0-1.039 2.017 3.62 3.62 0 0 0-.182 1.438 6.29 6.29 0 0 0 .26 1.039c.244.841.348 1.817-.185 2.524-.098.141-.228.257-.378.341a1.14 1.14 0 0 1-.489.142.71.71 0 0 1-.471-.168c-.131-.111-.217-.267-.241-.437-.229.646.145 1.405.74 1.745.307.156.643.245.986.262s.687-.04 1.007-.166c.269-.085.519-.222.735-.402.214-.206.39-.447.52-.714.543-.984.816-2.077 1.221-3.139s.993-2.077 1.951-2.674c.76-.414 1.613-.626 2.479-.615l2.582-.036c.858-.078.237-.587-.132-.854a8.2 8.2 0 0 0-1.484-.8z"/></g><path d="M213.595 15.445c.221.171-1.848 1.781-1.848 1.781s-.966 1.664-1.948 2.126-8.361 12.501-8.361 12.501l-2.912-2.638 6.282-8.446s2.078-3.98 1.847-5.712c0 0 .125-2.046.751-1.096.442.678.159 1.745.681 1.859.058.005.116-.008.166-.036.433-.263.831-.581 1.182-.945l2.281-2.365s.681-.288.595 0-1.335 2.233-1.405 2.337c.117-.106 2.034-1.817 2.338-1.685s-1.486 2.103-1.59 2.217c.112-.078 2.156-1.501 2.31-1.373.288.241-1.559 1.843-1.712 1.965.116-.062 1.132-.657 1.343-.491z" fill="url(#G)"/><path d="M211.402 16.679a1.04 1.04 0 0 1-.481.039 13.25 13.25 0 0 0-1.574-.026c-.354.015-1.084.26-1.102-.288 0-.145.037-.288.029-.434 0-.062-.016-.125-.026-.187a5.89 5.89 0 0 0 1.182-.945 1.72 1.72 0 0 1 .447.226l1.023.662.538.369c.077.048.139.117.177.2.017.079.004.161-.035.232s-.102.125-.178.152z" fill="url(#H)"/><path d="M160.668 1.926c-.28.031.629 2.487.629 2.487s-.057 1.924.533 2.833.506 14.838.506 14.838l3.866-.519-.878-10.492s.335-4.476 1.445-5.824c0 0 .971-1.804-.06-1.327-.733.343-1.058 1.397-1.559 1.22-.052-.026-.095-.068-.122-.119-.236-.45-.411-.929-.52-1.425L163.82.387s-.416-.597-.483-.309-.045 2.596-.042 2.729c-.044-.148-.766-2.62-1.104-2.664s.153 2.57.184 2.721c-.057-.125-1.039-2.409-1.242-2.383-.371.055.367 2.396.421 2.57-.073-.114-.621-1.15-.886-1.124z" fill="url(#I)"/><path d="M161.874 4.131a1.04 1.04 0 0 0 .387.283 13.22 13.22 0 0 1 1.351.81c.294.2.779.797 1.089.335.083-.119.122-.26.205-.382a1.62 1.62 0 0 1 .122-.148c-.236-.45-.411-.929-.52-1.425-.163-.039-.331-.053-.499-.042l-1.218.023-.655.029c-.092 0-.183.027-.26.078-.053.061-.082.138-.083.219s.028.159.081.22z" fill="url(#J)"/><path d="M146.968 124.418l-1.795 3.77-13.076.623s2.167-5.73 5.692-4.25c1.193.498 5.513-.439 5.513-.439l.135-.434 3.531.73z" fill="#5a5a5a"/><path d="M193.314 125.059l-2.004 1.122-17.147-18.013-1.892-24.047-15.635 14.173s.418 9.759-5.048 17.395c-.98 1.369-2.973 5.343-4.48 8.449l-.137.29-.294-.059-1.021-.213-2.216-.457 7.186-29.027 16.33-25.979 10.732 2.856 4.937 1.316s3.331 6.67 0 23.933l-2.208 9.882s8.901 4.744 11.644 14.127l1.25 4.247.003.005z" fill="#3f3d56"/><path d="M193.314 125.059l2.034 2.127-5.162 5.379h-6.756s1.44-2.375 4.319-2.752 3.567-3.635 3.567-3.635l1.998-1.119z" fill="#5a5a5a"/><g fill="#fff"><path opacity=".22" d="M56.07 19.228l-1.141.374C59.865 16.692 58.92 9.3 58.86 8.864c.078.351 1.226 5.229.6 6.831-.782 2.002-3.39 3.534-3.39 3.534zm-8.158 8.926c-.603.834-2.998 2.119-3.162 2.204 3.222-1.913 2.492-6.839 2.492-6.839v.029c.127.337 1.257 3.791.67 4.606zm-1.496 27.477l52.916 40.687 2.224-1.656L46.223 52.08l.192 3.552zm56.891 40.425l57.083-41.058v-2.801l-58.834 42.58 1.751 1.28z"/><path opacity=".22" d="M160.359 51.573l-.156.436-1.161 1.16c.816-1.407-1.489-4.673-1.489-4.673l-.92-.688-2.761-2.077-52.316-39.106 1.665-1.275 53.644 41.092a6.45 6.45 0 0 1 3.494 5.13z"/></g><path opacity=".61" d="M202.498 32.818L192.041 46.08c-3.043 3.458-5.004 7.994-5.004 7.994l-4.417 18.782-4.937-1.316s4.609-17.221 6.462-20.877 17.288-18.808 17.288-18.808l1.065.963z" fill="url(#K)"/><g fill="#25233a"><path d="M193.311 125.054c-.091-.26-3.024-8.402-7.428-11.816-4.471-3.468-7.07-8.256-7.07-8.256-1.052-9.191-1.125-33.443-1.125-33.443l4.937 1.316s3.331 6.67 0 23.933l-2.208 9.882s8.901 4.753 11.644 14.136l1.25 4.248zm-36.675-26.765s.418 9.759-5.048 17.395c-.98 1.368-2.972 5.343-4.479 8.448l-.432.231-1.021-.212 8.475-26.714s10.266-12.153 12.144-13.317 5.996 0 5.996 0l-15.635 14.168z"/></g></g><defs><linearGradient id="A" x1="47.842" y1="48.452" x2="48.836" y2="45.749" xlink:href="#M"><stop offset=".36" stop-color="#00272e"/><stop offset=".75" stop-color="#3f80a1" stop-opacity=".25"/><stop offset="1" stop-color="#69b9eb" stop-opacity="0"/></linearGradient><linearGradient id="B" x1="39239.7" y1="31034.8" x2="47488.8" y2="2398.18" xlink:href="#M"><stop offset=".36" stop-color="#00272e"/><stop offset=".75" stop-color="#3f80a1" stop-opacity=".25"/><stop offset="1" stop-color="#69b9eb" stop-opacity="0"/></linearGradient><linearGradient id="C" x1="23255.1" y1="480.546" x2="23253.7" y2="1923.82" xlink:href="#M"><stop stop-color="#fff"/><stop offset=".01" stop-color="#67ddf9"/><stop offset=".12" stop-color="#5cb3ce"/><stop offset=".24" stop-color="#538ea9"/><stop offset=".37" stop-color="#4c718b"/><stop offset=".5" stop-color="#465a73"/><stop offset=".63" stop-color="#424a63"/><stop offset=".79" stop-color="#404059"/><stop offset=".99" stop-color="#3f3d56"/></linearGradient><linearGradient id="D" x1="177.457" y1="39.16" x2="182.911" y2="39.16" xlink:href="#M"><stop stop-color="#ecc4d7"/><stop offset=".42" stop-color="#efd4d1"/><stop offset="1" stop-color="#f2eac9"/></linearGradient><linearGradient id="E" x1="3799.12" y1="858.864" x2="3770.04" y2="1145.85" xlink:href="#M"><stop stop-color="#ecc4d7"/><stop offset=".42" stop-color="#efd4d1"/><stop offset="1" stop-color="#f2eac9"/></linearGradient><linearGradient id="F" x1="7858.72" y1="1772.24" x2="8373.48" y2="1772.24" xlink:href="#M"><stop stop-color="#ecc4d7"/><stop offset=".42" stop-color="#efd4d1"/><stop offset="1" stop-color="#f2eac9"/></linearGradient><linearGradient id="G" x1="12023.3" y1="1672.78" x2="12944.6" y2="1672.78" xlink:href="#M"><stop stop-color="#ecc4d7"/><stop offset=".42" stop-color="#efd4d1"/><stop offset="1" stop-color="#f2eac9"/></linearGradient><linearGradient id="H" x1="2944.71" y1="164.832" x2="2938.06" y2="74.029" xlink:href="#M"><stop stop-color="#ecc4d7"/><stop offset=".42" stop-color="#efd4d1"/><stop offset="1" stop-color="#f2eac9"/></linearGradient><linearGradient id="I" x1="1729.61" y1="-3148.78" x2="1397.25" y2="-3356.17" xlink:href="#M"><stop stop-color="#ecc4d7"/><stop offset=".42" stop-color="#efd4d1"/><stop offset="1" stop-color="#f2eac9"/></linearGradient><linearGradient id="J" x1="-1.346" y1="-466.784" x2="60.455" y2="-549.182" xlink:href="#M"><stop stop-color="#ecc4d7"/><stop offset=".42" stop-color="#efd4d1"/><stop offset="1" stop-color="#f2eac9"/></linearGradient><linearGradient id="K" x1="200.03" y1="57.724" x2="180.343" y2="46.371" xlink:href="#M"><stop/><stop offset=".98" stop-opacity="0"/></linearGradient><clipPath id="L"><path fill="#fff" d="M0 0h214v155H0z"/></clipPath><linearGradient id="M" gradientUnits="userSpaceOnUse"/></defs></svg>