<svg width="29" height="29" viewBox="0 0 29 29" fill="none" xmlns="http://www.w3.org/2000/svg">
<path d="M6.42701 17.5251L5.41756 21.2935L1.72805 21.3715C0.625426 19.3264 0 16.9865 0 14.5C0 12.0955 0.584758 9.82811 1.62128 7.83159H1.62207L4.90678 8.43379L6.34567 11.6988C6.04452 12.5768 5.88037 13.5193 5.88037 14.5C5.88049 15.5644 6.07329 16.5842 6.42701 17.5251Z" fill="#FBBB00"/>
<path d="M28.7472 11.7912C28.9137 12.6684 29.0006 13.5742 29.0006 14.5C29.0006 15.5381 28.8914 16.5507 28.6835 17.5275C27.9776 20.8513 26.1332 23.7537 23.5782 25.8076L23.5774 25.8068L19.4402 25.5957L18.8546 21.9404C20.55 20.9462 21.8749 19.3902 22.5729 17.5275H14.8193V11.7912H22.686H28.7472Z" fill="#518EF8"/>
<path d="M23.5773 25.8068L23.5781 25.8076C21.0932 27.8049 17.9366 29 14.5005 29C8.97852 29 4.1776 25.9136 1.72852 21.3716L6.42748 17.5251C7.65199 20.7932 10.8046 23.1196 14.5005 23.1196C16.0891 23.1196 17.5774 22.6901 18.8544 21.9404L23.5773 25.8068Z" fill="#28B446"/>
<path d="M23.7551 3.33817L19.0577 7.18384C17.736 6.35768 16.1737 5.88043 14.4998 5.88043C10.7202 5.88043 7.50872 8.31354 6.34554 11.6988L1.62189 7.83159H1.62109C4.03432 3.17884 8.89579 0 14.4998 0C18.018 0 21.2439 1.25323 23.7551 3.33817Z" fill="#F14336"/>
</svg>
