<svg xmlns="http://www.w3.org/2000/svg" xmlns:xlink="http://www.w3.org/1999/xlink" width="176" height="176" fill="none" xmlns:v="https://vecta.io/nano"><g clip-path="url(#G)"><g fill="#08f"><path opacity=".18" d="M16.338 170.796c-7.352 3.565 15.035 5.644 23.174 5.121l35.735-2.286c1.545-.097 5.645-.141 4.443-1.122-6.155-5.021-53.65-6.421-63.352-1.713zm147.04-34.352c-2.285 3.319-4.82 5.729-7.561 6.952-21.615 9.631-27.921-15.048-83.976 4.805a122.6 122.6 0 0 1-13.286 3.923c-31.809 7.345-46.027-5.358-50.487-15.68-1.813-4.188-2.019-7.975-1.141-9.891 3.319-7.207.295-18.956-6.023-52.625s21.615-44.837 43.335-50.126c13.92-3.388 20.701-8.042 23.775-10.949a37.04 37.04 0 0 1 12.414-7.85c31.249-11.681 46.425-1.181 65.05 13.71l13.039 10.296c24.383 18.433 20.606 84.558 4.861 107.436z"/></g><path opacity=".18" d="M163.38 136.444c-2.285 3.32-4.82 5.73-7.562 6.953-21.614 9.631-27.92-15.048-83.976 4.805-41.239 14.605-58.733-.1-63.774-11.758H163.38z" fill="#dbd9ff"/><path d="M158.374 43.141v80.739a5.93 5.93 0 0 1-.451 2.27 5.94 5.94 0 0 1-1.284 1.925c-.55.55-1.203.987-1.921 1.285a5.92 5.92 0 0 1-2.266.451H30.111c-.779.002-1.55-.15-2.27-.447s-1.375-.734-1.926-1.285a5.93 5.93 0 0 1-1.288-1.926 5.94 5.94 0 0 1-.453-2.273V43.141a5.94 5.94 0 0 1 1.737-4.192c1.111-1.111 2.616-1.736 4.186-1.736h122.356a5.91 5.91 0 0 1 2.265.45 5.92 5.92 0 0 1 1.921 1.285 5.93 5.93 0 0 1 1.736 4.193z" fill="#fff"/><path d="M46.805 151.817c-.245 1.58-9.392 18.247-9.392 18.247 2.674.484 3.647 2.433 3.647 2.433h-8.284l6.553-20.674s.28-9.882-1.424-15.237c-1.132-3.571-1.064-7.709-.884-10.071.086-1.182.195-1.914.195-1.914l12.225 5.535-2.636 21.681z" fill="#25233a"/><path d="M61.713 172.497H53.32v-.044l-1.515-21.732s-7.093-8.647-11.22-14.977-3.42-10.49-3.42-10.49h11.291c.572.23 1.344 2.475 1.842 3.6 2.102 4.773 6.872 14.646 7.29 16.524 1.341 5.981-.492 23.956-.492 23.956 2.553.242 4.617 3.163 4.617 3.163z" fill="#3f3d56"/><path d="M158.521 43.144V45.1h-134.2v-1.955a5.94 5.94 0 0 1 1.737-4.192c1.111-1.111 2.616-1.736 4.186-1.736h122.356c.777 0 1.547.153 2.266.45s1.371.734 1.921 1.285a5.93 5.93 0 0 1 1.735 4.193z" fill="#08f"/><path d="M31.078 41.579a1.26 1.26 0 0 1-.212.699c-.138.207-.334.368-.564.463s-.482.12-.726.072-.467-.168-.643-.344a1.26 1.26 0 0 1-.272-1.371 1.26 1.26 0 0 1 .462-.565c.207-.138.449-.212.698-.212a1.25 1.25 0 0 1 .481.095c.152.063.291.156.408.273s.209.256.272.409.095.317.095.482z" fill="url(#A)"/><path d="M34.689 41.579a1.26 1.26 0 0 1-.212.699c-.138.207-.334.368-.564.463s-.482.12-.726.072-.467-.168-.643-.344a1.26 1.26 0 0 1-.272-1.371 1.26 1.26 0 0 1 .463-.565c.206-.138.449-.212.698-.212a1.25 1.25 0 0 1 .481.095c.153.063.291.156.408.273s.209.256.272.409.095.317.095.482z" fill="url(#B)"/><path d="M38.297 41.579a1.26 1.26 0 0 1-.212.699c-.138.207-.334.368-.564.463s-.482.12-.726.072-.467-.168-.643-.344a1.26 1.26 0 0 1-.272-1.371 1.26 1.26 0 0 1 .462-.565c.207-.138.449-.212.698-.212a1.25 1.25 0 0 1 .481.095c.152.063.291.156.408.273s.209.256.272.409a1.26 1.26 0 0 1 .095.482z" fill="url(#C)"/><path d="M39.851 114.937l-2.748 4.929a9.68 9.68 0 0 1-1.038-.847c-2.137-1.97-6.486-7.36-2.288-15.887 0 0 1.931-5.272 3.016-7.528a3.41 3.41 0 0 1 .59-.986c.654-.446 2.467 20.32 2.467 20.32z" fill="#08f"/><path d="M52.313 85.566c1.275-.889.884-3.661-.874-6.191s-4.216-3.862-5.491-2.973-.884 3.661.874 6.191 4.216 3.862 5.491 2.973z" stroke="#007189" stroke-width="3.29" stroke-miterlimit="10"/><path d="M52.029 86.04l1.692 2.345.89-.668-1.713-2.197-.87.52z" fill="#007189"/><path d="M53.548 85.942l-1.275 1.073 4.953 5.907 1.275-1.073-4.953-5.907z" fill="#091240"/><path d="M46.445 77.472l1.418 3.659c.171.487 1.129.797 1.268 1.273.271.939-.448 1.234-.483 1.772-.121 1.825.545 3.813-2.52 4.929-2.718.989-1.621 5.434-1.621 5.434s-3.482 1.542-5.012-.405c0 0 .569-5.842-1.86-10.872s4.154-10.579 8.811-5.792z" fill="url(#D)"/><path d="M39.064 93.297l.295-1.441s4.82.266 5.306.721c.331.335.605.722.811 1.146l-6.412-.425z" fill="#25233a"/><path d="M48.456 125.375h-8.667-1.562c-1.592-.051-2.252-.337-2.211-1.911.077-2.874 0-22.704.769-27.172.469-2.75 2.482-3.281 2.927-3.367h.068s3.048.263 4.313.245c1.347-.021 2.995 1.958 2.995 1.958l1.987 7.537 1.156 4.103c.566 1.81 1.212 10.154 1.554 15.036a3.36 3.36 0 0 1-.188 1.346 3.35 3.35 0 0 1-.706 1.16 3.34 3.34 0 0 1-1.108.785 3.35 3.35 0 0 1-1.327.28z" fill="#08f"/><path opacity=".61" d="M48.456 125.375h-2.948l-1.179-24.036 4.761 1.312 1.156 4.102c.566 1.811 1.212 10.154 1.554 15.036a3.36 3.36 0 0 1-.893 2.522 3.35 3.35 0 0 1-1.115.787c-.422.183-.876.277-1.336.277z" fill="url(#E)"/><path d="M46.445 77.472l-1.141-.124c-.02.361-.122.712-.299 1.027a2.36 2.36 0 0 1-.721.789c-.142-.23-.347-.414-.59-.532-.419.487.071 1.211.08 1.849a3.26 3.26 0 0 1-.183.886c-.169.64-.199 1.309-.088 1.961-.43-.032-.634-.611-1.052-.697s-.699.295-.802.659c-.052.221-.059.449-.02.672a1.69 1.69 0 0 0 .244.627c.122.191.282.354.469.482s.398.216.62.26c.097.015.212.03.265.112.029.058.04.124.029.189-.011.823-.156 1.64-.43 2.416a3.21 3.21 0 0 1-1.601 1.79c-.516.227-1.238.21-1.521-.295.044.263-.274.472-.537.416a1.06 1.06 0 0 1-.59-.496c-.825-1.205-1.038-2.708-1.521-4.088-.422-1.205-1.058-2.324-1.548-3.506s-.843-2.466-.651-3.727c.154-.912.576-1.757 1.213-2.427a4.63 4.63 0 0 1 2.36-1.333c.338-.043.67-.124.99-.242a9.22 9.22 0 0 0 .802-.517 4.38 4.38 0 0 1 1.769-.443 10.42 10.42 0 0 1 1.919.038c2.358.18 2.267 2.431 2.438 2.915.012.112.236 1.353.097 1.338z" fill="#3f3d56"/><path d="M54.281 86.427c.012-.227.067-.45.162-.656a.59.59 0 0 1 .545-.337c.295.032.46.316.59.57l.56 1.084c.428-.198.914.145 1.179.538s.416.868.79 1.149c.117.071.222.16.313.263a.85.85 0 0 1 .086.564l-.062.762c-.038.496-.1 1.043-.46 1.391a2.11 2.11 0 0 1-1.179.443 3.48 3.48 0 0 1-1.132.044c-.518-.137-.993-.4-1.386-.765-.569-.461-2.123-1.967-1.105-2.567.395-.233.61.035.884-.425s.168-1.542.215-2.059z" fill="url(#F)"/><path d="M58.252 102.58c-.802 3.544-3.296 5.611-5.811 6.046a5.29 5.29 0 0 1-3.349-.47c-3.184-1.648-6.583-10.314-6.412-13.054.083-1.311.643-1.923 1.421-1.937.849-.021 1.96.673 2.995 1.949s1.887 2.992 2.747 4.271c.3.477.663.913 1.079 1.294.248.228.554.385.884.452.221.024.445.002.656-.066a1.59 1.59 0 0 0 .573-.327c2.358-1.828 1.409-8.988 1.409-8.988l1.218-.071 2.494-.148s1.265 5.845.094 11.049z" fill="#08f"/><g fill="#fff"><path opacity=".24" d="M37.864 124.908a3.77 3.77 0 0 1 .372.455c-1.592-.047-2.252-.334-2.211-1.908.077-2.874 0-22.703.769-27.172.469-2.75 2.482-3.281 2.927-3.367h.068a9.12 9.12 0 0 0-1.925 4.401c-.342 2.593-.819 26.74 0 27.591zm14.578-16.282a5.29 5.29 0 0 1-3.349-.47c-3.184-1.648-6.583-10.314-6.412-13.054.083-1.311.643-1.923 1.421-1.937 0 .295-1.276 3.497 2.568 10.302 2.594 4.595 5.091 4.787 5.772 5.16z"/><path d="M50.923 100.678a2.98 2.98 0 0 1-1.079-1.294 6.33 6.33 0 0 0 1.079 1.294z"/><path opacity=".24" d="M51.811 101.142c.221.024.445.002.656-.066a1.59 1.59 0 0 0 .573-.327c2.358-1.828 1.409-8.988 1.409-8.988l1.218-.071s1.197 11.324-3.856 9.452zm-18.59 9.155c-.613 3.899 2.857 7.407 2.857 7.407v1.306c-2.137-1.97-6.486-7.36-2.288-15.887 0 0 1.931-5.272 3.016-7.528v.682s-2.969 10.13-3.585 14.02zm20.485 62.2c.012.309.055.616.13.916l-.486-.916-.024-.044-1.515-21.732s-7.093-8.647-11.22-14.977-3.42-10.49-3.42-10.49h.822c.086.03.169.067.251.109 0 0 .817 7.463 13.623 23.509 0 0 2.524 2.328 1.943 11.15-.525 7.829-.215 11.117-.103 12.475z"/><path opacity=".24" d="M40.617 152.638l-6.827 19.859h-1.014l6.553-20.674s.28-9.882-1.424-15.237c-1.132-3.571-1.064-7.709-.884-10.071l1.221 4.725c.225 2.601.744 5.167 1.548 7.65 1.282 3.762.828 13.748.828 13.748z"/></g><path d="M64.522 61.137H54.466a1.99 1.99 0 0 0-1.988 1.988v10.054a1.99 1.99 0 0 0 1.988 1.988h10.055a1.99 1.99 0 0 0 1.988-1.988V63.125a1.99 1.99 0 0 0-1.988-1.988z" fill="#ebebf0"/><path opacity=".38" d="M66.508 71.312v1.865a1.99 1.99 0 0 1-.582 1.406 1.99 1.99 0 0 1-.645.431c-.241.1-.5.151-.761.151H54.462c-.261 0-.52-.051-.761-.151s-.46-.246-.645-.431a1.99 1.99 0 0 1-.582-1.406v-1.865c1.674-1.115 3.571-1.852 5.559-2.158-.575-.323-1.027-.828-1.283-1.436s-.304-1.284-.134-1.921.547-1.2 1.072-1.6 1.168-.614 1.828-.608 1.299.231 1.817.64.885.978 1.043 1.619.1 1.315-.168 1.918-.727 1.1-1.308 1.413c2.973.478 5.609 2.133 5.609 2.133z" fill="#d8d8d8"/><g fill="#ebebf0"><path d="M109.955 63.59H72.031a.63.63 0 0 1-.629-.629.63.63 0 0 1 .629-.629h37.924c.167 0 .327.066.444.184a.63.63 0 0 1 0 .889c-.117.118-.277.184-.444.184zm0 4.041H72.031a.63.63 0 0 1-.629-.629.63.63 0 0 1 .629-.628h37.924c.167 0 .327.066.444.184a.63.63 0 0 1 0 .889c-.117.118-.277.184-.444.184zm0 4.044H72.031a.63.63 0 0 1-.629-.628.63.63 0 0 1 .629-.629h37.924c.167 0 .327.066.444.184a.63.63 0 0 1 0 .889c-.117.118-.277.184-.444.184z"/></g><path d="M139.011 79.744H91.816c-1.702 0-3.082 1.306-3.082 2.917v11.001c0 1.611 1.38 2.917 3.082 2.917h47.195c1.702 0 3.081-1.306 3.081-2.917V82.661c0-1.611-1.379-2.917-3.081-2.917z" fill="#08f"/><g fill="#ebebf0"><use xlink:href="#H"/><path d="M134.657 88.881H96.733a.63.63 0 0 1-.629-.629.63.63 0 0 1 .629-.629h37.924a.63.63 0 0 1 .628.629.63.63 0 0 1-.628.629zm0 4.044H96.733a.63.63 0 0 1-.629-.629.63.63 0 0 1 .629-.628h37.924a.63.63 0 0 1 .628.628.63.63 0 0 1-.628.629z"/></g><path d="M90.472 111.05H58.401c-1.157 0-2.094.938-2.094 2.094v7.897c0 1.157.938 2.094 2.094 2.094h32.072c1.157 0 2.094-.937 2.094-2.094v-7.897c0-1.156-.938-2.094-2.094-2.094z" fill="#d8d8d8"/><path d="M65.069 113.267h-5.486c-.599 0-1.085.485-1.085 1.084v5.486c0 .599.486 1.084 1.085 1.084h5.486c.599 0 1.085-.485 1.085-1.084v-5.486c0-.599-.486-1.084-1.085-1.084z" fill="#ebebf0"/><path opacity=".38" d="M66.152 118.818v1.018a1.09 1.09 0 0 1-.083.415c-.055.131-.134.251-.235.352s-.22.18-.352.235-.273.082-.415.082H59.58c-.142 0-.283-.028-.415-.082s-.251-.135-.352-.235-.181-.221-.235-.352a1.09 1.09 0 0 1-.083-.415v-1.018c.913-.608 1.948-1.01 3.033-1.177a1.62 1.62 0 0 1-.773-1.831 1.62 1.62 0 0 1 .585-.873c.286-.218.637-.335.997-.332a1.62 1.62 0 0 1 .991.349c.282.223.483.534.569.883a1.62 1.62 0 0 1-.091 1.047c-.146.329-.397.6-.714.771 1.622.26 3.06 1.163 3.06 1.163z" fill="#d8d8d8"/><g fill="#ebebf0"><use xlink:href="#I"/><path d="M89.856 116.81H69.165c-.091 0-.178-.036-.242-.1s-.1-.152-.1-.243a.34.34 0 0 1 .343-.343h20.691a.34.34 0 0 1 .343.343c0 .091-.036.178-.1.243a.34.34 0 0 1-.243.1zm0 2.206H69.165c-.091 0-.178-.036-.242-.1s-.1-.152-.1-.243a.34.34 0 0 1 .343-.343h20.691a.34.34 0 0 1 .343.343c0 .091-.036.178-.1.243a.34.34 0 0 1-.243.1z"/></g><path d="M139.998 103.371h-32.072c-1.156 0-2.094.938-2.094 2.094v7.898c0 1.156.938 2.094 2.094 2.094h32.072c1.157 0 2.094-.938 2.094-2.094v-7.898c0-1.156-.937-2.094-2.094-2.094z" fill="#d8d8d8"/><path d="M114.594 105.588h-5.485c-.6 0-1.085.485-1.085 1.084v5.486c0 .599.485 1.084 1.085 1.084h5.485c.599 0 1.085-.485 1.085-1.084v-5.486c0-.599-.486-1.084-1.085-1.084z" fill="#ebebf0"/><path opacity=".38" d="M115.678 111.139v1.018c0 .142-.028.283-.082.415a1.1 1.1 0 0 1-.236.352 1.09 1.09 0 0 1-.767.317h-5.487c-.142 0-.283-.028-.415-.082s-.251-.135-.352-.235-.18-.221-.235-.352-.083-.273-.083-.415v-1.018c.914-.608 1.949-1.01 3.033-1.177a1.62 1.62 0 0 1-.773-1.832 1.62 1.62 0 0 1 .585-.872c.286-.219.637-.335.997-.332a1.62 1.62 0 0 1 1.56 1.232c.087.349.054.718-.091 1.047s-.397.6-.714.771c1.622.26 3.06 1.163 3.06 1.163z" fill="#d8d8d8"/><g fill="#ebebf0"><use xlink:href="#J"/><path d="M139.382 109.131h-20.691c-.091 0-.178-.036-.242-.1s-.101-.152-.101-.243.037-.178.101-.242a.34.34 0 0 1 .242-.101h20.691a.34.34 0 0 1 .343.343c0 .091-.036.178-.101.243a.34.34 0 0 1-.242.1zm0 2.206h-20.691c-.091 0-.178-.036-.242-.1s-.101-.152-.101-.243.037-.178.101-.242a.34.34 0 0 1 .242-.101h20.691a.34.34 0 0 1 .343.343c0 .091-.036.178-.101.243a.34.34 0 0 1-.242.1z"/></g></g><defs><linearGradient id="A" x1="29.733" y1="37.521" x2="30.556" y2="74.268" xlink:href="#K"><stop stop-color="#68e1fd"/><stop offset=".01" stop-color="#67ddf9"/><stop offset=".12" stop-color="#5cb3ce"/><stop offset=".24" stop-color="#538ea9"/><stop offset=".37" stop-color="#4c718b"/><stop offset=".5" stop-color="#465a73"/><stop offset=".63" stop-color="#424a63"/><stop offset=".79" stop-color="#404059"/><stop offset=".99" stop-color="#3f3d56"/></linearGradient><linearGradient id="B" x1="582.536" y1="360.704" x2="589.544" y2="673.79" xlink:href="#K"><stop stop-color="#68e1fd"/><stop offset=".01" stop-color="#67ddf9"/><stop offset=".12" stop-color="#5cb3ce"/><stop offset=".24" stop-color="#538ea9"/><stop offset=".37" stop-color="#4c718b"/><stop offset=".5" stop-color="#465a73"/><stop offset=".63" stop-color="#424a63"/><stop offset=".79" stop-color="#404059"/><stop offset=".99" stop-color="#3f3d56"/></linearGradient><linearGradient id="C" x1="616.889" y1="360.025" x2="623.897" y2="673.11" xlink:href="#K"><stop stop-color="#68e1fd"/><stop offset=".01" stop-color="#67ddf9"/><stop offset=".12" stop-color="#5cb3ce"/><stop offset=".24" stop-color="#538ea9"/><stop offset=".37" stop-color="#4c718b"/><stop offset=".5" stop-color="#465a73"/><stop offset=".63" stop-color="#424a63"/><stop offset=".79" stop-color="#404059"/><stop offset=".99" stop-color="#3f3d56"/></linearGradient><linearGradient id="D" x1="37.103" y1="85.376" x2="49.193" y2="85.376" xlink:href="#K"><stop stop-color="#ecc4d7"/><stop offset=".42" stop-color="#efd4d1"/><stop offset="1" stop-color="#f2eac9"/></linearGradient><linearGradient id="E" x1="60.958" y1="119.559" x2="32.64" y2="108.107" xlink:href="#K"><stop offset=".17" stop-color="#00272e"/><stop offset="1" stop-color="#69b9eb" stop-opacity="0"/></linearGradient><linearGradient id="F" x1="2491.2" y1="722.459" x2="2599" y2="708.33" xlink:href="#K"><stop stop-color="#ecc4d7"/><stop offset=".42" stop-color="#efd4d1"/><stop offset="1" stop-color="#f2eac9"/></linearGradient><clipPath id="G"><path fill="#fff" d="M0 0h176v176H0z"/></clipPath><path id="H" d="M134.657 84.84H96.733a.63.63 0 0 1-.629-.629.63.63 0 0 1 .629-.629h37.924a.63.63 0 0 1 .628.629.63.63 0 0 1-.628.629z"/><path id="I" d="M89.856 114.605H69.165c-.091 0-.178-.036-.242-.1s-.1-.152-.1-.243a.34.34 0 0 1 .343-.343h20.691a.34.34 0 0 1 .343.343c0 .091-.036.178-.1.243s-.151.1-.243.1z"/><path id="J" d="M139.382 106.926h-20.691c-.091 0-.178-.036-.242-.1s-.101-.152-.101-.243.037-.178.101-.242a.34.34 0 0 1 .242-.101h20.691a.34.34 0 0 1 .343.343c0 .091-.036.178-.101.243s-.151.1-.242.1z"/><linearGradient id="K" gradientUnits="userSpaceOnUse"/></defs></svg>