<svg width="34" height="34" viewBox="0 0 34 34" fill="none" xmlns="http://www.w3.org/2000/svg">
<path d="M0 17C0 7.61118 7.61118 0 17 0C26.3888 0 34 7.61118 34 17C34 26.3888 26.3888 34 17 34C7.61118 34 0 26.3888 0 17Z" fill="#0077B5"/>
<path fill-rule="evenodd" clip-rule="evenodd" d="M12.2677 10.4994C12.2677 11.6109 11.4311 12.5002 10.0878 12.5002H10.0631C8.76978 12.5002 7.93359 11.6109 7.93359 10.4994C7.93359 9.36445 8.79521 8.5 10.1131 8.5C11.4311 8.5 12.2427 9.36445 12.2677 10.4994ZM12.0139 14.0801V25.6556H8.16139V14.0801H12.0139ZM25.9077 25.6556L25.9078 19.0185C25.9078 15.4631 24.0072 13.8083 21.472 13.8083C19.4266 13.8083 18.5108 14.9318 17.9995 15.72V14.0805H14.1465C14.1972 15.1666 14.1465 25.6558 14.1465 25.6558H17.9995V19.1912C17.9995 18.8452 18.0245 18.5001 18.1264 18.2524C18.4048 17.5613 19.0388 16.8457 20.1031 16.8457C21.4978 16.8457 22.0553 17.9072 22.0553 19.4627V25.6556H25.9077Z" fill="white"/>
</svg>
