<svg width="144" height="139" viewBox="0 0 144 139" fill="none" xmlns="http://www.w3.org/2000/svg">
<path d="M137.767 101.063C148.11 82.552 143.944 57.9246 125.535 43.5789C115.456 35.7355 102.228 33.2158 92.3323 25.027C81.2174 15.8222 70.2245 4.64635 55.7162 1.15136C40.2936 -2.56714 23.3063 2.9395 12.5775 14.5217C-0.508327 28.6033 0.812454 48.415 6.66452 65.6664C21.5182 109.394 79.9373 143.938 122.731 116.811C129.334 112.625 134.353 107.179 137.767 101.063Z" fill="#CCE9FF"/>
<path d="M139.007 36.3448C139.007 37.5437 138.093 38.4987 136.955 38.4987H135.573V43.538L130.757 38.4987H114.949C113.811 38.4987 112.896 37.5437 112.896 36.3448V18.3619C112.896 17.163 113.811 16.208 114.949 16.208H136.934C138.072 16.208 138.987 17.1834 138.987 18.3619V36.3448H139.007Z" fill="#4598E6" fill-opacity="0.5"/>
<path d="M103.285 45.1842C103.285 46.383 104.199 47.3381 105.337 47.3381H106.719V52.3773L111.535 47.3381H127.343C128.481 47.3381 129.396 46.383 129.396 45.1842V27.2013C129.396 26.0024 128.481 25.0474 127.343 25.0474H105.337C104.199 25.0474 103.285 26.0227 103.285 27.2013V45.1842Z" fill="#2A94F4"/>
<path d="M89.4878 84.0759L92.0481 82.2065L92.3122 81.8408L91.8449 81.3125L91.2353 81.475L91.0727 79.7275L88.0654 79.6463L86.4805 79.1992L88.5937 83.6695L89.4878 84.0759Z" fill="#FFE3CA"/>
<path d="M94.7708 65.9507L86.5007 78.9756C86.5007 78.9756 87.1306 80.6215 87.8012 79.6055C87.8825 79.4836 87.3338 79.2195 87.9028 78.8131C90.1786 77.1875 94.2019 74.3224 96.051 72.0466C98.4893 69.0596 98.5909 65.0566 98.5909 65.0566L94.7708 65.9507Z" fill="#FFE3CA"/>
<path d="M91.1538 77.716L88.1465 75.745L90.4426 72.6157L93.4499 74.5664L91.1538 77.716Z" fill="white"/>
<path d="M85.6471 50.8937L94.1407 62.0085L88.7357 74.4848C88.7357 74.4848 92.3119 77.8172 93.0841 76.9841C99.4035 70.1974 101.598 61.5818 101.598 61.5818L90.727 43.8224C90.727 43.8224 89.4875 41.0183 87.0085 41.4856C82.0099 42.4204 85.0375 49.6948 85.6471 50.8937Z" fill="#0E538C"/>
<path d="M66.4249 137.761C66.2217 138.004 66.3436 138.655 66.3436 138.655C66.3436 138.655 69.8793 139.122 71.0375 138.899C71.3423 138.838 71.8503 138.594 72.3176 138.33C72.3989 138.289 72.5411 138.025 72.6224 137.964C72.7647 137.883 72.8459 138.025 72.9679 137.943C73.293 137.761 73.5165 137.598 73.5165 137.578C73.8619 135.972 73.4759 135.302 73.4759 135.302C73.4759 135.302 70.4889 134.225 69.8996 134.916C68.5179 136.541 66.872 137.232 66.4249 137.761Z" fill="#0B4870"/>
<path d="M84.9158 135.769L85.2612 138.411L87.9637 138.553C87.9637 138.553 88.1263 138.187 88.3701 138.208C88.553 138.228 88.7765 138.594 89.0407 138.614C89.6096 138.655 90.2395 138.675 90.4834 138.695C90.9914 138.716 95.8884 139 95.8884 139C95.8884 139 96.051 138.452 95.9087 138.248C95.8478 138.147 95.4007 137.944 95.0959 137.842C93.7345 137.375 89.8128 135.932 89.2032 134.591C88.4717 132.965 84.9158 135.769 84.9158 135.769Z" fill="#0B4870"/>
<path d="M79.2468 70.035L69.5339 69.8115C69.5339 69.8115 68.1319 75.7246 68.01 80.7232C67.8271 87.8351 67.7052 94.8657 67.8474 99.2344C67.6849 99.9253 67.6239 100.636 67.6645 101.327C67.9693 106.59 69.2901 134.53 69.2901 134.53C69.2901 134.53 73.4963 135.017 73.5572 134.509C74.5529 126.138 75.7518 112.625 75.7721 107.484C75.7924 105.879 75.8534 104.274 75.9347 102.77C76.6052 100.189 79.2468 70.035 79.2468 70.035Z" fill="#0B4870"/>
<path d="M90.5647 135.465L87.4964 104.579C87.4964 104.558 87.5167 104.558 87.5167 104.558L86.3382 74.0178L73.3132 73.144C73.3132 73.144 74.126 75.0135 75.8735 83.06C75.8735 83.06 77.9664 99.3564 80.1813 107.769C80.2219 107.952 80.2829 108.094 80.3235 108.256C80.9738 116.648 84.6516 136.968 84.6516 136.968L90.5647 135.465Z" fill="#0B4870"/>
<path d="M51.2665 52.885C51.2665 52.885 47.3244 49.7761 41.6959 43.3347C39.7858 41.1605 40.7205 43.5176 41.0457 46.2405C41.3708 48.9633 46.6742 54.3683 52.4856 55.8923C58.2971 57.4163 51.2665 52.885 51.2665 52.885Z" fill="#FFE3CA"/>
<path d="M42.1428 45.0414C42.1428 45.0414 43.0369 42.1153 42.5696 41.3838C42.1022 40.6523 40.2125 38.1124 40.2125 38.1124L39.6639 37.5028C39.6639 37.5028 38.6885 37.7466 39.9686 39.4535C41.2488 41.1603 40.1922 40.6726 40.1922 40.6726L38.465 39.5957L36.2298 38.4375L35.3154 37.7873C35.3154 37.7873 34.8278 37.3809 34.6246 37.3809C34.0556 37.4012 34.2791 37.8482 34.2791 37.8482L37.6725 40.6726L33.8727 38.9455C33.8727 38.9455 33.3444 38.8032 33.1819 39.0471C33.0193 39.2706 33.1819 39.3519 33.1819 39.3519L37.0426 42.3592L34.97 41.6886C34.97 41.6886 34.462 41.5667 34.2791 41.7902C34.0963 42.0341 34.0353 42.095 34.0353 42.095L41.6349 45.7729L42.1428 45.0414Z" fill="#FFE3CA"/>
<path d="M42.021 48.923L40.1516 46.4847L43.3012 44.2495L45.1706 46.6879L42.021 48.923Z" fill="white"/>
<path d="M74.8372 45.2247C74.8372 45.2247 75.3452 47.5209 66.6077 56.7866C61.731 61.9682 59.0285 64.4675 56.6105 63.3092C51.6728 60.9522 40.0093 49.9186 40.0093 49.9186L44.5812 44.7167C44.5812 44.7167 55.6351 53.5964 57.342 54.5311C58.0532 54.9172 62.4625 48.6181 66.9532 42.2377C67.766 41.0592 74.2479 44.5948 74.8372 45.2247Z" fill="#0E538C"/>
<path d="M67.563 43.1521L74.0043 39.7181L78.8404 38.6411L81.5633 40.0838C81.5633 40.0838 87.2324 43.335 87.8014 43.335C88.3703 43.335 87.6185 73.6519 87.6185 73.6519L73.0899 74.1396L67.8068 74.5663L67.563 43.1521Z" fill="white"/>
<path d="M71.891 83.2839L71.7691 46.0379L73.8417 39.9014C71.1798 40.2265 68.4976 40.4906 66.5875 42.8274L66.1812 79.7076L71.891 83.2839Z" fill="#0E538C"/>
<path d="M80.1001 39.7183L82.2946 43.7416L81.8679 68.9989L83.6154 83.5275L89.1017 81.3736L90.0974 47.1146L88.3905 41.4454L80.1001 39.7183Z" fill="#0E538C"/>
<path d="M70.9969 61.9074L68.7821 47.2366L70.2654 46.1596L68.6602 44.8592L70.0622 40.6124L74.0246 39.3525L72.2567 46.0377L71.383 69.7305L70.9969 61.9074Z" fill="#0B4870"/>
<path d="M74.2885 42.563C74.2885 42.563 72.0737 52.2148 74.0244 69.9336C74.1463 71.0715 75.6703 71.7014 75.6703 71.7014L77.1536 69.8726C77.1536 69.8726 75.589 54.6329 75.4061 43.5587C75.3655 42.1769 74.2276 43.8838 74.2885 42.563Z" fill="#4598E6"/>
<path d="M75.0811 41.4655L76.7473 43.66L80.2016 39.9009V39.271L75.0811 41.4655Z" fill="#F2F2F2"/>
<path d="M74.1057 39.0884L72.8662 43.8229L74.5121 41.8519L74.1057 39.0884Z" fill="#F2F2F2"/>
<path d="M80.7501 36.2026C80.5876 36.9951 80.2828 38.6613 79.9577 39.3725C79.4497 40.4698 74.959 41.4451 74.2885 41.6077C73.5976 41.7702 74.451 38.2956 74.451 37.5031C74.451 36.8935 74.8574 37.0967 74.3698 36.223H80.7501V36.2026Z" fill="#FCD2B1"/>
<path d="M73.11 34.4552C72.9881 35.1258 73.4758 35.776 74.1869 35.8776L79.9577 36.7717C80.6689 36.8732 81.3395 36.4262 81.4411 35.7353L82.8025 27.5668C82.9244 26.8963 82.4367 26.2461 81.7256 26.1445L75.9548 25.2707C75.2436 25.1691 74.573 25.6161 74.4714 26.307L73.11 34.4552Z" fill="#FFE3CA"/>
<path d="M74.1871 28.3597C74.1871 28.3597 73.5369 27.4453 73.4759 26.9373C73.4353 26.6732 73.8417 25.7994 74.5529 25.5353C75.2641 25.2711 75.6705 26.0229 75.6705 26.0229C75.6705 26.0229 74.5529 26.409 74.4716 26.6122C74.3903 26.8154 74.1871 28.3597 74.1871 28.3597Z" fill="#EEA886"/>
<path d="M82.7821 31.3264C82.7821 31.3264 84.1841 28.3191 84.1841 27.3844C84.1841 26.4293 84.1841 25.7791 83.0259 25.4946C81.2987 25.0679 81.2175 25.4337 80.4453 24.7834C79.6732 24.1535 78.3524 22.6702 77.8444 22.467C76.991 22.1216 75.5686 22.2028 75.2435 23.7674C74.9996 24.9257 74.1868 25.0882 74.2072 25.1492C74.2478 25.2914 74.5526 25.4946 75.0606 25.8401C76.5439 26.856 77.4786 27.1608 78.7588 27.0389C80.0389 26.917 82.4366 26.6122 82.5585 27.5266C82.6805 28.441 82.1318 31.0825 82.1928 31.2857C82.2538 31.5092 82.5586 31.4483 82.7821 31.3264Z" fill="#EEA886"/>
<path d="M80.5675 33.5005C80.5269 33.724 80.6894 33.9475 80.9333 33.9678L82.1728 34.1507C82.4166 34.1914 82.6401 34.0288 82.6604 33.8053L83.0262 31.6311C83.0668 31.4076 82.9043 31.1841 82.6604 31.1637L81.4209 30.9809C81.1771 30.9402 80.9536 31.1028 80.9333 31.3263L80.5675 33.5005Z" fill="#FFE3CA"/>
<path d="M73.1302 32.3623C73.0896 32.5858 73.2522 32.8093 73.496 32.8297L74.7355 33.0125C74.9793 33.0532 75.2029 32.8906 75.2232 32.6671L75.5889 30.4929C75.6296 30.2694 75.467 30.0459 75.2232 30.0255L73.9837 29.8427C73.7398 29.802 73.5366 29.9646 73.496 30.1881L73.1302 32.3623Z" fill="#FFE3CA"/>
<path d="M82.1117 31.9561C82.1117 31.9561 81.5631 35.1666 81.4005 36.2435C81.2379 37.2189 80.4658 39.2711 74.7356 38.3974C71.3423 37.8894 71.8706 35.512 71.9925 34.7399C72.0941 34.1506 73.0897 32.464 73.5165 32.1796C73.5368 32.1796 73.2929 33.5004 73.2929 33.5004C73.2929 33.5004 74.2073 32.3218 75.8329 32.5656C78.4338 32.972 78.7793 34.5163 79.9375 34.6586C80.8316 34.7805 81.7256 33.5004 82.1117 31.9561Z" fill="#EEA886"/>
<path d="M76.5441 34.8411L74.756 34.5769C74.5122 34.5363 74.3496 34.3331 74.3903 34.1096L74.4309 33.8657L77.0725 34.2721L77.0318 34.516C77.0115 34.7192 76.788 34.8817 76.5441 34.8411Z" fill="#FFE3CA"/>
<path d="M74.2681 41.6076L75.0809 41.4653L75.6295 43.3144L74.5526 43.9037L73.7195 43.6395L74.2681 41.6076Z" fill="#4598E6"/>
<path d="M80.0592 38.9663C79.8763 39.5149 82.0708 43.9853 82.0708 43.9853L81.8879 67.4545L85.83 47.4803L84.5905 45.936L85.9519 44.6355L83.4729 39.9823L80.0592 38.9663Z" fill="#0B4870"/>
<path d="M16.9262 14.9487L15.0365 24.4583L13.1467 33.968C13.1467 33.968 23.9365 30.5949 36.2096 33.0129L37.0427 28.8271L37.8758 24.6006C25.623 22.1825 16.9262 14.9487 16.9262 14.9487Z" fill="#F2F2F2"/>
<path d="M34.5037 43.4161L33.4268 42.9081L38.3238 32.5044L41.067 33.8049L36.9014 42.6236C36.4544 43.5989 35.479 43.8834 34.5037 43.4161Z" fill="#4598E6"/>
<path d="M41.066 32.5044H40.9441V43.8834H41.066V32.5044Z" fill="#4598E6"/>
<path d="M40.9442 32.5044H40.8223V43.8834H40.9442V32.5044Z" fill="#4598E6"/>
<path d="M40.8221 32.5044H40.7002V43.8834H40.8221V32.5044Z" fill="#4598E6"/>
<path d="M40.7206 32.5044H40.5986V43.8834H40.7206V32.5044Z" fill="#4598E6"/>
<path d="M40.5987 32.5044H40.4768V43.8834H40.5987V32.5044Z" fill="#4598E6"/>
<path d="M40.4767 32.5044H40.3547V43.8834H40.4767V32.5044Z" fill="#4598E6"/>
<path d="M40.3548 32.5044H40.2329V43.8834H40.3548V32.5044Z" fill="#4598E6"/>
<path d="M40.2328 32.5044H40.1108V43.8834H40.2328V32.5044Z" fill="#4598E6"/>
<path d="M40.1312 32.5044H40.0093V43.8834H40.1312V32.5044Z" fill="#4598E6"/>
<path d="M40.0094 32.5044H39.8875V43.8834H40.0094V32.5044Z" fill="#4598E6"/>
<path d="M39.8873 32.5044H39.7654V43.8834H39.8873V32.5044Z" fill="#4598E6"/>
<path d="M39.7655 32.5044H39.6436V43.8834H39.7655V32.5044Z" fill="#4598E6"/>
<path d="M39.6639 32.5044H39.542V43.8834H39.6639V32.5044Z" fill="#4598E6"/>
<path d="M39.5418 32.5044H39.4199V43.8834H39.5418V32.5044Z" fill="#4598E6"/>
<path d="M39.42 32.5044H39.2981V43.8834H39.42V32.5044Z" fill="#4598E6"/>
<path d="M39.2982 32.5044H39.1763V43.8834H39.2982V32.5044Z" fill="#4598E6"/>
<path d="M39.1761 32.5044H39.0542V43.8834H39.1761V32.5044Z" fill="#4598E6"/>
<path d="M39.0745 32.5044H38.9526V43.8834H39.0745V32.5044Z" fill="#4598E6"/>
<path d="M38.9527 32.5044H38.8308V43.8834H38.9527V32.5044Z" fill="#4598E6"/>
<path d="M38.8307 32.5044H38.7087V43.8834H38.8307V32.5044Z" fill="#4598E6"/>
<path d="M38.7091 32.5044H38.5872V43.8834H38.7091V32.5044Z" fill="#4598E6"/>
<path d="M38.6073 32.5044H38.4854V43.8834H38.6073V32.5044Z" fill="#4598E6"/>
<path d="M38.4852 32.5044H38.3633V43.8834H38.4852V32.5044Z" fill="#4598E6"/>
<path d="M38.3636 32.5044H38.2417V43.8834H38.3636V32.5044Z" fill="#4598E6"/>
<path d="M38.2413 32.5044H38.1194V43.8834H38.2413V32.5044Z" fill="#4598E6"/>
<path d="M38.1197 32.5044H37.9978V43.8834H38.1197V32.5044Z" fill="#4598E6"/>
<path d="M38.0182 32.5044H37.8962V43.8834H38.0182V32.5044Z" fill="#4598E6"/>
<path d="M37.8958 32.5044H37.7739V43.8834H37.8958V32.5044Z" fill="#4598E6"/>
<path d="M37.7743 32.5044H37.6523V43.8834H37.7743V32.5044Z" fill="#4598E6"/>
<path d="M37.6522 32.5044H37.5303V43.8834H37.6522V32.5044Z" fill="#4598E6"/>
<path d="M37.5304 32.5044H37.4084V43.8834H37.5304V32.5044Z" fill="#4598E6"/>
<path d="M37.4288 32.5044H37.3069V43.8834H37.4288V32.5044Z" fill="#4598E6"/>
<path d="M37.307 32.5044H37.1851V43.8834H37.307V32.5044Z" fill="#4598E6"/>
<path d="M37.1849 32.5044H37.063V43.8834H37.1849V32.5044Z" fill="#4598E6"/>
<path d="M37.0631 32.5044H36.9412V43.8834H37.0631V32.5044Z" fill="#4598E6"/>
<path d="M36.941 32.5044H36.8191V43.8834H36.941V32.5044Z" fill="#4598E6"/>
<path d="M36.8394 32.5044H36.7175V43.8834H36.8394V32.5044Z" fill="#4598E6"/>
<path d="M36.7176 32.5044H36.5957V43.8834H36.7176V32.5044Z" fill="#4598E6"/>
<path d="M36.5956 32.5044H36.4736V43.8834H36.5956V32.5044Z" fill="#4598E6"/>
<path d="M36.4737 32.5044H36.3518V43.8834H36.4737V32.5044Z" fill="#4598E6"/>
<path d="M36.3517 32.5044H36.2297V43.8834H36.3517V32.5044Z" fill="#4598E6"/>
<path d="M36.2501 32.5044H36.1282V43.8834H36.2501V32.5044Z" fill="#4598E6"/>
<path d="M36.1283 32.5044H36.0063V43.8834H36.1283V32.5044Z" fill="#4598E6"/>
<path d="M36.0064 32.5044H35.8845V43.8834H36.0064V32.5044Z" fill="#4598E6"/>
<path d="M35.8844 32.5044H35.7625V43.8834H35.8844V32.5044Z" fill="#4598E6"/>
<path d="M35.7828 32.5044H35.6609V43.8834H35.7828V32.5044Z" fill="#4598E6"/>
<path d="M35.661 32.5044H35.5391V43.8834H35.661V32.5044Z" fill="#4598E6"/>
<path d="M35.5389 32.5044H35.417V43.8834H35.5389V32.5044Z" fill="#4598E6"/>
<path d="M35.4173 32.5044H35.2954V43.8834H35.4173V32.5044Z" fill="#4598E6"/>
<path d="M35.295 32.5044H35.1731V43.8834H35.295V32.5044Z" fill="#4598E6"/>
<path d="M35.1935 32.5044H35.0715V43.8834H35.1935V32.5044Z" fill="#4598E6"/>
<path d="M35.0719 32.5044H34.95V43.8834H35.0719V32.5044Z" fill="#4598E6"/>
<path d="M34.9496 32.5044H34.8276V43.8834H34.9496V32.5044Z" fill="#4598E6"/>
<path d="M34.828 32.5044H34.7061V43.8834H34.828V32.5044Z" fill="#4598E6"/>
<path d="M34.7059 32.5044H34.584V43.8834H34.7059V32.5044Z" fill="#4598E6"/>
<path d="M34.6041 32.5044H34.4822V43.8834H34.6041V32.5044Z" fill="#4598E6"/>
<path d="M34.4825 32.5044H34.3606V43.8834H34.4825V32.5044Z" fill="#4598E6"/>
<path d="M34.3604 32.5044H34.2385V43.8834H34.3604V32.5044Z" fill="#4598E6"/>
<path d="M34.2386 32.5044H34.1167V43.8834H34.2386V32.5044Z" fill="#4598E6"/>
<path d="M34.1168 32.5044H33.9949V43.8834H34.1168V32.5044Z" fill="#4598E6"/>
<path d="M34.015 32.5044H33.8931V43.8834H34.015V32.5044Z" fill="#4598E6"/>
<path d="M33.8932 32.5044H33.7712V43.8834H33.8932V32.5044Z" fill="#4598E6"/>
<path d="M33.7713 32.5044H33.6494V43.8834H33.7713V32.5044Z" fill="#4598E6"/>
<path d="M33.6493 32.5044H33.5273V43.8834H33.6493V32.5044Z" fill="#4598E6"/>
<path d="M33.5274 32.5044H33.4055V43.8834H33.5274V32.5044Z" fill="#4598E6"/>
<path d="M44.6829 34.781L33.8728 32.7694L35.6203 23.8896L46.3491 26.3483L44.6829 34.781Z" fill="#4598E6"/>
<path d="M46.3491 23.8887H46.1663V34.78H46.3491V23.8887Z" fill="#4598E6"/>
<path d="M46.1458 23.8887H45.9629V34.78H46.1458V23.8887Z" fill="#4598E6"/>
<path d="M45.9832 23.8887H45.78V34.78H45.9832V23.8887Z" fill="#4598E6"/>
<path d="M45.7598 23.8887H45.5769V34.78H45.7598V23.8887Z" fill="#4598E6"/>
<path d="M45.5769 23.8887H45.394V34.78H45.5769V23.8887Z" fill="#4598E6"/>
<path d="M45.3941 23.8887H45.2112V34.78H45.3941V23.8887Z" fill="#4598E6"/>
<path d="M45.1907 23.8887H45.0078V34.78H45.1907V23.8887Z" fill="#4598E6"/>
<path d="M45.0081 23.8887H44.8252V34.78H45.0081V23.8887Z" fill="#4598E6"/>
<path d="M44.8047 23.8887H44.6218V34.78H44.8047V23.8887Z" fill="#4598E6"/>
<path d="M44.6218 23.8887H44.439V34.78H44.6218V23.8887Z" fill="#4598E6"/>
<path d="M44.439 23.8887H44.2358V34.78H44.439V23.8887Z" fill="#4598E6"/>
<path d="M44.2359 23.8887H44.053V34.78H44.2359V23.8887Z" fill="#4598E6"/>
<path d="M44.0325 23.8887H43.8496V34.78H44.0325V23.8887Z" fill="#4598E6"/>
<path d="M43.8499 23.8887H43.667V34.78H43.8499V23.8887Z" fill="#4598E6"/>
<path d="M43.6465 23.8887H43.4636V34.78H43.6465V23.8887Z" fill="#4598E6"/>
<path d="M43.4636 23.8887H43.2808V34.78H43.4636V23.8887Z" fill="#4598E6"/>
<path d="M43.2808 23.8887H43.0979V34.78H43.2808V23.8887Z" fill="#4598E6"/>
<path d="M43.0774 23.8887H42.8945V34.78H43.0774V23.8887Z" fill="#4598E6"/>
<path d="M42.9149 23.8887H42.7117V34.78H42.9149V23.8887Z" fill="#4598E6"/>
<path d="M42.6914 23.8887H42.5085V34.78H42.6914V23.8887Z" fill="#4598E6"/>
<path d="M42.5086 23.8887H42.3257V34.78H42.5086V23.8887Z" fill="#4598E6"/>
<path d="M42.3054 23.8887H42.1226V34.78H42.3054V23.8887Z" fill="#4598E6"/>
<path d="M42.1226 23.8887H41.9397V34.78H42.1226V23.8887Z" fill="#4598E6"/>
<path d="M41.9194 23.8887H41.7366V34.78H41.9194V23.8887Z" fill="#4598E6"/>
<path d="M41.7363 23.8887H41.5535V34.78H41.7363V23.8887Z" fill="#4598E6"/>
<path d="M41.5537 23.8887H41.3708V34.78H41.5537V23.8887Z" fill="#4598E6"/>
<path d="M41.3504 23.8887H41.1675V34.78H41.3504V23.8887Z" fill="#4598E6"/>
<path d="M41.1675 23.8887H40.9846V34.78H41.1675V23.8887Z" fill="#4598E6"/>
<path d="M40.9644 23.8887H40.7815V34.78H40.9644V23.8887Z" fill="#4598E6"/>
<path d="M40.8016 23.8887H40.5984V34.78H40.8016V23.8887Z" fill="#4598E6"/>
<path d="M40.5784 23.8887H40.3955V34.78H40.5784V23.8887Z" fill="#4598E6"/>
<path d="M40.3953 23.8887H40.2124V34.78H40.3953V23.8887Z" fill="#4598E6"/>
<path d="M40.1919 23.8887H40.009V34.78H40.1919V23.8887Z" fill="#4598E6"/>
<path d="M40.0093 23.8887H39.8264V34.78H40.0093V23.8887Z" fill="#4598E6"/>
<path d="M39.8062 23.8887H39.6233V34.78H39.8062V23.8887Z" fill="#4598E6"/>
<path d="M39.6233 23.8887H39.4404V34.78H39.6233V23.8887Z" fill="#4598E6"/>
<path d="M39.4402 23.8887H39.2573V34.78H39.4402V23.8887Z" fill="#4598E6"/>
<path d="M39.2574 23.8887H39.0542V34.78H39.2574V23.8887Z" fill="#4598E6"/>
<path d="M39.0542 23.8887H38.8713V34.78H39.0542V23.8887Z" fill="#4598E6"/>
<path d="M38.8509 23.8887H38.668V34.78H38.8509V23.8887Z" fill="#4598E6"/>
<path d="M38.6682 23.8887H38.4854V34.78H38.6682V23.8887Z" fill="#4598E6"/>
<path d="M38.4651 23.8887H38.2822V34.78H38.4651V23.8887Z" fill="#4598E6"/>
<path d="M38.2822 23.8887H38.0994V34.78H38.2822V23.8887Z" fill="#4598E6"/>
<path d="M38.0789 23.8887H37.896V34.78H38.0789V23.8887Z" fill="#4598E6"/>
<path d="M37.896 23.8887H37.7131V34.78H37.896V23.8887Z" fill="#4598E6"/>
<path d="M37.6929 23.8887H37.51V34.78H37.6929V23.8887Z" fill="#4598E6"/>
<path d="M37.5301 23.8887H37.3269V34.78H37.5301V23.8887Z" fill="#4598E6"/>
<path d="M37.3272 23.8887H37.1443V34.78H37.3272V23.8887Z" fill="#4598E6"/>
<path d="M37.1238 23.8887H36.9409V34.78H37.1238V23.8887Z" fill="#4598E6"/>
<path d="M36.9409 23.8887H36.7581V34.78H36.9409V23.8887Z" fill="#4598E6"/>
<path d="M36.7378 23.8887H36.5549V34.78H36.7378V23.8887Z" fill="#4598E6"/>
<path d="M36.5549 23.8887H36.3721V34.78H36.5549V23.8887Z" fill="#4598E6"/>
<path d="M36.3516 23.8887H36.1687V34.78H36.3516V23.8887Z" fill="#4598E6"/>
<path d="M36.169 23.8887H35.9861V34.78H36.169V23.8887Z" fill="#4598E6"/>
<path d="M35.9862 23.8887H35.783V34.78H35.9862V23.8887Z" fill="#4598E6"/>
<path d="M35.7827 23.8887H35.5999V34.78H35.7827V23.8887Z" fill="#4598E6"/>
<path d="M35.5796 23.8887H35.3967V34.78H35.5796V23.8887Z" fill="#4598E6"/>
<path d="M35.3967 23.8887H35.2139V34.78H35.3967V23.8887Z" fill="#4598E6"/>
<path d="M35.2136 23.8887H35.0308V34.78H35.2136V23.8887Z" fill="#4598E6"/>
<path d="M35.0105 23.8887H34.8276V34.78H35.0105V23.8887Z" fill="#4598E6"/>
<path d="M34.8279 23.8887H34.645V34.78H34.8279V23.8887Z" fill="#4598E6"/>
<path d="M34.6248 23.8887H34.4419V34.78H34.6248V23.8887Z" fill="#4598E6"/>
<path d="M34.4417 23.8887H34.2588V34.78H34.4417V23.8887Z" fill="#4598E6"/>
<path d="M34.2589 23.8887H34.0557V34.78H34.2589V23.8887Z" fill="#4598E6"/>
<path d="M34.0557 23.8896H33.8728V34.781H34.0557V23.8896Z" fill="#4598E6"/>
<path d="M29.3618 94.5C36.9368 94.5 43.0776 90.0604 43.0776 84.584C43.0776 79.1075 36.9368 74.668 29.3618 74.668C21.7868 74.668 15.646 79.1075 15.646 84.584C15.646 90.0604 21.7868 94.5 29.3618 94.5Z" fill="#2A94F4" fill-opacity="0.5"/>
<path d="M23.6115 100.88C30.1092 100.88 35.3766 97.0776 35.3766 92.3867C35.3766 87.6958 30.1092 83.8931 23.6115 83.8931C17.1138 83.8931 11.8464 87.6958 11.8464 92.3867C11.8464 97.0776 17.1138 100.88 23.6115 100.88Z" fill="#4598E6"/>
<path d="M23.8958 99.7627H27.8784V105.005L23.8958 99.7627Z" fill="#4598E6"/>
<path d="M12.0292 20.4147C11.7854 20.6586 11.3993 20.6586 11.1758 20.4147L5.85207 15.091C5.60823 14.8472 5.60823 14.4611 5.85207 14.2376C6.0959 13.9937 6.48198 13.9937 6.70549 14.2376L12.0292 19.5613C12.2731 19.7848 12.2731 20.1709 12.0292 20.4147Z" fill="#4598E6"/>
<path d="M9.52986 28.9487C9.5705 29.2739 9.32666 29.5787 8.98123 29.6193L1.50359 30.4118C1.17847 30.4524 0.873676 30.2086 0.833037 29.8631C0.792397 29.538 1.03623 29.2332 1.38167 29.1926L8.85931 28.4001C9.18443 28.3798 9.48922 28.6236 9.52986 28.9487Z" fill="#4598E6"/>
<path d="M8.29027 24.1534C8.18867 24.4786 7.82292 24.6411 7.51812 24.5192L0.406234 22.0402C0.0811186 21.9386 -0.0814395 21.5728 0.0404787 21.268C0.142077 20.9429 0.507832 20.7804 0.812627 20.9023L7.9042 23.3813C8.22931 23.4829 8.39187 23.8283 8.29027 24.1534Z" fill="#4598E6"/>
</svg>
