<svg xmlns="http://www.w3.org/2000/svg" xmlns:xlink="http://www.w3.org/1999/xlink" width="153" height="169" fill="none" xmlns:v="https://vecta.io/nano"><g clip-path="url(#I)" filter="url(#A)"><path opacity=".18" d="M145.39 153.613c-4.671.54-9.348 1.01-14.029 1.411.048.104.104.205.167.302.495.733 1.494.876 2.313 1.219s1.592 1.335 1.051 2.039c-.27.35-.743.447-1.178.52l-4.834.809c-5.885.982-12.1 1.936-17.68-.181-2.307-.879-2.469-2.203-1.664-3.319-29.912 1.294-59.962.307-89.915-.683-2.432 0-5.15-.65-5.801-3.098 15.434-6.923 30.404-6.969 47.114-7.411l58.765-1.559c1.008-.027 2.084-.035 2.943.494s1.351 1.54 2.072 2.287c2.162 2.249 5.778 1.771 8.888 1.542a34.28 34.28 0 0 1 13.41 1.702c.595.199 1.232.456 1.535 1.003.821 1.497-1.459 2.724-3.156 2.923z" fill="#1d2741"/><path opacity=".18" d="M66.799.553c-7.893 1.648-14.824 6.343-20.847 11.699S34.604 23.705 28.481 28.942C18.994 37.065 6.829 44.336 4.432 56.577 2.503 66.399 7.71 76.212 7.945 86.217c.151 7.567-2.524 14.914-3.11 22.465-.565 7.438 1.127 15.318 6.02 20.957 6.979 8.047 18.915 9.932 29.48 8.417s20.503-5.826 30.92-8.11c12.549-2.753 25.583-2.529 38.37-1.17 7.82.833 15.991 2.041 23.343-.747 6.528-2.476 11.689-8.039 14.175-14.563s2.394-13.878.271-20.52c-2.938-9.199-9.458-16.796-13.611-25.515-3.534-7.414-5.304-15.517-7.25-23.495-1.289-5.283-2.769-10.755-6.339-14.862-4.093-4.714-10.268-6.915-15.758-9.908C91.205 11.939 84.13-3.061 66.799.553z" fill="#08f"/><use xlink:href="#J" fill="#08f"/><use xlink:href="#J" fill="url(#B)"/><path d="M103.28 9.841H41.54c-5.565 0-10.076 4.502-10.076 10.056v124.099a10.07 10.07 0 0 0 10.076 10.057h61.74a10.07 10.07 0 0 0 10.077-10.057V19.897A10.07 10.07 0 0 0 103.28 9.841z" fill="#08f"/><path d="M109.76 18.498v119.954c0 .669-.133 1.331-.39 1.949s-.633 1.18-1.107 1.652a5.11 5.11 0 0 1-1.656 1.104 5.12 5.12 0 0 1-1.954.387H40.162c-1.353 0-2.651-.537-3.607-1.492s-1.494-2.25-1.494-3.6V18.498a5.09 5.09 0 0 1 1.495-3.602 5.11 5.11 0 0 1 3.609-1.492h12.751v1.602a5.12 5.12 0 0 0 1.504 3.623 5.14 5.14 0 0 0 3.63 1.501h28.615a5.14 5.14 0 0 0 3.63-1.501 5.12 5.12 0 0 0 1.504-3.623v-1.602h12.851a5.12 5.12 0 0 1 1.955.387c.62.256 1.183.631 1.657 1.104a5.09 5.09 0 0 1 1.108 1.653 5.08 5.08 0 0 1 .39 1.95z" fill="#fff"/><path d="M79.797 13.848h-14.77c-.378 0-.684.306-.684.682v.121c0 .377.306.682.684.682h14.77c.377 0 .684-.305.684-.682v-.121c0-.377-.306-.682-.684-.682z" fill="url(#C)"/><path d="M104.178 13.403v108.434c0 2.437-.97 4.774-2.697 6.497s-4.068 2.691-6.509 2.691H35.061V18.498c0-.669.132-1.332.388-1.95a5.09 5.09 0 0 1 1.106-1.653 5.1 5.1 0 0 1 1.656-1.104 5.11 5.11 0 0 1 1.954-.387h12.751v1.602a5.12 5.12 0 0 0 1.504 3.623 5.14 5.14 0 0 0 3.63 1.501h28.615a5.14 5.14 0 0 0 3.63-1.501 5.12 5.12 0 0 0 1.504-3.623v-1.602h12.379z" fill="#ebebf0"/><use xlink:href="#K" fill="#08f"/><use xlink:href="#K" fill="url(#D)"/><path d="M127.105 59.44h-75.81c-2.734 0-4.95 2.212-4.95 4.941v18.632c0 2.729 2.216 4.941 4.95 4.941h75.81c2.734 0 4.95-2.212 4.95-4.941V64.381c0-2.729-2.216-4.941-4.95-4.941z" fill="#fff"/><path d="M55.51 27.731H42.691v12.794H55.51V27.731z" fill="#fff"/><path d="M67.056 64.67H54.089c-1.416 0-2.564 1.146-2.564 2.559v12.942c0 1.413 1.148 2.559 2.564 2.559h12.967c1.416 0 2.564-1.146 2.564-2.559V67.229c0-1.413-1.148-2.559-2.564-2.559z" fill="#ebebf0"/><path d="M55.51 43.586H42.691V56.38H55.51V43.586z" fill="#fff"/><path d="M55.51 94.003H42.691v12.794H55.51V94.003z" fill="#fff"/><path d="M55.51 109.858H42.691v12.793H55.51v-12.793z" fill="#fff"/><path opacity=".38" d="M69.618 77.768v2.4c0 .336-.066.669-.195.979a2.56 2.56 0 0 1-.556.83c-.238.238-.521.426-.832.555a2.57 2.57 0 0 1-.981.195h-12.97a2.57 2.57 0 0 1-.981-.195c-.311-.129-.594-.317-.832-.555a2.56 2.56 0 0 1-.556-.83c-.129-.311-.195-.643-.195-.979v-2.4a17.84 17.84 0 0 1 7.169-2.778 3.83 3.83 0 0 1-1.655-1.848 3.82 3.82 0 0 1-.173-2.473c.219-.821.705-1.545 1.382-2.06a3.84 3.84 0 0 1 4.699.041c.668.526 1.141 1.259 1.346 2.084a3.82 3.82 0 0 1-.216 2.469 3.83 3.83 0 0 1-1.687 1.819c3.834.615 7.233 2.745 7.233 2.745z" fill="#fff"/><use xlink:href="#L" fill="#ebebf0"/><path d="M106.11 31.073H60.293c-.424 0-.767.342-.767.764s.344.765.767.765h45.817c.423 0 .767-.342.767-.765s-.344-.764-.767-.764z" fill="#fff"/><use xlink:href="#M" fill="#fff"/><path d="M106.107 48.004H60.29a.77.77 0 0 1-.543-.224c-.144-.144-.225-.338-.225-.541s.082-.397.226-.54a.77.77 0 0 1 .542-.223h45.817a.77.77 0 0 1 .542.223c.143.143.225.337.225.54a.77.77 0 0 1-.767.766z" fill="#fff"/><path d="M106.107 52.332H60.29a.77.77 0 0 1-.543-.224c-.144-.144-.225-.338-.225-.542s.082-.397.226-.54a.77.77 0 0 1 .542-.223h45.817a.77.77 0 0 1 .542.223c.143.143.225.337.225.54a.77.77 0 0 1-.767.766z" fill="#fff"/><path d="M106.107 98.997H60.29a.77.77 0 0 1-.543-.224c-.144-.144-.225-.338-.225-.541s.081-.398.225-.542a.77.77 0 0 1 .543-.224h45.817a.77.77 0 0 1 .767.766.77.77 0 0 1-.767.766z" fill="#fff"/><use xlink:href="#N" fill="#fff"/><path d="M106.107 114.852H60.29a.77.77 0 0 1-.543-.224c-.144-.144-.225-.339-.225-.542s.081-.398.225-.541.339-.225.543-.225h45.817a.77.77 0 0 1 .543.225c.143.143.224.338.224.541a.77.77 0 0 1-.224.542c-.144.143-.34.224-.543.224z" fill="#fff"/><path d="M106.107 119.199H60.29c-.204 0-.399-.08-.543-.224s-.225-.338-.225-.542.081-.398.225-.541.339-.225.543-.225h45.817a.77.77 0 0 1 .543.225c.143.143.224.338.224.541a.77.77 0 0 1-.767.766z" fill="#fff"/><path d="M125.649 73.03H76.741a.81.81 0 0 1-.811-.809.81.81 0 0 1 .811-.809h48.908a.81.81 0 0 1 .81.809.81.81 0 0 1-.81.809z" fill="#ebebf0"/><path d="M125.649 78.235H76.741a.81.81 0 0 1-.811-.809.81.81 0 0 1 .811-.809h48.908a.81.81 0 0 1 .81.809.81.81 0 0 1-.81.809z" fill="#ebebf0"/><path d="M116.345 113.496l-3.078 22.383c-.13.942-.032 1.901.287 2.797l5.499 16.181 3.215-.99-2.432-16.092c-.051-.331-.03-.67.062-.992l4.178-14.393 1.816 32.467h2.972l2.559-32.057c.867-5.351-.719-9.304-.719-9.304h-14.359z" fill="#3f3d56"/><path d="M132.131 93.771v15.372c0 1.888-.308 3.411-2.197 3.411h-13.186c-1.892 0-1.951-1.513-1.965-3.387l-.105-10.464s-2.845 5.073-5.115 4.585-9.003-9.757-9.003-9.757l3.35-2.813 5.653 5.663s.905-2.06 2.226-6.672 5.613-4.633 5.613-4.633h11.467c4.14-.014 3.262 8.695 3.262 8.695z" fill="#08f"/><use xlink:href="#O" fill="#08f"/><use xlink:href="#O" fill="url(#E)"/><path d="M132.206 96.654s2.73-7.486 2.432-9.21-2.583-7.149-2.583-7.149v4.768l-4.026.084 4.177 11.507z" fill="#08f"/><path d="M130.71 112.449h-14.365v1.047h14.365v-1.047z" fill="#6057f3"/><path d="M125.384 74.627h-4.145v10.52h4.145v-10.52z" fill="url(#F)"/><path d="M125.394 73.472v11.674h-2.186v-.712a1.56 1.56 0 0 0-.12-.603c-.079-.191-.196-.365-.343-.511a1.58 1.58 0 0 0-.513-.341c-.191-.079-.397-.12-.604-.119h-.125c-.517.002-1.03-.098-1.508-.294s-.914-.485-1.28-.849-.658-.797-.856-1.274-.301-.988-.301-1.504v-5.466h7.836z" fill="url(#G)"/><path d="M118.609 69.907c.873-.496 1.924-.539 2.932-.569l2.146-.062c.475-.029.952-.011 1.424.054.518.087 1.01.29 1.439.592a3.5 3.5 0 0 1 1.042 1.154c.257.458.407.967.44 1.491a3.5 3.5 0 0 1-.249 1.534c-.084.169-.138.352-.159.539 0 .299.194.558.297.839.297.796-.187 1.664-.727 2.322s-1.181 1.327-1.259 2.174c-.025.27 0 .593-.181.809a.68.68 0 0 1-.854.059c-.25-.185-.454-.425-.595-.701.022.399-.54.62-.891.434-.166-.114-.306-.262-.41-.434a1.42 1.42 0 0 1-.196-.564 3.2 3.2 0 0 0-.362-1.138c-.183-.27-.475-.461-.572-.769-.171-.539.364-1.144.162-1.68-.168-.437-.77-.566-1.203-.38a2.64 2.64 0 0 0-1.002.963c.397-.539.07-1.464-.341-1.901-.673-.717-1.686-.111-2.248-.626-1.073-.99.416-3.6 1.367-4.14z" fill="#3f3d56"/><path d="M124.457 85.125s-1.608 2.101-3.837 2.101-8.736 6.354-9.16 8.277-1.892.866-1.892.866.906-2.06 2.227-6.672 5.612-4.633 5.612-4.633h5.826l1.224.062z" fill="#6057f3"/><path d="M122.268 153.6l1.135 2.778-4.577 2.157-4.24.307s-.724-2.78 1.256-3.028c1.156-.13 2.258-.556 3.2-1.235l3.226-.979z" fill="#222a72"/><path d="M125.9 154.857a3.43 3.43 0 0 0-1.445 1.119c-.371.497-.6 1.085-.663 1.702l-.119 1.173h5.196v-3.994H125.9z" fill="#222a72"/><path d="M103.91 90.713l-2.186-2.697s-.746-2.878-1.165-1.095c-.235 1.001-.902 2.81-.902 2.81h-3.351s2.351 2.478 3.351 2.931a5.59 5.59 0 0 0 1.432.413l2.821-2.362z" fill="url(#H)"/></g><defs><filter id="A" x="0" y="0" width="153" height="169" filterUnits="userSpaceOnUse" color-interpolation-filters="sRGB"><feFlood flood-opacity="0" result="A"/><feColorMatrix in="SourceAlpha" values="0 0 0 0 0 0 0 0 0 0 0 0 0 0 0 0 0 0 127 0"/><feOffset dy="4"/><feGaussianBlur stdDeviation="2"/><feColorMatrix values="0 0 0 0 0 0 0 0 0 0 0 0 0 0 0 0 0 0 0.25 0"/><feBlend in2="A"/><feBlend in="SourceGraphic"/></filter><linearGradient id="B" x1="-11.759" y1="177.664" x2="103.77" y2="17.592" xlink:href="#P"><stop stop-opacity="0"/><stop offset=".85" stop-opacity=".51"/><stop offset=".99"/></linearGradient><linearGradient id="C" x1="72.352" y1="10.747" x2="72.737" y2="35.86" xlink:href="#P"><stop stop-color="#183866"/><stop offset="1" stop-color="#1a7fc1"/></linearGradient><linearGradient id="D" x1="12315.2" y1="18268.5" x2="14251.7" y2="5739.9" xlink:href="#P"><stop stop-opacity="0"/><stop offset=".85" stop-opacity=".51"/><stop offset=".99"/></linearGradient><linearGradient id="E" x1="4511.99" y1="7396.76" x2="5915.31" y2="6509.21" xlink:href="#P"><stop stop-opacity="0"/><stop offset=".85" stop-opacity=".51"/><stop offset=".99"/></linearGradient><linearGradient id="F" x1="122.033" y1="79.91" x2="128.84" y2="79.785" xlink:href="#P"><stop stop-color="#ecc4d7"/><stop offset=".42" stop-color="#efd4d1"/><stop offset="1" stop-color="#f2eac9"/></linearGradient><linearGradient id="G" x1="4717.5" y1="3485" x2="4671.26" y2="3501.45" xlink:href="#P"><stop stop-color="#ecc4d7"/><stop offset=".42" stop-color="#efd4d1"/><stop offset="1" stop-color="#f2eac9"/></linearGradient><linearGradient id="H" x1="3824.78" y1="2327.41" x2="4038.74" y2="2327.41" xlink:href="#P"><stop stop-color="#ecc4d7"/><stop offset=".42" stop-color="#efd4d1"/><stop offset="1" stop-color="#f2eac9"/></linearGradient><clipPath id="I"><path fill="#fff" transform="translate(4)" d="M0 0h145v161H0z"/></clipPath><path id="J" d="M36.352 9.841h46.846v144.212H36.352a8.54 8.54 0 0 1-6.034-2.495c-1.6-1.597-2.499-3.763-2.499-6.022V18.357a8.51 8.51 0 0 1 2.499-6.022 8.54 8.54 0 0 1 6.034-2.494z"/><path id="K" d="M125.619 61.223h-75.81c-2.734 0-4.95 2.212-4.95 4.941v18.632c0 2.729 2.216 4.941 4.95 4.941h75.81c2.734 0 4.95-2.212 4.95-4.941V66.164c0-2.729-2.216-4.941-4.95-4.941z"/><path id="L" d="M125.649 67.828H76.741a.81.81 0 0 1-.811-.809.81.81 0 0 1 .811-.809h48.908a.81.81 0 0 1 .81.809.81.81 0 0 1-.81.809z"/><path id="M" d="M106.107 37.699H60.29a.77.77 0 0 1-.543-.224c-.144-.144-.225-.338-.225-.542s.082-.397.226-.54a.77.77 0 0 1 .542-.223h45.817a.77.77 0 0 1 .542.223c.143.143.225.337.225.54a.77.77 0 0 1-.767.766z"/><path id="N" d="M106.107 103.334H60.29a.77.77 0 0 1-.543-.224c-.144-.144-.225-.339-.225-.542s.081-.398.225-.541.339-.225.543-.225h45.817a.77.77 0 0 1 .543.225c.143.143.224.338.224.541a.77.77 0 0 1-.224.542c-.144.143-.34.224-.543.224z"/><path id="O" d="M132.055 78.235s4.186 8.573 4.407 11.505-4.256 6.915-4.256 6.915l-3.337-11.596h3.186v-6.823z"/><linearGradient id="P" gradientUnits="userSpaceOnUse"/></defs></svg>