<svg id="Capa_1" enable-background="new 0 0 505 505" height="512" viewBox="0 0 505 505" width="512" xmlns="http://www.w3.org/2000/svg"><g><g><path d="m23.931 304.704h457.139v156h-457.139z" fill="#eab74d"/><path d="m23.931 304.704h457.139v108h-457.139z" fill="#d09d3f"/><path d="m23.931 304.704h457.139v92h-457.139z" fill="#7da2dc"/><path d="m272.646 264.318-1.329-1.329c-58.626-58.626-153.677-58.626-212.303 0l-1.329 1.329 1.329 1.329c58.626 58.626 153.677 58.626 212.303 0z" fill="#d6d8e0"/><path d="m7.5 144.704h31.003v352.731h-31.003z" fill="#eab74d"/><path d="m466.497 252.435h31.003v245h-31.003z" fill="#eab74d"/><path d="m271.864 265.21-.353.353c-58.731 58.736-153.958 58.739-212.691.005-.061-.061-.091-.147-.08-.232l.233-1.896c.021-.172.191-.283.356-.235 6.496 1.89 111.957 31.653 212.258 1.546.278-.084.483.254.277.459z" fill="#b7bcc9"/><circle cx="376.557" cy="136.063" fill="#d6d8e0" r="88.641"/><path d="m439.236 73.384c-20.726-20.726-49.16-29.029-76.074-24.937 18.038 2.743 35.394 11.046 49.284 24.937 34.617 34.616 34.617 90.741 0 125.358-13.891 13.891-31.246 22.194-49.284 24.937 26.914 4.092 55.348-4.21 76.074-24.937 34.616-34.617 34.616-90.742 0-125.358z" fill="#e7e8ed"/><path d="m477.191 83.318c17.329-17.329 17.329-45.426 0-62.755s-45.426-17.329-62.755 0z" fill="#f5dc60"/><path d="m274.683 83.318c-17.329-17.329-17.329-45.426 0-62.755s45.426-17.329 62.755 0z" fill="#f5dc60"/><g fill="#ddc448"><path d="m282.883 14.103c-2.916 1.789-5.674 3.935-8.199 6.46-17.329 17.329-17.329 45.426 0 62.755l14.659-14.659c-14.805-14.805-16.951-37.462-6.46-54.556z"/><path d="m483.651 28.762c-1.789-2.916-3.935-5.674-6.46-8.199-17.329-17.329-45.426-17.329-62.755 0l14.659 14.659c14.804-14.804 37.462-16.95 54.556-6.46z"/></g></g><g><path d="m38.503 137.204h-31.003c-4.142 0-7.5 3.358-7.5 7.5v352.731c0 4.142 3.358 7.5 7.5 7.5h31.003c4.142 0 7.5-3.358 7.5-7.5v-280.729c0-4.142-3.358-7.5-7.5-7.5s-7.5 3.358-7.5 7.5v273.229h-16.003v-337.731h16.003v39.5c0 4.142 3.358 7.5 7.5 7.5s7.5-3.358 7.5-7.5v-47c0-4.142-3.357-7.5-7.5-7.5z"/><path d="m497.5 244.935h-31.004c-4.143 0-7.5 3.358-7.5 7.5v245c0 4.142 3.357 7.5 7.5 7.5h31.004c4.143 0 7.5-3.358 7.5-7.5v-245c0-4.142-3.357-7.5-7.5-7.5zm-7.5 245h-16.004v-230h16.004z"/><path d="m444.503 297.204h-384.006c-4.142 0-7.5 3.358-7.5 7.5s3.358 7.5 7.5 7.5h384.006c4.143 0 7.5-3.358 7.5-7.5s-3.357-7.5-7.5-7.5z"/><path d="m444.503 453.204h-384.006c-4.142 0-7.5 3.358-7.5 7.5s3.358 7.5 7.5 7.5h384.006c4.143 0 7.5-3.358 7.5-7.5s-3.357-7.5-7.5-7.5z"/><path d="m75.062 288.854c3.396 2.372 8.073 1.539 10.442-1.858 2.371-3.396 1.539-8.072-1.858-10.442-5.295-3.696-10.387-7.797-15.191-12.235 26.417-24.419 60.536-37.797 96.712-37.797 36.167 0 70.278 13.374 96.705 37.797-4.804 4.438-9.895 8.54-15.19 12.235-3.397 2.371-4.229 7.046-1.858 10.442 1.458 2.09 3.789 3.209 6.157 3.208 1.482 0 2.979-.438 4.286-1.35 7.563-5.279 14.747-11.304 21.35-17.906l1.33-1.33c1.41-1.41 2.201-3.323 2.197-5.317s-.801-3.905-2.216-5.31l-1.311-1.3c-29.768-29.773-69.348-46.17-111.45-46.17s-81.684 16.397-111.438 46.151l-1.33 1.32c-1.415 1.405-2.212 3.315-2.215 5.309s.787 3.907 2.197 5.316l1.33 1.33c6.602 6.603 13.786 12.628 21.351 17.907z"/><path d="m444.503 389.204h-68.998c-4.143 0-7.5 3.358-7.5 7.5s3.357 7.5 7.5 7.5h68.998c4.143 0 7.5-3.358 7.5-7.5s-3.357-7.5-7.5-7.5z"/><path d="m60.497 404.204h290.006c4.143 0 7.5-3.358 7.5-7.5s-3.357-7.5-7.5-7.5h-290.006c-4.142 0-7.5 3.358-7.5 7.5s3.358 7.5 7.5 7.5z"/><path d="m471.887 88.621c1.407 1.407 3.314 2.197 5.304 2.197s3.896-.79 5.304-2.197c18.424-18.425 20.058-47.371 4.915-67.67l3.395-3.395c2.929-2.929 2.929-7.678 0-10.606-2.93-2.929-7.678-2.929-10.607 0l-3.387 3.387c-8.906-6.665-19.673-10.271-30.997-10.271-13.855 0-26.883 5.396-36.681 15.194-2.929 2.929-2.929 7.678 0 10.606zm-26.074-73.555c9.85 0 19.11 3.835 26.074 10.8 12.562 12.561 14.148 32.003 4.762 46.303l-51.07-51.07c5.958-3.926 12.934-6.033 20.234-6.033z"/><path d="m269.379 88.621c1.407 1.407 3.314 2.197 5.304 2.197s3.896-.79 5.304-2.197l62.756-62.755c1.406-1.406 2.196-3.314 2.196-5.303s-.79-3.897-2.196-5.303c-9.799-9.798-22.826-15.194-36.682-15.194-11.323 0-22.091 3.607-30.997 10.271l-3.387-3.387c-2.93-2.929-7.678-2.929-10.607 0s-2.929 7.678 0 10.606l3.395 3.395c-15.143 20.299-13.509 49.246 4.914 67.67zm56.916-67.522-51.07 51.07c-9.387-14.3-7.8-33.743 4.762-46.304 6.964-6.965 16.225-10.8 26.074-10.8 7.3.001 14.276 2.108 20.234 6.034z"/><path d="m464.802 224.308c2.929-2.929 2.929-7.678 0-10.606l-15.186-15.187c32.295-37.731 30.622-94.736-5.076-130.435-37.486-37.486-98.479-37.484-135.966 0-35.698 35.699-37.372 92.703-5.076 130.435l-15.186 15.187c-2.929 2.929-2.929 7.678 0 10.606 1.465 1.464 3.385 2.197 5.304 2.197s3.839-.732 5.304-2.197l15.186-15.186c17.922 15.339 40.179 23.037 62.452 23.037s44.531-7.697 62.453-23.037l15.186 15.186c1.465 1.465 3.384 2.197 5.304 2.197 1.916 0 3.836-.733 5.301-2.197zm-145.621-30.87c-31.637-31.637-31.637-83.114 0-114.751 15.82-15.82 36.595-23.728 57.376-23.728 20.775 0 41.559 7.911 57.375 23.728 31.637 31.637 31.637 83.114 0 114.751-31.637 31.636-83.114 31.637-114.751 0z"/><path d="m376.557 73.196c-4.143 0-7.5 3.358-7.5 7.5v52.26l-22.648 22.645v-.696c0-4.142-3.357-7.5-7.5-7.5s-7.5 3.358-7.5 7.5v18.806c0 4.142 3.357 7.5 7.5 7.5h18.806c4.143 0 7.5-3.358 7.5-7.5s-3.357-7.5-7.5-7.5h-.703l24.847-24.844c1.407-1.407 2.197-3.314 2.197-5.304v-55.367c.001-4.143-3.356-7.5-7.499-7.5z"/></g></g></svg>